<svg xmlns="http://www.w3.org/2000/svg" xmlns:xlink="http://www.w3.org/1999/xlink" width="264.337" height="241.788" viewBox="0 0 264.337 241.788">
  <defs>
    <linearGradient id="linear-gradient" x1="0.157" y1="0.825" x2="0.349" y2="0.145" gradientUnits="objectBoundingBox">
      <stop offset="0" stop-color="#ff8b16"/>
      <stop offset="1" stop-color="#f2f912"/>
    </linearGradient>
    <linearGradient id="linear-gradient-2" x1="0.5" y1="-0.081" x2="0.5" y2="0.987" gradientUnits="objectBoundingBox">
      <stop offset="0" stop-color="#36c"/>
      <stop offset="0.059" stop-color="#3868cd"/>
      <stop offset="0.436" stop-color="#5577d8"/>
      <stop offset="0.762" stop-color="#6680df"/>
      <stop offset="1" stop-color="#6d84e2"/>
    </linearGradient>
  </defs>
  <g id="illustration_proses" transform="translate(-274.858 -245.237)">
    <path id="Path_10542" data-name="Path 10542" d="M304.6,275.876c26.133-6.933,42.134,21.867,60.267-9.6s81.066-28.267,92.8,13.867-.533,66.133,63.467,75.2-53.867,210.667-169.6,97.067S278.469,282.809,304.6,275.876Z" fill="url(#linear-gradient)"/>
    <g id="Group_1664" data-name="Group 1664" transform="translate(390.835 250.676)">
      <g id="Group_1650" data-name="Group 1650">
        <path id="Rectangle_499" data-name="Rectangle 499" d="M1.969,0H112.6a1.968,1.968,0,0,1,1.968,1.968v186.3a1.969,1.969,0,0,1-1.969,1.969H1.969A1.969,1.969,0,0,1,0,188.27V1.969A1.969,1.969,0,0,1,1.969,0Z" fill="#272c66"/>
        <rect id="Rectangle_500" data-name="Rectangle 500" width="98.2" height="166.675" transform="translate(8.777 7.869)" fill="url(#linear-gradient-2)"/>
        <rect id="Rectangle_501" data-name="Rectangle 501" width="83.936" height="135.03" transform="translate(15.909 27.408)" fill="#fff"/>
        <circle id="Ellipse_23" data-name="Ellipse 23" cx="3.089" cy="3.089" r="3.089" transform="translate(54.195 178.746)" fill="#fff"/>
      </g>
      <g id="Group_1663" data-name="Group 1663" transform="translate(25.697 65.019)">
        <rect id="Rectangle_510" data-name="Rectangle 510" width="63.897" height="48.046" fill="#272c66"/>
        <rect id="Rectangle_511" data-name="Rectangle 511" width="59.092" height="42.181" transform="translate(2.403 2.932)" fill="#a6f2f2"/>
        <g id="Group_1658" data-name="Group 1658" transform="translate(2.403 2.93)">
          <path id="Path_10504" data-name="Path 10504" d="M410.546,272.894v-.249h-3.3v-6.258H407v6.258h-6.21v-6.258h-.246v6.258h-6.208v-6.258h-.246v6.258h-6.21v-6.258h-.249v6.258h-6.21v-6.258h-.246v6.258h-6.21v-6.258h-.246v6.258h-6.21v-6.258h-.246v6.258h-6.21v-6.258h-.246v6.258H355.6v-6.258h-.249v6.258h-3.894v.249h3.894v6.258h-3.894v.249h3.894v6.258h-3.894v.249h3.894v6.256h-3.894v.249h3.894v6.258h-3.894v.249h3.894v6.258h-3.894v.249h3.894v3.145h.249v-3.145h6.21v3.145h.246v-3.145h6.21v3.145h.246v-3.145h6.21v3.145h.246v-3.145h6.21v3.145h.246v-3.145h6.21v3.145h.249v-3.145h6.21v3.145h.246v-3.145h6.208v3.145h.246v-3.145H407v3.145h.246v-3.145h3.3v-.249h-3.3V298.92h3.3v-.249h-3.3v-6.258h3.3v-.249h-3.3v-6.256h3.3v-.249h-3.3V279.4h3.3v-.249h-3.3v-6.258Zm-10,0v6.258h-6.208v-6.258Zm0,12.765h-6.208V279.4h6.208Zm0,6.5h-6.208v-6.256h6.208Zm0,6.507h-6.208v-6.258h6.208Zm-38.492-6.258h6.21v6.258h-6.21Zm0-6.5h6.21v6.256h-6.21Zm0-6.507h6.21v6.258h-6.21Zm32.038,6.258h-6.21V279.4h6.21Zm0,6.5h-6.21v-6.256h6.21Zm-25.582-6.256h6.21v6.256h-6.21Zm6.456,0h6.21v6.256h-6.21Zm6.456,0h6.21v6.256h-6.21Zm6.21-.249h-6.21V279.4h6.21Zm-6.456,0h-6.21V279.4h6.21Zm-6.456,0h-6.21V279.4h6.21Zm-6.21,6.753h6.21v6.258h-6.21Zm6.456,0h6.21v6.258h-6.21Zm6.456,0h6.21v6.258h-6.21Zm6.459,0h6.21v6.258h-6.21Zm6.21-19.519v6.258h-6.21v-6.258Zm-6.459,0v6.258h-6.21v-6.258Zm-6.456,0v6.258h-6.21v-6.258Zm-6.456,0v6.258h-6.21v-6.258Zm-6.456,0v6.258h-6.21v-6.258Zm-12.666,0h6.21v6.258H355.6Zm0,6.507h6.21v6.258H355.6Zm0,6.507h6.21v6.256H355.6Zm0,6.5h6.21v6.258H355.6Zm0,12.765V298.92h6.21v6.258Zm6.456,0V298.92h6.21v6.258Zm6.456,0V298.92h6.21v6.258Zm6.456,0V298.92h6.21v6.258Zm6.456,0V298.92h6.21v6.258Zm6.459,0V298.92h6.21v6.258Zm6.456,0V298.92h6.208v6.258Zm12.664,0h-6.21V298.92H407Zm0-6.507h-6.21v-6.258H407Zm0-6.507h-6.21v-6.256H407Zm0-6.5h-6.21V279.4H407Zm0-6.507h-6.21v-6.258H407Z" transform="translate(-351.455 -266.387)" fill="#fff"/>
        </g>
        <g id="Group_1659" data-name="Group 1659" transform="translate(12.815 20.579)">
          <path id="Path_10505" data-name="Path 10505" d="M357.31,279.859a11.8,11.8,0,0,0-1.222.684.691.691,0,0,0,.739,1.167,12.436,12.436,0,0,1,1.089-.609.691.691,0,1,0-.606-1.242Z" transform="translate(-355.766 -265.07)" fill="#9c48d1"/>
          <path id="Path_10506" data-name="Path 10506" d="M364.093,273.694a10.043,10.043,0,0,0-2.628.993.693.693,0,0,0,.336,1.3.676.676,0,0,0,.336-.087,8.783,8.783,0,0,1,2.37-.877l-.14-.679Z" transform="translate(-348.204 -273.694)" fill="#9c48d1"/>
          <path id="Path_10507" data-name="Path 10507" d="M364.267,273.864a.691.691,0,1,0-.6,1.246,5.361,5.361,0,0,1,1.828,1.572.692.692,0,0,0,.541.261.681.681,0,0,0,.43-.15.691.691,0,0,0,.111-.971A6.713,6.713,0,0,0,364.267,273.864Z" transform="translate(-345.134 -273.548)" fill="#9c48d1"/>
          <path id="Path_10508" data-name="Path 10508" d="M359.841,278.975a7.478,7.478,0,0,1-2.174,1.239.69.69,0,0,0,.266,1.328.682.682,0,0,0,.263-.053,8.638,8.638,0,0,0,2.565-1.483.691.691,0,0,0-.92-1.031Z" transform="translate(-353.679 -266.47)" fill="#9c48d1"/>
          <path id="Path_10509" data-name="Path 10509" d="M360.522,276.8a.7.7,0,0,0-.87.447q-.257.812-.473,1.669a8.633,8.633,0,0,1-.29.937.692.692,0,0,0,.4.891.732.732,0,0,0,.244.044.691.691,0,0,0,.647-.449,10.655,10.655,0,0,0,.338-1.082q.207-.819.452-1.587A.692.692,0,0,0,360.522,276.8Z" transform="translate(-351.408 -269.34)" fill="#9c48d1"/>
          <path id="Path_10510" data-name="Path 10510" d="M361.3,275a10.906,10.906,0,0,0-1.633,2.42.687.687,0,0,0,.3.928.657.657,0,0,0,.314.077.687.687,0,0,0,.613-.379,9.568,9.568,0,0,1,1.43-2.116A.693.693,0,0,0,361.3,275Z" transform="translate(-350.352 -272.159)" fill="#9c48d1"/>
          <path id="Path_10511" data-name="Path 10511" d="M366.773,277.155c-.237-.44-.476-.884-.725-1.326a.691.691,0,0,0-1.2.681c.242.432.478.87.71,1.3.2.379.4.751.606,1.114a.685.685,0,0,0,.6.353.676.676,0,0,0,.336-.087.69.69,0,0,0,.266-.942C367.172,277.9,366.974,277.529,366.773,277.155Z" transform="translate(-343.041 -271.167)" fill="#9c48d1"/>
          <path id="Path_10512" data-name="Path 10512" d="M370.85,277.482a9.585,9.585,0,0,1-2.321,1.07.692.692,0,0,0,.2,1.355.677.677,0,0,0,.193-.027,11.029,11.029,0,0,0,2.659-1.22.692.692,0,0,0-.727-1.179Z" transform="translate(-338.405 -268.477)" fill="#9c48d1"/>
          <path id="Path_10513" data-name="Path 10513" d="M371.633,276.329c-.413.432-.894.9-1.425,1.36a.689.689,0,0,0-.063.976.681.681,0,0,0,.519.237.689.689,0,0,0,.454-.169c.563-.493,1.072-.988,1.512-1.442a.693.693,0,0,0-1-.961Z" transform="translate(-335.658 -270.261)" fill="#9c48d1"/>
          <path id="Path_10514" data-name="Path 10514" d="M369.091,278.692a5.182,5.182,0,0,1-.865-.212,2.71,2.71,0,0,1-1.089-.819.691.691,0,1,0-1.034.918,4.038,4.038,0,0,0,1.671,1.208,6.548,6.548,0,0,0,1.1.273.809.809,0,0,0,.109.007.691.691,0,0,0,.106-1.374Z" transform="translate(-341.381 -268.41)" fill="#9c48d1"/>
          <path id="Path_10515" data-name="Path 10515" d="M373.322,275.076a.685.685,0,0,0-.964.15c-.01.01-.295.4-.792.973a.692.692,0,0,0,.072.976.68.68,0,0,0,.452.167.689.689,0,0,0,.524-.239c.548-.635.857-1.06.857-1.06A.689.689,0,0,0,373.322,275.076Z" transform="translate(-333.639 -271.929)" fill="#9c48d1"/>
        </g>
        <circle id="Ellipse_26" data-name="Ellipse 26" cx="2.163" cy="2.163" r="2.163" transform="translate(6.129 35.433)" fill="#fe3da6"/>
        <g id="Group_1660" data-name="Group 1660" transform="translate(6.018 25.862)">
          <path id="Path_10516" data-name="Path 10516" d="M352.952,283.115l1.37-7.234h1.807l1.362,7.234h-1.476l-.249-1.536H354.71l-.244,1.536Zm1.9-2.493h.771l-.389-2.8Z" transform="translate(-352.952 -275.881)"/>
        </g>
        <g id="Group_1661" data-name="Group 1661" transform="translate(53.375 26.789)">
          <path id="Path_10517" data-name="Path 10517" d="M372.558,283.5v-7.237h1.884a5.35,5.35,0,0,1,.722.043,2.59,2.59,0,0,1,.628.164,1.521,1.521,0,0,1,.517.324,1.439,1.439,0,0,1,.324.553,2.23,2.23,0,0,1,.109.751v.06c-.012.841-.365,1.329-1.06,1.452a1.348,1.348,0,0,1,.952.527,2.028,2.028,0,0,1,.336,1.215v.048a2.075,2.075,0,0,1-.553,1.575,2.32,2.32,0,0,1-1.633.524Zm1.6-4.343h.3a.87.87,0,0,0,.7-.232,1.176,1.176,0,0,0,.184-.729c0-.572-.312-.858-.94-.858h-.251Zm0,3.225h.336a.9.9,0,0,0,.729-.254,1.231,1.231,0,0,0,.208-.8,1.353,1.353,0,0,0-.213-.865.941.941,0,0,0-.746-.251h-.314Z" transform="translate(-372.558 -276.265)"/>
        </g>
        <g id="Group_1662" data-name="Group 1662" transform="translate(52.148 8.236)">
          <circle id="Ellipse_27" data-name="Ellipse 27" cx="2.163" cy="2.163" r="2.163" transform="translate(1.158 11.386)" fill="#fe3da6"/>
          <path id="Path_10518" data-name="Path 10518" d="M375.371,268.584a3.322,3.322,0,0,0-3.321,3.321c0,1.833,3.321,6.814,3.321,6.814s3.319-4.981,3.319-6.814A3.32,3.32,0,0,0,375.371,268.584Zm0,4.744a1.262,1.262,0,1,1,1.261-1.261A1.262,1.262,0,0,1,375.371,273.328Z" transform="translate(-372.05 -268.584)" fill="#fe3da6"/>
        </g>
      </g>
      <rect id="Rectangle_512" data-name="Rectangle 512" width="4.816" height="3.894" rx="0.47" transform="translate(12.338 11.05)" fill="#fff"/>
      <rect id="Rectangle_513" data-name="Rectangle 513" width="4.816" height="3.894" rx="0.47" transform="translate(25.476 11.05)" fill="#fff"/>
      <rect id="Rectangle_514" data-name="Rectangle 514" width="4.816" height="3.894" rx="0.47" transform="translate(88.928 11.05)" fill="#fff"/>
      <rect id="Rectangle_515" data-name="Rectangle 515" width="4.816" height="3.894" rx="0.47" transform="translate(74.207 11.05)" fill="#fff"/>
      <rect id="Rectangle_516" data-name="Rectangle 516" width="4.816" height="3.894" rx="0.47" transform="translate(98.153 11.05)" fill="#fff"/>
    </g>
    <g id="Group_1666" data-name="Group 1666" transform="translate(303.78 268.068)">
      <g id="Group_1665" data-name="Group 1665" transform="translate(55.449 19.566)">
        <path id="Path_10519" data-name="Path 10519" d="M328.236,276.808c.964-.44,1.942-.84,2.925-1.232.331-.225.674-.435,1.007-.657a39.883,39.883,0,0,1-2.031-5.488.9.9,0,0,1-.9.756c-.836.051-.551-1.362-.481-1.754a5.73,5.73,0,0,0-.229-2.036c0-.65-.937-.587-1.278.473a12.255,12.255,0,0,0-.515,3.036,11.117,11.117,0,0,0,.51,2.568A31.473,31.473,0,0,1,328.236,276.808Z" transform="translate(-326.736 -265.977)" fill="#f88667"/>
      </g>
      <path id="Path_10520" data-name="Path 10520" d="M332.086,271.963l5.949-2.937S352.236,300.8,347.9,306c-5.708,6.84-15.111-4.369-21.4-8.681-1.193-.816-5.295-8.563-2.848-12.162,0,0,3.826-8.483,6.34-5.708,4.237,4.681,8.729,17.833,8.824,17.108C339.052,294.784,332.086,271.963,332.086,271.963Z" transform="translate(-276.732 -242.095)" fill="#00bad1"/>
      <path id="Path_10521" data-name="Path 10521" d="M326.4,289.565c6.208,4.824,14.608,13.857,19.874,7.551h0a7.123,7.123,0,0,0,.181-.889c-2.575,1.184-5.394-.819-7.507-2.86-.266-.256-9.309-13.273-12.978-18.065a16.391,16.391,0,0,1-.244,2.234,13.482,13.482,0,0,1-1.684,4.594C325.306,283.647,325.97,286.705,326.4,289.565Z" transform="translate(-275.103 -233.212)" fill="#00a1cc" opacity="0.65" style="mix-blend-mode: multiply;isolation: isolate"/>
      <path id="Rectangle_517" data-name="Rectangle 517" d="M.383,0H7.088A.381.381,0,0,1,7.47.381V12.922a.383.383,0,0,1-.383.383H.383A.383.383,0,0,1,0,12.922V.383A.383.383,0,0,1,.383,0Z" transform="translate(49.64 15.664) rotate(-27.232)" fill="#110239"/>
      <path id="Path_10522" data-name="Path 10522" d="M333.258,269.419a6.3,6.3,0,0,0-2.65-4.913c-.971-.674-1.7.087-2.782,1.126-.72.688-1.362,1.374-1.377,1.889.254,1.959,2.5-.6,3.227-1.063,0,0-2.7,2.271-2.466,3.186.473,1.713,2.664-.877,3.333-1.377a4.486,4.486,0,0,0-1.737,1.816.681.681,0,0,0,.147,1.029c.691.408,2.58-1.715,2.58-1.715-.341.382-1.85,1.343-1.019,1.952.553.406,1.118-.164,1.488-.372A2.407,2.407,0,0,0,333.258,269.419Z" transform="translate(-271.694 -248.853)" fill="#f88667"/>
      <path id="Path_10523" data-name="Path 10523" d="M350.188,277s4.828-5.116-3.036-6.966-29.536-1.089-33.75,2.927c-6.947,6.616-14.512,46.571-5.49,49.315s32.777,7.92,37.272-5.746S353.485,283.06,350.188,277Z" transform="translate(-303.78 -242.028)" fill="#9c48d1"/>
      <path id="Path_10524" data-name="Path 10524" d="M350.223,274.6c-5.5,2.78-11.954,4.437-17.939,3.676-7.138-.908-12.154-5.816-18.874-7.6l-.019.017c-6.865,6.7-14.512,46.571-5.49,49.315s32.777,7.92,37.272-5.746,8.3-33.468,5-39.53Z" transform="translate(-303.769 -239.761)" fill="#6d008d"/>
      <path id="Path_10525" data-name="Path 10525" d="M343.614,272.432l.046-.133c-5.5,2.78-11.954,4.437-17.939,3.676a19.974,19.974,0,0,1-3.906-.937c-8.971,11.526-13.273,22.92-13.391,38.125-.015,1.884.213,4.128.3,6.406,10.828,2.227,26.338,3.174,29.883-7.606C343.1,298.3,346.911,278.495,343.614,272.432Z" transform="translate(-297.207 -237.462)" fill="#6d008d" opacity="0.5" style="mix-blend-mode: multiply;isolation: isolate"/>
      <path id="Path_10526" data-name="Path 10526" d="M325.248,324.823a21.339,21.339,0,0,0-1.087,5.575c-.012,2.43.164,5.014.911,5.626,1.49,1.22,20.342,1.379,21.879-.362s.512-4.563-3.483-5.536c-4.28-1.043-4.879-.6-7.572-1.621s-2.043-4.053-2.043-4.053Z" transform="translate(-274.932 -163.646)" fill="#110239"/>
      <path id="Path_10527" data-name="Path 10527" d="M310.012,323.139a21.37,21.37,0,0,0-3,4.821c-.874,2.266-1.63,4.744-1.152,5.58.957,1.671,18.517,8.538,20.572,7.456s2.1-4.077-1.283-6.411c-3.628-2.5-4.345-2.3-6.5-4.215s-.464-4.514-.464-4.514Z" transform="translate(-301.052 -165.503)" fill="#110239"/>
      <path id="Path_10528" data-name="Path 10528" d="M339.448,291.429l-25.405,2.824s22.719,36.32,24.437,42.154-.633,37.543-.633,37.543h11.5s2.469-37.449,1.9-40.272S339.448,291.429,339.448,291.429Z" transform="translate(-289.253 -210.386)" fill="#36c"/>
      <path id="Path_10529" data-name="Path 10529" d="M338.516,335.867c.056-.546.128-1.089.13-1.64a82.015,82.015,0,0,0-2-19.512c-1.773-7.275-6.157-15.1-7.782-22.8l-14.826,1.647s22.719,36.32,24.437,42.154C338.494,335.761,338.5,335.821,338.516,335.867Z" transform="translate(-289.253 -209.696)" fill="#2135ad"/>
      <path id="Path_10530" data-name="Path 10530" d="M349.177,292.209h-29s-3.386,8.891-1.833,15.664,2.587,21.171,2.447,23.712S306.485,368,306.485,368l10.563,3.925s14.56-32.294,15.973-35.963S349.177,292.209,349.177,292.209Z" transform="translate(-299.951 -209.282)" fill="#36c"/>
      <path id="Path_10531" data-name="Path 10531" d="M331.188,268.182a25.743,25.743,0,0,1-7-.553,10.494,10.494,0,0,1-2.379-.836c-.246,2.913-1.065,9.715-3.478,12.273,0,0,.328,3.435,6.35,4.283s7.266-3.623,7.266-3.623S330.782,272.476,331.188,268.182Z" transform="translate(-283.188 -245.256)" fill="#f88667"/>
      <path id="Path_10532" data-name="Path 10532" d="M318.345,279.177q.018.091.065.246l.01.031a3.567,3.567,0,0,0,.142.377l.01.017a3.981,3.981,0,0,0,.254.466l.043.068a4.984,4.984,0,0,0,.976,1.087l.072.063a6.681,6.681,0,0,0,.763.529c.039.022.08.041.116.063a8.112,8.112,0,0,0,1.014.493,8.564,8.564,0,0,1,2.309-4.063,10.74,10.74,0,0,1,7.282-3.1,41.207,41.207,0,0,1-.215-7.268,25.743,25.743,0,0,1-7-.553,10.494,10.494,0,0,1-2.379-.836c-.246,2.913-1.065,9.715-3.478,12.273l.012.075Z" transform="translate(-283.188 -245.256)" fill="#e45940"/>
      <path id="Path_10533" data-name="Path 10533" d="M321.381,260.838s10.089-2.483,11.565,0,1.007,6.365,1.589,8.111,2.969,3.667,3.2,4.365-1.746,1.92-2.039,2.444-1.551,6.111-3.336,7.275-10.9-2.56-13-7.041S318.646,262.159,321.381,260.838Z" transform="translate(-283.159 -255.247)" fill="#f88667"/>
      <path id="Path_10534" data-name="Path 10534" d="M342.089,272.141s-7.082,3.519-12.831-.708c0,0-10.947,1.913-12.29,2.459-1.114.452,1.812,16.036.541,23.869s-6.35,26.818-6.35,26.818,13.408,10.3,36.415,3.809c0,0,.749-26.618.5-34.014-.36-10.821-.435-17.219-.435-17.219A66.421,66.421,0,0,0,342.089,272.141Z" transform="translate(-293.334 -238.688)" fill="#00bad1"/>
      <path id="Path_10535" data-name="Path 10535" d="M325.338,312.388c-1-4.116-1.7-8.133-.983-12.386.783-4.609-2.522-10.683-3.14-15.372-.662-5.017-1.176-8.423-4.473-11.2.225,4.729,1.754,15.43.768,21.5-1.268,7.833-6.35,26.818-6.35,26.818s8.514,6.5,23.577,5.891C328.8,324.052,327,319.214,325.338,312.388Z" transform="translate(-293.334 -235.859)" fill="#00a1cc" opacity="0.65" style="mix-blend-mode: multiply;isolation: isolate"/>
      <path id="Path_10536" data-name="Path 10536" d="M328.854,263.481a9.883,9.883,0,0,1-1.285,5.094c-.65,1.164,2.179,4.466,1.285,5.867-.6.932-1.391.652-2.036-1.273a2.882,2.882,0,0,0-1.546-1.449c-2.386-1.164-3.126,2.522-.99,3.725,1.5.841.408,4.671.408,4.671-1.7,1.188-7.058-.585-6.283-4.519.5-2.5.708-3.459-.15-4.113-1.548-1.186-3.488-4.367-.737-6.865,3.792-3.442.536-4.739,4.78-5.587S329.892,260.9,328.854,263.481Z" transform="translate(-286.291 -256.465)" fill="#110239"/>
      <path id="Path_10537" data-name="Path 10537" d="M318.367,262.431c.278-.9,1.985-2.007,2.833-2.58a12.089,12.089,0,0,1,4.382-1.742,11.1,11.1,0,0,1,4.792.058c1.348.321,2.461.981,3.848,1.2a4.5,4.5,0,0,0,3.5-.512,8.891,8.891,0,0,1,.027,3.155,9.876,9.876,0,0,1-1.947,3.382c-2.157,2.92-7.727,4.336-11.526,2.568-1.836-.855-3.485-1.6-4.328-3.268A9.824,9.824,0,0,0,318.367,262.431Z" transform="translate(-283.133 -257.876)" fill="#110239"/>
      <path id="Path_10538" data-name="Path 10538" d="M319.97,271.928s9.3,9.828,7.862,22.048-7.77,23.985-17.623,23.765v1.691s8.712,1.355,13.5-7.942c7.278-14.111,6.681-20.113,5.283-26.142a30.965,30.965,0,0,0-7.683-13.915Z" transform="translate(-294.68 -238.688)" fill="#9c48d1"/>
      <path id="Path_10539" data-name="Path 10539" d="M329.494,300.209c-.353-1.456-.118-10.4-.28-11.99-1.075-10.5-2.935-14.6-2.935-14.6l-1.894-1.476s1.792,2.9,3.041,15.106c.464,4.526.739,12.606,1.959,18.446A36.771,36.771,0,0,1,329.494,300.209Z" transform="translate(-274.615 -237.685)" fill="#9c48d1"/>
      <rect id="Rectangle_518" data-name="Rectangle 518" width="21.56" height="14.707" transform="translate(31.841 89.325) rotate(-62.213)" fill="#ffd451"/>
      <path id="Path_10540" data-name="Path 10540" d="M328.86,296.405c-.113-.065-.229-.109-.343-.171a1.766,1.766,0,0,0,1.232-.063c1.534-.862-.807-1.686-1.688-2.072-.952-.418-3.391-.766-3.208-2.07a3.82,3.82,0,0,1,.273-1.024c.268-.464.519-.937.778-1.4-.843.06-1.713.169-2.558.169-2.051,0-4.473-.379-6.464-.3-1.471,1.029.483,2.456-1.435,3.167a36.238,36.238,0,0,1,2.865,2.927c1.031,1.1,2.111,1.307,3.3,2.152a9.18,9.18,0,0,0,1.427.954c.664.316,1.254.841,1.913,1.2.469.254,1.447.705,1.519.14.14-1.125-1.587-1.4-2.164-1.937,1.048.427,3.681,2.43,4.355,1.717.534-.565.012-1.191-.768-1.742l.015.007c.541.232,2.725.824,2.725-.164C330.637,297.224,329.461,296.748,328.86,296.405Z" transform="translate(-287.266 -213.171)" fill="#f88667"/>
      <path id="Path_10541" data-name="Path 10541" d="M335.208,313.092l-2.824,6.524s-29.147-9.456-27.78-17.108c1.2-6.717,18.159-29.229,21.852-30.036,4.966-1.087,6.956,10.746,4.1,13.616-6.014,6.048-14.6,14.558-13.889,15.927S335.208,313.092,335.208,313.092Z" transform="translate(-302.679 -237.317)" fill="#00bad1"/>
    </g>
  </g>
</svg>
