<svg xmlns="http://www.w3.org/2000/svg" xmlns:xlink="http://www.w3.org/1999/xlink" width="88.733" height="69.364" viewBox="0 0 88.733 69.364">
  <defs>
    <linearGradient id="linear-gradient" x1="0.5" y1="0.058" x2="0.5" y2="0.997" gradientUnits="objectBoundingBox">
      <stop offset="0" stop-color="#2cc3ec"/>
      <stop offset="0.207" stop-color="#38c4ec"/>
      <stop offset="0.697" stop-color="#50c6ee"/>
      <stop offset="1" stop-color="#59c7ef"/>
    </linearGradient>
    <linearGradient id="linear-gradient-3" y1="0.058" y2="0.997" xlink:href="#linear-gradient"/>
  </defs>
  <g id="illustration_corousel" transform="translate(-144.47 -133.844)">
    <g id="Group_1522" data-name="Group 1522" transform="translate(149.776 133.844)">
      <g id="Group_1517" data-name="Group 1517">
        <path id="Path_10128" data-name="Path 10128" d="M206.683,212.741H192.112l1.2-17.565h12.176Z" transform="translate(-159.62 -146.518)" fill="#272c66"/>
        <path id="Path_10129" data-name="Path 10129" d="M194.665,208.376c3.644-1.21,7.952-2.079,11.522-3.845l-.638-9.355H193.374l-.95,13.928C193.176,208.862,193.925,208.621,194.665,208.376Z" transform="translate(-159.685 -146.518)" fill="#060d42"/>
        <path id="Path_10130" data-name="Path 10130" d="M207.479,213.661a.954.954,0,0,0-.791-.422H189.88a.954.954,0,0,0-.791.422l-2.2,3.285a.952.952,0,0,0,.791,1.482h21.21a.952.952,0,0,0,.792-1.482Z" transform="translate(-158.507 -150.25)" fill="#272c66"/>
        <rect id="Rectangle_430" data-name="Rectangle 430" width="79.554" height="53.328" rx="5.169" fill="#272c66"/>
        <rect id="Rectangle_431" data-name="Rectangle 431" width="72.228" height="45.71" transform="translate(3.663 3.533)" fill="url(#linear-gradient)"/>
      </g>
      <g id="Group_1521" data-name="Group 1521" transform="translate(14.952 6.58)">
        <g id="Group_1519" data-name="Group 1519">
          <rect id="Rectangle_432" data-name="Rectangle 432" width="46.882" height="33.58" fill="#272c66"/>
          <rect id="Rectangle_433" data-name="Rectangle 433" width="42.728" height="23.363" transform="translate(2.077 7.181)" fill="#1e88f5"/>
          <path id="Path_10131" data-name="Path 10131" d="M212.924,171.876c-2.091.528-4.343,1.578-6.543,1.51a19.914,19.914,0,0,1-6.72-1.416c-3.322-1.265-5.205-1.71-8.576.121-3.742,2.032-7.111,3.523-11.324,2.138-2.543-.836-4.2-2.5-7.078-2.573h-.063v6.964H215.35v-6.631A4.383,4.383,0,0,0,212.924,171.876Z" transform="translate(-170.544 -148.074)" fill="#01d9e0"/>
          <g id="Group_1518" data-name="Group 1518" transform="translate(2.077 7.181)">
            <path id="Path_10132" data-name="Path 10132" d="M174.637,159.868c.355.747-.017,1.737.2,2.527.559,2.048,3.014.035,4.258.255,1.506.267,1.838,2.345,2.821,3.251,1.365,1.257,2.59-.632,3.65-1.329.815-.536,1.564-.361,2.464-.589a6.025,6.025,0,0,0,2.651-1.861c1.165-1.223,1.9-2.217,3.743-2.181.881.017,1.765.239,2.639.328s1.97-.075,2.716.458c.824.589.689,1.484.862,2.364.459,2.352,2.536,1.43,4.064.924,2.079-.69,2.851,2.028,4.742,1.841,1.19-.118,1.174-1.065,1.576-1.9.322-.67,1.153-1.329,1.888-.778.554.414.465,1.091,1.331,1.112a1.2,1.2,0,0,0,.29-.026,1.252,1.252,0,0,0,.817-.62v-2.287c-.029-.969,0-1.944,0-2.913v-7.251H172.621v8.122C172.621,159.085,174.374,159.315,174.637,159.868Z" transform="translate(-172.621 -151.189)" fill="#dbdbdb"/>
            <path id="Path_10133" data-name="Path 10133" d="M209.316,175.923a.378.378,0,0,0-.07.149C209.246,176.125,209.271,176.067,209.316,175.923Z" transform="translate(-180.189 -156.3)" fill="#dbdbdb"/>
          </g>
          <path id="Path_10134" data-name="Path 10134" d="M183.269,155.659c3,2.635,5.3,11.77,9.54,10.059,2.4-.967,10.768-10.066,13.369-10.318,2.161-.209,3.455.655,5.321,1.988a40.964,40.964,0,0,1,3.851,3.347v-11.89H172.621v8.822C177,154.342,178.885,151.807,183.269,155.659Z" transform="translate(-170.544 -143.524)" fill="#fff"/>
          <path id="Path_10135" data-name="Path 10135" d="M200.98,159.257a2.693,2.693,0,1,1-2.693-2.693A2.693,2.693,0,0,1,200.98,159.257Z" transform="translate(-175.291 -145.119)" fill="#ffd451"/>
          <path id="Path_10136" data-name="Path 10136" d="M185.821,154c1.727,0,3.482.091,5.207,0,.645-.034,2.094-.283,1.783-1.3-.283-.929-1.646-.407-1.9.269-.091-2.049-2.932-1.737-2.079-.017-.359-.362-.985-1.009-1.571-.8a.643.643,0,0,0-.157,1.159c-.3-.348-1.175-.758-1.607-.387A.591.591,0,0,0,185.821,154Z" transform="translate(-173.15 -144.081)" fill="url(#linear-gradient)"/>
          <path id="Path_10137" data-name="Path 10137" d="M213.9,153.854c1.445,0,2.915.076,4.359,0,.539-.029,1.752-.237,1.492-1.09-.236-.777-1.378-.34-1.594.225-.076-1.715-2.455-1.453-1.741-.014-.3-.3-.824-.845-1.315-.673a.539.539,0,0,0-.132.971c-.247-.292-.984-.635-1.345-.324A.5.5,0,0,0,213.9,153.854Z" transform="translate(-178.972 -144.134)" fill="url(#linear-gradient-3)"/>
          <path id="Path_10138" data-name="Path 10138" d="M207.091,156.315c1.142,0,2.3.06,3.445,0,.427-.023,1.385-.187,1.18-.862-.187-.614-1.089-.269-1.26.178-.06-1.355-1.94-1.148-1.376-.011-.237-.24-.652-.668-1.039-.532a.426.426,0,0,0-.1.767c-.194-.23-.777-.5-1.062-.255A.391.391,0,0,0,207.091,156.315Z" transform="translate(-177.586 -144.731)" fill="url(#linear-gradient-3)"/>
        </g>
        <g id="Group_1520" data-name="Group 1520" transform="translate(2.374 1.881)">
          <circle id="Ellipse_12" data-name="Ellipse 12" cx="0.981" cy="0.981" r="0.981" fill="#fff"/>
          <path id="Path_10139" data-name="Path 10139" d="M178.129,144.509a.981.981,0,1,0,.981.981A.98.98,0,0,0,178.129,144.509Z" transform="translate(-173.854 -144.509)" fill="#fff"/>
          <circle id="Ellipse_13" data-name="Ellipse 13" cx="0.981" cy="0.981" r="0.981" transform="translate(6.589)" fill="#fff"/>
          <circle id="Ellipse_14" data-name="Ellipse 14" cx="0.981" cy="0.981" r="0.981" transform="translate(40.47)" fill="#fff"/>
        </g>
      </g>
    </g>
    <g id="Group_1527" data-name="Group 1527" transform="translate(144.47 138.074)">
      <path id="Path_10140" data-name="Path 10140" d="M183.311,140.4a3.035,3.035,0,0,0-1.637.564,6.489,6.489,0,0,1-1.442.532,5.5,5.5,0,0,1,.106.851c0-.013.8-.14.889-.167.272-.086.483-.3.795-.216a2.275,2.275,0,0,1,.424.211c.164.088.564.488.763.411.3-.116-.188-.459-.243-.555-.081-.143-.048-.4.17-.345.3.079.816.438,1.14.288.408-.188-.861-.551-1.077-.689.344.175,1.474.52,1.566.322.177-.38-1.021-.58-1.351-.743a1.634,1.634,0,0,0,.944.2C184.783,140.921,183.555,140.505,183.311,140.4Z" transform="translate(-151.86 -139.425)" fill="#f88667"/>
      <g id="Group_1523" data-name="Group 1523" transform="translate(15.785 1.364)">
        <path id="Path_10141" data-name="Path 10141" d="M164.877,150.587a2.259,2.259,0,0,0,2.924-.127c1.344-1.208,3.85-3.446,4.666-4.072,1.133-.871,6.218-4.057,6.218-4.057l-.764-1.436s-6.337,2.8-7.233,3.508-6.1,3.83-6.307,5.091A1.158,1.158,0,0,0,164.877,150.587Z" transform="translate(-164.366 -140.895)" fill="#fe3da6"/>
        <path id="Path_10142" data-name="Path 10142" d="M164.877,150.587a2.259,2.259,0,0,0,2.924-.127c1.344-1.208,3.85-3.446,4.666-4.072,1.133-.871,6.218-4.057,6.218-4.057l-.764-1.436s-6.337,2.8-7.233,3.508-6.1,3.83-6.307,5.091A1.158,1.158,0,0,0,164.877,150.587Z" transform="translate(-164.366 -140.895)" fill="#ca0045" opacity="0.32" style="mix-blend-mode: multiply;isolation: isolate"/>
      </g>
      <g id="Group_1524" data-name="Group 1524" transform="translate(0 17.993)">
        <path id="Path_10143" data-name="Path 10143" d="M160.137,172.695l.359-1.076h16.079l-.343,1.076Z" transform="translate(-147.708 -163.873)" fill="#110239"/>
        <path id="Path_10144" data-name="Path 10144" d="M157.728,179.917l.363-1.088h16.165l-.346,1.088Z" transform="translate(-147.21 -165.363)" fill="#110239"/>
        <path id="Path_10145" data-name="Path 10145" d="M163.186,165.47l.359-1.076h16.079l-.343,1.076Z" transform="translate(-148.338 -162.38)" fill="#110239"/>
        <path id="Path_10146" data-name="Path 10146" d="M155.294,187.216l.366-1.1h16.252l-.35,1.1Z" transform="translate(-146.707 -166.869)" fill="#110239"/>
        <path id="Path_10147" data-name="Path 10147" d="M152.832,194.595l.37-1.111h16.339l-.354,1.111Z" transform="translate(-146.198 -168.391)" fill="#110239"/>
        <path id="Path_10148" data-name="Path 10148" d="M150.345,202.053l.375-1.123h16.428l-.358,1.123Z" transform="translate(-145.684 -169.929)" fill="#110239"/>
        <path id="Path_10149" data-name="Path 10149" d="M147.83,209.592l.379-1.135h16.517l-.362,1.135Z" transform="translate(-145.165 -171.485)" fill="#110239"/>
        <path id="Path_10150" data-name="Path 10150" d="M145.29,208.575h-.075a.744.744,0,0,1-.706-.979l15.1-45.233a.744.744,0,0,1,.706-.509h1.04L146,208.066A.744.744,0,0,1,145.29,208.575Z" transform="translate(-144.47 -161.855)" fill="#110239"/>
        <path id="Path_10151" data-name="Path 10151" d="M165.9,208.575h-.083a.744.744,0,0,1-.708-.97l14.438-45.233a.744.744,0,0,1,.708-.517h.016a.744.744,0,0,1,.709.969l-14.371,45.233A.745.745,0,0,1,165.9,208.575Z" transform="translate(-148.729 -161.855)" fill="#110239"/>
      </g>
      <path id="Path_10152" data-name="Path 10152" d="M165.908,145.271c.033.036.063.073.1.107a6.79,6.79,0,0,0,1.02.889c.228.151.581.249.776.408a2.193,2.193,0,0,0,.244.172,18.837,18.837,0,0,0-.351,2.964s-2.036-.144-2.778-.966A20.659,20.659,0,0,0,165.908,145.271Z" transform="translate(-148.695 -140.435)" fill="#f88667"/>
      <path id="Path_10153" data-name="Path 10153" d="M167.173,148.674a2.951,2.951,0,0,0-.927-1.534,4.557,4.557,0,0,0-.488-.362,10.357,10.357,0,0,0,.324-1.507c.033.036.063.073.1.107a6.791,6.791,0,0,0,1.02.889c.228.151.581.249.776.408a2.195,2.195,0,0,0,.244.172,18.839,18.839,0,0,0-.351,2.964,8.015,8.015,0,0,1-.81-.112A1.53,1.53,0,0,0,167.173,148.674Z" transform="translate(-148.869 -140.435)" fill="#e45940"/>
      <path id="Path_10154" data-name="Path 10154" d="M167.587,190.986s.056,2.03.373,2.307,4.356.4,4.7.029.144-.994-.724-1.234c-.929-.258-1.384-.006-1.967-.248s-.428-1.161-.428-1.161Z" transform="translate(-149.247 -149.818)" fill="#110239"/>
      <path id="Path_10155" data-name="Path 10155" d="M154.928,190.934s-.312,1.977,0,2.267,4.42.612,4.782.256.181-.988-.675-1.261c-.919-.294-1.364-.107-1.956-.324-.466-.17-.152-1.111-.152-1.111Z" transform="translate(-146.602 -149.835)" fill="#110239"/>
      <g id="Group_1525" data-name="Group 1525" transform="translate(8.148 17.412)">
        <path id="Path_10156" data-name="Path 10156" d="M157.9,173.7a60.48,60.48,0,0,1,.843-11.287,5.146,5.146,0,0,1,2.016.39c1.233.561,2.473,1.1,3.711,1.639A79.963,79.963,0,0,0,161,174.729c-.33,1.768-4.025,10.786-4.025,10.786l-2.236-.281C154.776,183.78,157.91,174.182,157.9,173.7Z" transform="translate(-154.74 -161.389)" fill="#ffd451"/>
        <path id="Path_10157" data-name="Path 10157" d="M163.477,163.684a20.446,20.446,0,0,0,2,.812,84.846,84.846,0,0,0-3.193,9.188c-.313-.946-1.83-3.235-2.413-5.741a13.37,13.37,0,0,1-.188-5.108l0-.02A9.612,9.612,0,0,1,163.477,163.684Z" transform="translate(-155.727 -161.473)" fill="#ffb900"/>
        <path id="Path_10158" data-name="Path 10158" d="M161.854,163.028c.871.294,2.456.716,3.653,1.143.834,2.107,3.3,7.08,3.425,9.329.142,2.481-.717,11.881-.717,11.881h-2.559s-.237-10.6-.6-11.276c-1.181-2.244-2.487-4.024-3.229-5.421a17.4,17.4,0,0,1-1.887-4.945c-.1-.484-.52-2.107.3-2.616C160.927,161.316,161.124,162.781,161.854,163.028Z" transform="translate(-155.775 -161.123)" fill="#ffd451"/>
      </g>
      <g id="Group_1526" data-name="Group 1526" transform="translate(11.252 8.051)">
        <path id="Path_10159" data-name="Path 10159" d="M166.213,162.243a10.394,10.394,0,0,1-4.265.665,8.045,8.045,0,0,1-3.295-.67s.98-7.638,2.11-10.046a5.049,5.049,0,0,1,2.987-2.87,6.34,6.34,0,0,0,2.658.831s-.029,4.693-.12,6.567S166.213,162.243,166.213,162.243Z" transform="translate(-158.653 -149.323)" fill="#fe3da6"/>
        <path id="Path_10160" data-name="Path 10160" d="M167.622,156.877q.011-.308.019-.655l0-.084c.006-.221.01-.45.015-.683l0-.117c.006-.26.01-.525.014-.789v-.012a1.532,1.532,0,0,1-.29-.02,6.635,6.635,0,0,1-2.044-.945c-.109-.064-.224-.117-.338-.173a8.908,8.908,0,0,0,.516,3.025,17.246,17.246,0,0,1,.368,7.131,11.337,11.337,0,0,0,1.631-.47s-.016-3.648.075-5.523c.008-.166.015-.359.022-.564Z" transform="translate(-159.961 -150.165)" fill="#ca0045" opacity="0.32" style="mix-blend-mode: multiply;isolation: isolate"/>
      </g>
      <path id="Path_10161" data-name="Path 10161" d="M179.923,165.561a1.629,1.629,0,0,1,.3-.023,1.22,1.22,0,0,0,.658-.082,2.55,2.55,0,0,1,1.1-.267c.186.033,1.3.292,1.026.749-.036.061-.173.157-.213.142-.113-.043-.434-.159-.434-.159a2.481,2.481,0,0,1,.3.126c.043.031.125.067.154.112a.281.281,0,0,1-.129.332c-.1.033-.17-.063-.25-.108l.006,0c.077.061.244.1.14.339-.116.263-.2.1-.307.069a.647.647,0,0,1-.12-.048c.041.024.2.1.23.127.1.092-.126.4-.332.375-.127-.016-.428-.2-.5-.178a1.555,1.555,0,0,1-.257.029,1.53,1.53,0,0,1-.752-.15c-.1-.048-.312-.129-.415-.184a4.586,4.586,0,0,1-.619-.421C179.682,166.017,179.958,165.934,179.923,165.561Z" transform="translate(-151.711 -144.549)" fill="#f88667"/>
      <path id="Path_10162" data-name="Path 10162" d="M176.467,164.425l.9-1.78a51.229,51.229,0,0,1-6.086-4.5c-1.63-1.643-3.391-4.988-4.633-5.2s-2.494.474-1.773,2.2,4.363,4.021,5.106,4.782A73.6,73.6,0,0,0,176.467,164.425Z" transform="translate(-148.643 -142.014)" fill="#fe3da6"/>
      <path id="Path_10163" data-name="Path 10163" d="M165.168,140.863s3.289-.377,3.517.176.277,2.11.49,2.439.6.722.455.934-.3.16-.394.4-.056,1.584-.491,1.784a3.656,3.656,0,0,1-3.452-1.18C164.491,144.153,163.579,140.979,165.168,140.863Z" transform="translate(-148.567 -139.498)" fill="#f88667"/>
      <path id="Path_10164" data-name="Path 10164" d="M164.154,141.259l2.181,1.009a4.9,4.9,0,0,0,.559,2.383s-.2.3-.4.13a.8.8,0,0,1-.386-.578c-.048-.317-.238-1.167-.809-.747s.032.917.323,1.041c0,0,.463,1.656-.417,1.538a4.921,4.921,0,0,1-1.51-2.5C162.994,141.543,163.61,140.886,164.154,141.259Z" transform="translate(-148.378 -139.586)" fill="#161415"/>
      <path id="Path_10165" data-name="Path 10165" d="M169.608,140.126s.78,1.121-1.032,1.872-4.42-1.226-4.42-1.226.067-.984,1.513-1.405a2.532,2.532,0,0,1,2.644.355C169.25,140.786,169.608,140.126,169.608,140.126Z" transform="translate(-148.538 -139.176)" fill="#161415"/>
    </g>
    <g id="Group_1530" data-name="Group 1530" transform="translate(177.239 164.801)">
      <g id="Group_1528" data-name="Group 1528">
        <path id="Path_10166" data-name="Path 10166" d="M230.638,191.15l1.537-13.188-44.277-5.1-2.124,18.286Z" transform="translate(-185.774 -172.864)" fill="#272c66"/>
        <path id="Path_10167" data-name="Path 10167" d="M229.169,192.975l.782-6.632L189.6,181.7l-1.317,11.278Z" transform="translate(-186.292 -174.69)" fill="#fe3da6"/>
      </g>
      <g id="Group_1529" data-name="Group 1529" transform="translate(4.049 2.136)">
        <path id="Path_10168" data-name="Path 10168" d="M191.916,175.562a.932.932,0,1,0,.82,1.032A.932.932,0,0,0,191.916,175.562Z" transform="translate(-190.877 -175.556)" fill="#fff"/>
        <path id="Path_10169" data-name="Path 10169" d="M195.838,176.013a.932.932,0,1,0,.819,1.033A.932.932,0,0,0,195.838,176.013Z" transform="translate(-191.688 -175.649)" fill="#fff"/>
        <path id="Path_10170" data-name="Path 10170" d="M199.76,176.465a.932.932,0,1,0,.82,1.032A.931.931,0,0,0,199.76,176.465Z" transform="translate(-192.498 -175.743)" fill="#fff"/>
      </g>
    </g>
    <g id="Group_1534" data-name="Group 1534" transform="translate(203.855 156.087)">
      <path id="Path_10171" data-name="Path 10171" d="M241.753,168.072c-.025.045-.046.092-.073.136a7.211,7.211,0,0,1-.83,1.188c-.2.216-.538.409-.7.624a2.474,2.474,0,0,1-.209.243,20.2,20.2,0,0,1,1.134,2.989s2.077-.678,2.636-1.725A22.1,22.1,0,0,1,241.753,168.072Z" transform="translate(-223.583 -163.16)" fill="#f88667"/>
      <path id="Path_10172" data-name="Path 10172" d="M241.5,171.891a3.168,3.168,0,0,1,.565-1.835,4.935,4.935,0,0,1,.413-.5,11.171,11.171,0,0,1-.727-1.482c-.025.045-.046.092-.073.136a7.211,7.211,0,0,1-.83,1.188c-.2.216-.538.409-.7.624a2.474,2.474,0,0,1-.209.243,20.2,20.2,0,0,1,1.134,2.989,8.617,8.617,0,0,0,.812-.327A1.632,1.632,0,0,1,241.5,171.891Z" transform="translate(-223.583 -163.16)" fill="#e45940"/>
      <path id="Path_10173" data-name="Path 10173" d="M241.112,217.384s.111,2.171-.2,2.494-4.616.792-5.018.425-.236-1.049.668-1.378c.971-.354,1.478-.122,2.079-.43s.359-1.274.359-1.274Z" transform="translate(-222.703 -173.316)" fill="#161415"/>
      <path id="Path_10174" data-name="Path 10174" d="M254.508,216.125s.619,2.052.336,2.4-4.6,1.294-5.035.969-.336-1.021.532-1.437c.931-.445,1.459-.263,2.028-.628s.235-1.3.235-1.3Z" transform="translate(-225.57 -173.09)" fill="#161415"/>
      <path id="Path_10175" data-name="Path 10175" d="M253.468,197.156a64.846,64.846,0,0,0-.684-12.1,5.523,5.523,0,0,0-2.166.378c-1.33.577-2.668,1.129-4,1.683a85.554,85.554,0,0,1,3.517,11.086c.319,1.9,1.726,12.3,1.726,12.3l2.452-.1C254.3,208.84,253.45,197.678,253.468,197.156Z" transform="translate(-224.962 -166.67)" fill="#36c"/>
      <path id="Path_10176" data-name="Path 10176" d="M248.75,186.35a22.13,22.13,0,0,1-2.152.831,89.864,89.864,0,0,1,3.519,11.063c.354-1.008,1.743-4.593,2.414-7.264a14.3,14.3,0,0,0,.3-5.464l0-.021A10.293,10.293,0,0,0,248.75,186.35Z" transform="translate(-224.959 -166.76)" fill="#2135ad"/>
      <path id="Path_10177" data-name="Path 10177" d="M249.074,186.06c-.938.3-2.643.719-3.933,1.154a95.764,95.764,0,0,0-3.922,11.061c-.649,3.273-1.734,12.975-1.734,12.975l2.766.364s2.778-13.035,3.176-13.757c1.308-2.38,2.741-4.26,3.562-5.741a18.256,18.256,0,0,0,2.38-6.592C250.637,185.718,249.86,185.811,249.074,186.06Z" transform="translate(-223.489 -166.767)" fill="#36c"/>
      <g id="Group_1531" data-name="Group 1531" transform="translate(0 9.761)">
        <path id="Path_10178" data-name="Path 10178" d="M220.862,174.343a3.039,3.039,0,0,1,1.6.666,6.486,6.486,0,0,0,1.406.622,5.55,5.55,0,0,0-.159.843c0-.013-.794-.19-.876-.222-.267-.1-.464-.328-.781-.266a2.256,2.256,0,0,0-.436.184c-.169.078-.594.452-.787.363-.291-.135.216-.446.276-.539.09-.137.075-.4-.148-.355-.305.06-.842.386-1.156.217-.394-.213.894-.5,1.119-.62-.354.154-1.5.427-1.584.224-.152-.39,1.056-.515,1.4-.658a1.621,1.621,0,0,1-.954.141C219.361,174.769,220.612,174.431,220.862,174.343Z" transform="translate(-219.322 -174.214)" fill="#f88667"/>
        <path id="Path_10179" data-name="Path 10179" d="M241.147,175.844a2.417,2.417,0,0,0-2.673-1.635c-1.916.269-5.48.758-6.579.827-1.528.1-7.949-.114-7.949-.114l-.179,1.733s7.3,1.3,8.521,1.208,7.7.244,8.647-.751A1.239,1.239,0,0,0,241.147,175.844Z" transform="translate(-220.241 -174.184)" fill="#9c48d1"/>
        <path id="Path_10180" data-name="Path 10180" d="M241.147,175.844a2.417,2.417,0,0,0-2.673-1.635c-1.916.269-5.48.758-6.579.827-1.528.1-7.949-.114-7.949-.114l-.179,1.733s7.3,1.3,8.521,1.208,7.7.244,8.647-.751A1.239,1.239,0,0,0,241.147,175.844Z" transform="translate(-220.241 -174.184)" fill="#6d008d" opacity="0.55"/>
      </g>
      <g id="Group_1532" data-name="Group 1532" transform="translate(17.354 8.027)">
        <path id="Path_10181" data-name="Path 10181" d="M244.534,186.06a19.213,19.213,0,0,0,4.384-.927c1.588-.562,2.943-1.493,3.153-2.185,0,0-2.682-6.534-4.481-8.743A5.407,5.407,0,0,0,243.743,172a6.791,6.791,0,0,1-2.546,1.553s1.247,4.867,1.828,6.791S244.534,186.06,244.534,186.06Z" transform="translate(-241.197 -171.999)" fill="#9c48d1"/>
        <path id="Path_10182" data-name="Path 10182" d="M245.135,179.493a9.55,9.55,0,0,0-.248-3.277c-.1.088-.21.173-.306.267a7.081,7.081,0,0,1-1.879,1.511,1.617,1.617,0,0,1-.294.1c.315,1.18.642,2.375.868,3.123.58,1.922,1.509,5.717,1.509,5.717s.628-.047,1.534-.2C245.283,184.633,245.146,181.927,245.135,179.493Z" transform="translate(-241.447 -172.87)" fill="#6d008d"/>
      </g>
      <path id="Path_10183" data-name="Path 10183" d="M241.248,164.759s-1.394-1.643-2.572-1.253-1.9.789-1.933,1.293a13.709,13.709,0,0,1-.155,2.4c-.183.551-.682,1.344-.612,1.553s.775.1.836.181.839,1.531,1.131,1.627a5.141,5.141,0,0,0,2.535-2.187C240.654,167.6,241.672,165.947,241.248,164.759Z" transform="translate(-222.762 -162.204)" fill="#f88667"/>
      <path id="Path_10184" data-name="Path 10184" d="M238.705,165.225c-.235.323-.926.812-2.347.564s-1.632-3.292,1.082-3.775,2.843.5,3.387.58a1.914,1.914,0,0,1,1.359.748,2.652,2.652,0,0,1-.026,3.365c-.973,1.445-1.861,1.472-1.861,1.472-.136-.319-.251-.885,0-1.128a1.9,1.9,0,0,0,.383-.343.535.535,0,0,0-.721-.74c-.285.12-.294.676-.42.91-.135.249-.264.235-.374.221-.214-.026-.5-.585-.239-1.315C239.095,165.313,238.94,164.9,238.705,165.225Z" transform="translate(-222.63 -161.881)" fill="#161415"/>
      <g id="Group_1533" data-name="Group 1533" transform="translate(6.977 9.431)">
        <path id="Path_10185" data-name="Path 10185" d="M231.329,190.657a1.939,1.939,0,0,1-.893.478,1.176,1.176,0,0,0-.457.125,2.508,2.508,0,0,1-.509.192.97.97,0,0,0-.482.239c-.144.174.14.224.333.229.211.006.758-.363.925-.215s-.527.555-.666.635c-.328.186-.574.046-.917.056-.2.006-.29.069-.149.252.1.137.307.139.464.148a2.046,2.046,0,0,0,.982-.176,2.38,2.38,0,0,1-.9.259c-.178.017-.947-.045-.946.236,0,.565,1.7.178,1.949-.022a2.784,2.784,0,0,1-.888.318c-.181.044-.614.132-.371.363.358.341,1.188-.245,1.6-.44a3.235,3.235,0,0,1-.762.471c-.348.193-.086.382.305.247a4.5,4.5,0,0,0,.539-.262,3.035,3.035,0,0,0,1.322-1.449c.132-.245.631-.555.577-.789C232.288,191.1,231.662,190.87,231.329,190.657Z" transform="translate(-228.117 -177.258)" fill="#f88667"/>
        <path id="Path_10186" data-name="Path 10186" d="M232.678,188.868l-1.356-1.445s3.813-4.524,5.185-6.7,2.477-6.225,3.774-6.753,2.818-.085,2.453,1.964-3.764,5.411-4.386,6.415A81.215,81.215,0,0,1,232.678,188.868Z" transform="translate(-228.779 -173.768)" fill="#9c48d1"/>
      </g>
    </g>
  </g>
</svg>
