<svg xmlns="http://www.w3.org/2000/svg" width="199.781" height="320.645" viewBox="0 0 199.781 320.645">
  <g id="illustrator_lupa_pass" transform="translate(18.219 8.245)">
    <g id="Group_249" data-name="Group 249" transform="translate(-18.219 -8.245)">
      <g id="Group_248" data-name="Group 248">
        <path id="Path_670" data-name="Path 670" d="M163.5,425.961s2.684,12.306.962,15.714c-1.821,3.6-37.495,4.647-39.658,2.225s1.441-6.631,3.332-7.606,26.331-10.332,26.331-10.332Z" transform="translate(-82.083 -133.52)" fill="#390237"/>
        <path id="Path_671" data-name="Path 671" d="M122.044,425.273h-9.709s-2,11.114-1.145,13.6,13,17.919,19.268,17.919c3.416,0,7.64.015,8.3-3.117.554-2.606-1.952-8.108-4.022-11.056C130.171,436.136,122.044,425.273,122.044,425.273Z" transform="translate(5.895 -136.152)" fill="#390237"/>
        <g id="Group_247" data-name="Group 247">
          <path id="Path_672" data-name="Path 672" d="M127.3,394.922s22.154,6.5,35.951-.381c0,0,8.353,7.21,9.676,21.934.408,4.536,9.3,132.368,9.3,132.368H163.344s-6.359-66.44-7.785-74.823-10.2-47.8-10.2-47.8-7.621,35.061-9.728,47.811c-.324,1.955-4.2,74.118-4.2,74.118L113.17,548.1s2.5-78.625,2.5-74.408C115.671,475.411,117.8,418.493,127.3,394.922Z" transform="translate(-47.805 -253.733)" fill="#d1487f"/>
          <path id="Path_673" data-name="Path 673" d="M143.456,374.716l-13.215,30.167s3.867,4.474,5.157,3.479,21.112-25.472,23.046-26.741S143.456,374.716,143.456,374.716Z" transform="translate(-104.28 -329.584)" fill="#5f33cc"/>
          <path id="Path_674" data-name="Path 674" d="M143.625,385.57c-3.055-1.747-6.537-2.123-9.78-3.369-1.262-.483-2.426-1.013-3.6-1.477l2.633-6.008s16.922,5.637,14.989,6.906a42.126,42.126,0,0,0-3.9,4.189C143.845,385.734,143.752,385.642,143.625,385.57Z" transform="translate(-93.698 -329.584)" fill="#5e21ad"/>
          <path id="Path_675" data-name="Path 675" d="M188.1,406.2s-.056,8.672-5.209,10.661c0,0-26.434-11.264-31.751-12.345s-24.656-1.245-24.656-1.245l19.5-35.8s9.348,19.227,17.889,25.525S188.1,406.2,188.1,406.2Z" transform="translate(-116.156 -357.307)" fill="#e8ff51"/>
          <path id="Path_676" data-name="Path 676" d="M135.443,388.454c-2.093-.854-4.27-1.737-6.42-2.592,3.238-3.75,4.918-8.976,5.561-12.268,2,1.182,4.083,2.321,6.091,3.378A25.253,25.253,0,0,1,135.443,388.454Z" transform="translate(-80.64 -333.873)" fill="#390237"/>
          <path id="Path_677" data-name="Path 677" d="M137.513,384.735c-5.5,13.653-3.562,27.455,4.345,30.829s18.776-4.966,24.28-18.624,3.562-27.455-4.346-30.829S143.017,371.078,137.513,384.735Z" transform="translate(-134.382 -365.364)" fill="#f6fe8d"/>
          <path id="Path_678" data-name="Path 678" d="M137.828,382.535c-4.683,11.616-3.027,23.358,3.7,26.225s15.974-4.223,20.657-15.844,3.027-23.353-3.7-26.22S142.511,370.918,137.828,382.535Z" transform="translate(-133.632 -362.71)" fill="#390237"/>
          <path id="Path_679" data-name="Path 679" d="M137.735,384.8c.629-.391.451-2.818.324-3.451-.2-.989-.863-2.278-.2-3.224,1.178-1.67,2.834,2.823,3.05,3.479a4.821,4.821,0,0,1,.3,3,11.827,11.827,0,0,1-2.529,3.928c.122.444.258.912.422,1.4a28.7,28.7,0,0,0-3.186,1.66c-1.276.753-1.206,1.694-2.4,2.534l-1.192-2.818C132.831,390.67,136.688,385.453,137.735,384.8Z" transform="translate(-96.823 -317.947)" fill="#f8bf67"/>
          <path id="Path_680" data-name="Path 680" d="M136.766,377.774c1.14-1.269,2.919-.782,4.3.256,1.009.758,3.914,3.175,3.135,4.927-.652,1.457-4.392-1.766-4.392-1.766,1.375,1.216,3.942,2.191,3.3,3.412-.723,1.361-3.984-.579-4.7-1.119.737.193,4.383,2.471,2.924,3.658-1,.816-3.684-.893-4.486-1.472,1.075.333,2.539,1.318,2.257,2.852-.469.835-2.1.28-3-.1-1.366-.57-2.651-.791-2.759-2.538a7.032,7.032,0,0,1-.047-.946,9.7,9.7,0,0,1,1.2-3.8A16.443,16.443,0,0,1,136.766,377.774Z" transform="translate(-104.32 -320.789)" fill="#f8bf67"/>
          <path id="Path_681" data-name="Path 681" d="M142.177,375.687s-6.316,25.322-2.7,27.31c0,0-12.9,27.513-18.616,26.224s-2.7-24.772-2.7-24.772a9.829,9.829,0,0,0,4.411-2.6c1.089-1,5.148-16.621,5.148-16.621Z" transform="translate(-27.425 -325.869)" fill="#f8bf67"/>
          <path id="Path_682" data-name="Path 682" d="M130.761,417.673c2.027-2.785,3.646-6.843,3.2-10.381-.676-5.28-5.739-7.78-10.333-9.729a92.2,92.2,0,0,1,3.477-12.335l14.463-9.541s-6.316,25.322-2.7,27.31c0,0-12.9,27.513-18.616,26.224-1.483-.338-2.37-2.181-2.881-4.71C122.821,425.535,127.57,422.051,130.761,417.673Z" transform="translate(-26.812 -325.869)" fill="#e49c40"/>
          <path id="Path_683" data-name="Path 683" d="M102.183,401.136a15.662,15.662,0,0,0,1.53-3.344c.338-1,.577-2.022.915-3.026a8.063,8.063,0,0,0,.657-2.963,9.084,9.084,0,0,0-.352-1.805c-.2-.772-.474-1.52-.624-2.3-.136-.695-.08-1.37-.207-2.061a12.4,12.4,0,0,0-1.164-3.8,14.01,14.01,0,0,0-1.7-2.4,8.828,8.828,0,0,0-1-1.105,2.725,2.725,0,0,1-.92-1.163,1.118,1.118,0,0,1,.788-1.5,3.979,3.979,0,0,1,3.745,1.26c.995,1.409,1.464,3.137,2.576,4.493,3.388,4.155,6.57-.734,10.526-2.5a23.173,23.173,0,0,0,3.82-2.534c.709-.545,3.745-3.513,5.181-2.741,1.056.57-1.009,3.065-2.013,3.673-.394.241-3.782,3.069-4.223,3.209,1-.179,3.595-1.94,5.683-3.624,1.5-1.206,2.956-2.394,3.773-1.7,2.515,2.119-7.358,6.974-8.128,7.418.821.072,8.55-5.56,9.282-3.489.4,1.139-1.2,2.268-2.511,3-1.647.917-4.406,1.578-5.031,2.075,1.164.405,6.284-3.176,6.284-.989,0,1.428-3.177,2.5-4.374,2.876-1.229.386-4.852,2.915-6,3.48-3.825,1.872-5.4,1.655-6.908,4.01-.962,1.5-2.67,9.425-4.059,12.441Z" transform="translate(69.393 -334.142)" fill="#f8bf67"/>
          <path id="Path_684" data-name="Path 684" d="M131.548,380.058c3.407,10.2,10.695,28.251,13.1,26.982,4.51-2.374,14.224-10.545,21.479-15.54a50.54,50.54,0,0,1,8.438-5l-5.049,24.632s-23.942,18.7-28.959,15.834c-3.947-2.254-13.656-30.689-17.081-42.474C123.477,384.493,131.492,380.1,131.548,380.058Z" transform="translate(-88.506 -309.145)" fill="#390237"/>
          <path id="Path_685" data-name="Path 685" d="M138.728,400.167c2.7-3.6,12.994-13.972,15.782-16.182l-.807,11.679S129.568,414.326,124.228,412C128.827,408.955,135.448,404.544,138.728,400.167Z" transform="translate(-71.974 -294.12)" fill="#450013" opacity="0.32" style="mix-blend-mode: multiply;isolation: isolate"/>
          <path id="Path_686" data-name="Path 686" d="M126.84,383.547l9.08-1.375s2.694,3.263,6.176,3.118,9.7-4.459,9.7-4.459a112.474,112.474,0,0,1,13.567,6.94s-1.9,16.326-.779,18.479l2.985,56.614s-20.615,2.519-31.047,1.9C118.449,463.678,114.8,462.1,114.8,462.1s1.924-47.1,6.152-61.4C122.616,395.057,126.84,383.547,126.84,383.547Z" transform="translate(-40.779 -306.192)" fill="#390237"/>
          <path id="Path_687" data-name="Path 687" d="M104.008,399.85s35.533,10.458,38.734,9.6,13.881-32.078,13.881-32.078l8.921,3.726s-9.526,45.031-15.655,47.136-42.68-8.75-42.68-8.75S100.526,410.309,104.008,399.85Z" transform="translate(16.595 -319.426)" fill="#390237"/>
          <path id="Path_688" data-name="Path 688" d="M135.808,375.825c1.347-4.271,5.4-6.747,9.052-5.531a6.276,6.276,0,0,1,3.041,2.268,38.219,38.219,0,0,1-1.694,5.328,36.308,36.308,0,0,1-4.547,8.151,5.75,5.75,0,0,1-1.675-.28C136.329,384.546,134.461,380.1,135.808,375.825Z" transform="translate(-117.656 -347.685)" fill="#776cfe"/>
          <path id="Path_689" data-name="Path 689" d="M144.894,377.01s-4.416-5.125-10.8-4.908-10.127,1.163-12.084,6.351-5.444,18.363-5.444,18.363.333,12.046,10.925,8.764,21.985-10.183,20.578-15.071S144.894,377.01,144.894,377.01Z" transform="translate(-29.682 -339.61)" fill="#f8bf67"/>
          <path id="Path_690" data-name="Path 690" d="M143.208,374.91s-5.678,1.762-5.622,4.454,1.248,7.712-.887,13.267c0,0,1.516,1.371,2.736.261s.54-6.013,3.679-5.256,2.4,6.52-1.079,7.036c0,0-2.97,3.629-6.42,3.383s-7.752-4.228-9.475-4.58-7.555-.637-8.775.053c0,0-4.805,13.7.709,16.3s18.991-1.351,26.129-8.967c0,0,7.893.275,7.1-10.868-.591-8.407,4.669-10.279.333-16.273C148.548,369.447,143.208,374.91,143.208,374.91Z" transform="translate(-29.521 -339.647)" fill="#390237"/>
          <path id="Path_691" data-name="Path 691" d="M150.679,378.411s-1.384-6.226-10.563-7.606-10.16,4-13.618,4.291-4.167-1.8-2.853-2.558c0,0-2.182-2.3-6.068,2.746s1.281,13,8.5,13.942C134.738,390.351,144.076,388.338,150.679,378.411Z" transform="translate(-30.695 -345.411)" fill="#390237"/>
          <path id="Path_692" data-name="Path 692" d="M121.027,377.564a13.454,13.454,0,0,0,6.8,1.139s-.727,1.906-4.5,1.573C121.172,380.083,121.027,377.564,121.027,377.564Z" transform="translate(-30.269 -318.687)" fill="#fff"/>
        </g>
      </g>
    </g>
  </g>
</svg>
