<svg xmlns="http://www.w3.org/2000/svg" xmlns:xlink="http://www.w3.org/1999/xlink" width="67.529" height="77.253" viewBox="0 0 67.529 77.253">
  <defs>
    <linearGradient id="linear-gradient" x1="0.5" y1="0.024" x2="0.5" y2="0.995" gradientUnits="objectBoundingBox">
      <stop offset="0" stop-color="#36c"/>
      <stop offset="0.059" stop-color="#3868cd"/>
      <stop offset="0.436" stop-color="#5577d8"/>
      <stop offset="0.762" stop-color="#6680df"/>
      <stop offset="1" stop-color="#6d84e2"/>
    </linearGradient>
  </defs>
  <g id="illustration_corousel_02" transform="translate(-449.227 -351.518)">
    <g id="Group_1549" data-name="Group 1549" transform="translate(449.227 351.518)">
      <g id="Group_1537" data-name="Group 1537">
        <g id="Group_1536" data-name="Group 1536">
          <rect id="Rectangle_434" data-name="Rectangle 434" width="46.087" height="76.527" rx="2.033" fill="#272c66"/>
          <rect id="Rectangle_435" data-name="Rectangle 435" width="39.503" height="67.049" transform="translate(3.531 3.165)" fill="url(#linear-gradient)"/>
          <path id="Path_10187" data-name="Path 10187" d="M473.644,430.437a1.243,1.243,0,1,1,1.243-1.243A1.242,1.242,0,0,1,473.644,430.437Z" transform="translate(-450.6 -356.048)" fill="#fff"/>
        </g>
        <rect id="Rectangle_436" data-name="Rectangle 436" width="1.937" height="1.567" rx="0.486" transform="translate(5.053 5.422)" fill="#fff"/>
        <rect id="Rectangle_437" data-name="Rectangle 437" width="1.937" height="1.567" rx="0.486" transform="translate(10.338 5.422)" fill="#fff"/>
        <rect id="Rectangle_438" data-name="Rectangle 438" width="1.937" height="1.567" rx="0.486" transform="translate(35.863 5.422)" fill="#fff"/>
        <rect id="Rectangle_439" data-name="Rectangle 439" width="1.937" height="1.567" rx="0.486" transform="translate(29.941 5.422)" fill="#fff"/>
        <rect id="Rectangle_440" data-name="Rectangle 440" width="1.937" height="1.567" rx="0.486" transform="translate(39.574 5.422)" fill="#fff"/>
      </g>
      <rect id="Rectangle_441" data-name="Rectangle 441" width="33.252" height="7.757" transform="translate(6.418 50.105)" fill="#fff"/>
      <g id="Group_1539" data-name="Group 1539" transform="translate(7.735 51.86)">
        <g id="Group_1538" data-name="Group 1538" transform="translate(5.497 0.1)">
          <rect id="Rectangle_442" data-name="Rectangle 442" width="23.589" height="1.449" fill="#d3e9ff"/>
          <rect id="Rectangle_443" data-name="Rectangle 443" width="18.534" height="1.449" transform="translate(0 2.649)" fill="#d3e9ff"/>
        </g>
        <path id="Path_10188" data-name="Path 10188" d="M461.746,408.795a2.149,2.149,0,1,1-2.149-2.15A2.149,2.149,0,0,1,461.746,408.795Z" transform="translate(-457.449 -406.645)" fill="#d3e9ff"/>
      </g>
      <rect id="Rectangle_444" data-name="Rectangle 444" width="33.252" height="7.757" transform="translate(6.418 38.829)" fill="#fff"/>
      <g id="Group_1541" data-name="Group 1541" transform="translate(7.735 40.583)">
        <g id="Group_1540" data-name="Group 1540" transform="translate(5.497 0.1)">
          <rect id="Rectangle_445" data-name="Rectangle 445" width="23.589" height="1.449" fill="#d3e9ff"/>
          <rect id="Rectangle_446" data-name="Rectangle 446" width="18.534" height="1.449" transform="translate(0 2.649)" fill="#d3e9ff"/>
        </g>
        <path id="Path_10189" data-name="Path 10189" d="M461.746,396.807a2.149,2.149,0,1,1-2.149-2.149A2.149,2.149,0,0,1,461.746,396.807Z" transform="translate(-457.449 -394.658)" fill="#d3e9ff"/>
      </g>
      <rect id="Rectangle_447" data-name="Rectangle 447" width="33.252" height="7.757" transform="translate(6.418 27.552)" fill="#fff"/>
      <g id="Group_1543" data-name="Group 1543" transform="translate(7.735 29.306)">
        <g id="Group_1542" data-name="Group 1542" transform="translate(5.497 0.1)">
          <rect id="Rectangle_448" data-name="Rectangle 448" width="23.589" height="1.449" fill="#d3e9ff"/>
          <rect id="Rectangle_449" data-name="Rectangle 449" width="18.534" height="1.449" transform="translate(0 2.649)" fill="#d3e9ff"/>
        </g>
        <path id="Path_10190" data-name="Path 10190" d="M461.746,384.82a2.149,2.149,0,1,1-2.149-2.149A2.148,2.148,0,0,1,461.746,384.82Z" transform="translate(-457.449 -382.671)" fill="#d3e9ff"/>
      </g>
      <g id="Group_1544" data-name="Group 1544" transform="translate(6.117 14.511)">
        <path id="Path_10191" data-name="Path 10191" d="M487.456,375.031h-29.7A2.032,2.032,0,0,1,455.729,373v-4.029a2.032,2.032,0,0,1,2.029-2.029h29.7a2.032,2.032,0,0,1,2.029,2.029V373A2.032,2.032,0,0,1,487.456,375.031Zm-29.7-7.487a1.43,1.43,0,0,0-1.429,1.429V373a1.43,1.43,0,0,0,1.429,1.429h29.7A1.43,1.43,0,0,0,488.885,373v-4.029a1.43,1.43,0,0,0-1.429-1.429Z" transform="translate(-455.729 -366.944)" fill="#ffd451"/>
      </g>
      <path id="Path_10192" data-name="Path 10192" d="M460.752,368.834l.562,1.731h1.82l-1.472,1.07.562,1.731-1.472-1.07-1.472,1.07.562-1.731-1.472-1.07h1.82Z" transform="translate(-449.769 -352.545)" fill="#ffd451"/>
      <path id="Path_10193" data-name="Path 10193" d="M467.074,368.834l.562,1.731h1.82l-1.472,1.07.562,1.731-1.472-1.07-1.472,1.07.562-1.731-1.472-1.07h1.82Z" transform="translate(-450.143 -352.545)" fill="#ffd451"/>
      <path id="Path_10194" data-name="Path 10194" d="M473.4,368.834l.562,1.731h1.82l-1.472,1.07.562,1.731L473.4,372.3l-1.472,1.07.562-1.731-1.472-1.07h1.82Z" transform="translate(-450.518 -352.545)" fill="#ffd451"/>
      <g id="Group_1545" data-name="Group 1545" transform="translate(26.157 16.224)">
        <path id="Path_10195" data-name="Path 10195" d="M480.917,373.331l-1.484-1.077-1.485,1.077.568-1.744-1.484-1.077h1.833l.567-1.746L480,370.51h1.835l-1.484,1.077Zm-3.148-2.582,1.027.747L478.4,372.7l1.028-.747,1.027.747-.392-1.208,1.028-.747h-1.271l-.392-1.208-.393,1.208Z" transform="translate(-477.032 -368.764)" fill="#ffd451"/>
      </g>
      <g id="Group_1546" data-name="Group 1546" transform="translate(32.371 16.224)">
        <path id="Path_10196" data-name="Path 10196" d="M487.522,373.331l-1.484-1.077-1.484,1.077.567-1.744-1.484-1.077h1.834l.566-1.746.566,1.746h1.835l-1.485,1.077Zm-3.148-2.582,1.027.747-.392,1.208,1.028-.747,1.027.747-.392-1.208,1.028-.747H486.43l-.392-1.208-.393,1.208Z" transform="translate(-483.637 -368.764)" fill="#ffd451"/>
      </g>
      <g id="Group_1548" data-name="Group 1548" transform="translate(14.655 60.562)">
        <rect id="Rectangle_450" data-name="Rectangle 450" width="16.968" height="5.933" rx="2.967" fill="#fe3da6"/>
        <g id="Group_1547" data-name="Group 1547" transform="translate(6.878 1.784)">
          <path id="Path_10197" data-name="Path 10197" d="M472.861,420.383a.964.964,0,0,1-.35-.056.509.509,0,0,1-.231-.167.7.7,0,0,1-.124-.259,1.385,1.385,0,0,1-.04-.353v-.93a1.368,1.368,0,0,1,.04-.352.68.68,0,0,1,.124-.257.523.523,0,0,1,.231-.163.966.966,0,0,1,.35-.055.708.708,0,0,1,.575.208.947.947,0,0,1,.175.618v.93a.96.96,0,0,1-.175.621A.7.7,0,0,1,472.861,420.383Zm-.1-.39a.226.226,0,0,0,.1.02.23.23,0,0,0,.1-.02.151.151,0,0,0,.065-.048.193.193,0,0,0,.038-.076.45.45,0,0,0,.018-.09c0-.029,0-.063,0-.1v-1.182c0-.04,0-.074,0-.1a.433.433,0,0,0-.018-.088.191.191,0,0,0-.038-.074.164.164,0,0,0-.065-.046.245.245,0,0,0-.1-.018.241.241,0,0,0-.1.018.161.161,0,0,0-.064.046.2.2,0,0,0-.036.075.384.384,0,0,0-.017.089c0,.028,0,.062,0,.1v1.182c0,.04,0,.074,0,.1a.391.391,0,0,0,.017.09.205.205,0,0,0,.036.076A.148.148,0,0,0,472.762,419.992Z" transform="translate(-472.116 -417.792)" fill="#fff"/>
          <path id="Path_10198" data-name="Path 10198" d="M474.062,420.351v-2.526h.513v1.059l.458-1.059h.5l-.473,1.136.509,1.389h-.519l-.4-1.156-.072.121v1.035Z" transform="translate(-472.231 -417.794)" fill="#fff"/>
        </g>
      </g>
    </g>
    <g id="Group_1554" data-name="Group 1554" transform="translate(478.607 361.772)">
      <path id="Path_10199" data-name="Path 10199" d="M485.484,372.988s-.258,1.448-.241,1.4a4.071,4.071,0,0,0-.975-.2,6.87,6.87,0,0,1-1.071.157,1.787,1.787,0,0,1-.678-.181c-.12-.04-.341-.2-.193-.286.129-.072.327.084.426.1a1.859,1.859,0,0,0,.415-.05s-.131-.029-.382-.071a4.331,4.331,0,0,1-.856-.188c-.1-.062-.116-.238.11-.245a3.084,3.084,0,0,1,.586.064c.046,0,.491.062.491.062s-.385-.058-.524-.087c-.156-.033-.579-.1-.851-.157s-.267-.335-.044-.367a5.579,5.579,0,0,1,.866.161c.093.009.509.1.509.1s-.5-.107-.585-.14-.63-.114-.721-.251a.146.146,0,0,1,.136-.229,2.7,2.7,0,0,1,.677.076,5.994,5.994,0,0,0,1.071.189c.144-.025.3-.074.261-.255l.146-.506s.183.043.359.436A1.405,1.405,0,0,0,485.484,372.988Z" transform="translate(-480.522 -362.991)" fill="#f88667"/>
      <g id="Group_1550" data-name="Group 1550" transform="translate(4.39 9.913)">
        <path id="Path_10200" data-name="Path 10200" d="M501.826,375.049a2.323,2.323,0,0,0-2.445-1.754c-1.854.123-5.3.341-6.358.33-1.47-.016-7.6-.669-7.6-.669l-.294,1.646s6.9,1.758,8.075,1.757,7.36.775,8.333-.111A1.193,1.193,0,0,0,501.826,375.049Z" transform="translate(-485.125 -372.956)" fill="#fe3da6"/>
        <path id="Path_10201" data-name="Path 10201" d="M501.826,375.049a2.323,2.323,0,0,0-2.445-1.754c-1.854.123-5.3.341-6.358.33-1.47-.016-7.6-.669-7.6-.669l-.294,1.646s6.9,1.758,8.075,1.757,7.36.775,8.333-.111A1.193,1.193,0,0,0,501.826,375.049Z" transform="translate(-485.125 -372.956)" fill="#ca0045" opacity="0.32" style="mix-blend-mode: multiply;isolation: isolate"/>
      </g>
      <g id="Group_1551" data-name="Group 1551" transform="translate(4.949 18.965)">
        <path id="Path_10202" data-name="Path 10202" d="M506.361,392.15l-.369-1.106H489.461l.352,1.106Z" transform="translate(-485.941 -383.08)" fill="#110239"/>
        <path id="Path_10203" data-name="Path 10203" d="M508.444,398.414l-.373-1.118H491.452l.356,1.118Z" transform="translate(-486.059 -383.45)" fill="#110239"/>
        <path id="Path_10204" data-name="Path 10204" d="M503.718,385.885l-.369-1.106H486.818l.352,1.106Z" transform="translate(-485.785 -382.708)" fill="#110239"/>
        <path id="Path_10205" data-name="Path 10205" d="M510.549,404.745l-.377-1.13H493.464l.36,1.13Z" transform="translate(-486.178 -383.825)" fill="#110239"/>
        <path id="Path_10206" data-name="Path 10206" d="M512.677,411.144,512.3,410H495.5l.364,1.142Z" transform="translate(-486.299 -384.203)" fill="#110239"/>
        <path id="Path_10207" data-name="Path 10207" d="M514.828,417.612l-.385-1.155H497.554l.368,1.155Z" transform="translate(-486.421 -384.586)" fill="#110239"/>
        <path id="Path_10208" data-name="Path 10208" d="M517,424.151l-.389-1.167H499.632l.372,1.167Z" transform="translate(-486.544 -384.973)" fill="#110239"/>
        <path id="Path_10209" data-name="Path 10209" d="M519.073,430.612h.077a.765.765,0,0,0,.725-1.008l-15.525-46.5a.765.765,0,0,0-.725-.522h-1.07l15.791,47.51A.766.766,0,0,0,519.073,430.612Z" transform="translate(-486.717 -382.578)" fill="#110239"/>
        <path id="Path_10210" data-name="Path 10210" d="M501.26,430.612h.085a.765.765,0,0,0,.728-1l-14.843-46.5a.766.766,0,0,0-.729-.532h-.016a.765.765,0,0,0-.729,1l14.775,46.5A.766.766,0,0,0,501.26,430.612Z" transform="translate(-485.719 -382.578)" fill="#110239"/>
      </g>
      <path id="Path_10211" data-name="Path 10211" d="M502.061,368.2c-.034.037-.065.074-.1.11a6.965,6.965,0,0,1-1.049.913c-.234.155-.6.256-.8.42a2.378,2.378,0,0,1-.251.177,19.333,19.333,0,0,1,.36,3.048s2.093-.149,2.857-.994A21.213,21.213,0,0,1,502.061,368.2Z" transform="translate(-481.608 -362.761)" fill="#f88667"/>
      <path id="Path_10212" data-name="Path 10212" d="M500.938,371.7a3.027,3.027,0,0,1,.953-1.578,4.764,4.764,0,0,1,.5-.373,10.569,10.569,0,0,1-.332-1.549c-.034.037-.065.074-.1.11a6.965,6.965,0,0,1-1.049.913c-.234.155-.6.256-.8.42a2.378,2.378,0,0,1-.251.177,19.333,19.333,0,0,1,.36,3.048,8.232,8.232,0,0,0,.833-.116A1.57,1.57,0,0,1,500.938,371.7Z" transform="translate(-481.608 -362.761)" fill="#e45940"/>
      <path id="Path_10213" data-name="Path 10213" d="M500.628,407.885s-.057,2.087-.384,2.373-4.479.409-4.835.029-.148-1.023.743-1.27c.956-.265,1.423,0,2.023-.254s.44-1.193.44-1.193Z" transform="translate(-481.335 -365.094)" fill="#110239"/>
      <path id="Path_10214" data-name="Path 10214" d="M511.591,407.819s.32,2.033,0,2.33-4.545.63-4.916.263-.186-1.016.694-1.3c.945-.3,1.4-.11,2.011-.332.479-.175.156-1.143.156-1.143Z" transform="translate(-482.002 -365.098)" fill="#110239"/>
      <g id="Group_1552" data-name="Group 1552" transform="translate(16.228 18.368)">
        <path id="Path_10215" data-name="Path 10215" d="M508.223,394.662a62.234,62.234,0,0,0-.866-11.6,5.286,5.286,0,0,0-2.072.4c-1.268.578-2.543,1.13-3.816,1.685a82.1,82.1,0,0,1,3.57,10.582c.339,1.817,4.137,11.088,4.137,11.088l2.3-.289C511.438,405.03,508.216,395.162,508.223,394.662Z" transform="translate(-497.932 -382.009)" fill="#00bad1"/>
        <path id="Path_10216" data-name="Path 10216" d="M503.507,384.3a21.085,21.085,0,0,1-2.051.834,87.053,87.053,0,0,1,3.282,9.446c.323-.974,1.882-3.326,2.481-5.9a13.745,13.745,0,0,0,.194-5.251l0-.021A9.888,9.888,0,0,0,503.507,384.3Z" transform="translate(-497.931 -382.03)" fill="#00a1cc" opacity="0.65" style="mix-blend-mode: multiply;isolation: isolate"/>
        <path id="Path_10217" data-name="Path 10217" d="M505,383.9c-.9.3-2.526.736-3.757,1.175-.857,2.167-3.389,7.279-3.521,9.592-.145,2.551.738,12.215.738,12.215h2.631s.244-10.893.612-11.593c1.214-2.308,2.557-4.137,3.32-5.574a17.925,17.925,0,0,0,1.94-5.084c.1-.5.534-2.167-.31-2.69C505.956,382.141,505.753,383.648,505,383.9Z" transform="translate(-497.709 -381.943)" fill="#00bad1"/>
      </g>
      <g id="Group_1553" data-name="Group 1553" transform="translate(18.606 8.743)">
        <path id="Path_10218" data-name="Path 10218" d="M500.438,385a10.688,10.688,0,0,0,4.385.683,8.265,8.265,0,0,0,3.388-.688s-1.008-7.852-2.17-10.328a5.19,5.19,0,0,0-3.071-2.95,6.516,6.516,0,0,1-2.733.854s.03,4.825.124,6.752S500.438,385,500.438,385Z" transform="translate(-500.237 -371.712)" fill="#fe3da6"/>
        <path id="Path_10219" data-name="Path 10219" d="M500.336,378.823q-.01-.318-.019-.675l0-.087c-.006-.227-.01-.462-.015-.7l0-.12c-.006-.267-.01-.539-.015-.811v-.012a1.641,1.641,0,0,0,.3-.021,6.825,6.825,0,0,0,2.1-.972c.111-.066.23-.12.347-.178a9.158,9.158,0,0,1-.531,3.111,17.73,17.73,0,0,0-.379,7.33,11.746,11.746,0,0,1-1.677-.483s.017-3.751-.076-5.677c-.008-.171-.016-.37-.023-.58Z" transform="translate(-500.24 -371.921)" fill="#ca0045" opacity="0.32" style="mix-blend-mode: multiply;isolation: isolate"/>
      </g>
      <path id="Path_10220" data-name="Path 10220" d="M502.391,365.118S501,363.588,499.881,364s-1.793.819-1.813,1.3a13.127,13.127,0,0,1-.069,2.31c-.156.535-.61,1.312-.535,1.511s.748.074.809.146.855,1.441,1.139,1.524a4.936,4.936,0,0,0,2.359-2.183C501.915,367.86,502.837,366.243,502.391,365.118Z" transform="translate(-481.466 -362.508)" fill="#f88667"/>
      <path id="Path_10221" data-name="Path 10221" d="M500.058,365.895a2.88,2.88,0,0,0-.311.2c-.158.08-.326.146-.485.225a2.169,2.169,0,0,1-1.014.3c-.543-.015-.531-.55-.861-.825-.16-.133-.394-.063-.57-.212a1.24,1.24,0,0,1-.34-.594c-.149-.523.344-.723.714-.943.432-.256.381-.523.5-.944.291-1.039,1.436-.061,2.027-.32.3-.132.57-.436.927-.354a2.259,2.259,0,0,1,.79.468c.257.188.409.035.706.056a1.685,1.685,0,0,1,.68.256,1.772,1.772,0,0,1,.833,1.246c.039.425-.219.74-.109,1.167a2.616,2.616,0,0,1,.16,1.1c-.1.516-.615.734-.879,1.143a1.58,1.58,0,0,1-1.153.774c-.141-.3-.271-.841-.041-1.082a1.824,1.824,0,0,0,.356-.342.513.513,0,0,0-.716-.686c-.344.158-.212,1.189-.651,1.147-.335-.032-.125-.636-.094-.829.041-.256-.071-.838-.339-.963A.166.166,0,0,0,500.058,365.895Z" transform="translate(-481.406 -362.418)" fill="#110239"/>
      <path id="Path_10222" data-name="Path 10222" d="M489.975,385.852a1.668,1.668,0,0,0-.309-.024,1.256,1.256,0,0,1-.675-.084,2.625,2.625,0,0,0-1.136-.275c-.191.034-1.335.3-1.054.77.038.062.178.161.217.146.118-.044.447-.164.447-.164a2.5,2.5,0,0,0-.3.13c-.044.031-.13.069-.159.115a.288.288,0,0,0,.133.341c.1.034.175-.065.257-.111l-.006,0c-.079.063-.251.106-.145.348.119.27.2.1.316.071a.694.694,0,0,0,.123-.048c-.042.024-.2.1-.236.13-.107.1.13.413.341.386.131-.016.439-.2.513-.183a1.709,1.709,0,0,0,1.037-.124c.107-.048.321-.133.427-.189a4.645,4.645,0,0,0,.636-.434C490.222,386.322,489.94,386.235,489.975,385.852Z" transform="translate(-480.832 -363.784)" fill="#f88667"/>
      <path id="Path_10223" data-name="Path 10223" d="M490.543,386.659l-.924-1.83a52.746,52.746,0,0,0,6.257-4.623c1.675-1.69,3.486-5.128,4.763-5.344s2.564.487,1.823,2.265-4.485,4.135-5.249,4.916A75.7,75.7,0,0,1,490.543,386.659Z" transform="translate(-481.001 -363.154)" fill="#fe3da6"/>
      <path id="Path_10224" data-name="Path 10224" d="M484.777,370.61l-.883,1.591,1.24,1.332-1.786-.348-.883,1.591-.221-1.806-1.786-.348,1.65-.768-.221-1.806,1.24,1.332Z" transform="translate(-480.458 -362.87)" fill="#ffd451"/>
    </g>
  </g>
</svg>
