<svg xmlns="http://www.w3.org/2000/svg" xmlns:xlink="http://www.w3.org/1999/xlink" width="73.522" height="85.4" viewBox="0 0 73.522 85.4">
  <defs>
    <linearGradient id="linear-gradient" x1="0.5" y1="0.009" x2="0.5" y2="0.993" gradientUnits="objectBoundingBox">
      <stop offset="0" stop-color="#36c"/>
      <stop offset="0.059" stop-color="#3868cd"/>
      <stop offset="0.436" stop-color="#5577d8"/>
      <stop offset="0.762" stop-color="#6680df"/>
      <stop offset="1" stop-color="#6d84e2"/>
    </linearGradient>
  </defs>
  <g id="illustration_corousel_03" transform="translate(-40.648 -141.775)">
    <g id="Group_1559" data-name="Group 1559" transform="translate(40.648 141.775)">
      <g id="Group_1556" data-name="Group 1556">
        <rect id="Rectangle_451" data-name="Rectangle 451" width="50.121" height="83.226" rx="1.941" fill="#272c66"/>
        <rect id="Rectangle_452" data-name="Rectangle 452" width="42.961" height="72.918" transform="translate(3.84 3.442)" fill="url(#linear-gradient)"/>
        <path id="Path_10225" data-name="Path 10225" d="M64.127,217.459a1.351,1.351,0,1,1,1.351-1.351A1.351,1.351,0,0,1,64.127,217.459Z" transform="translate(-39.066 -136.558)" fill="#fff"/>
      </g>
      <g id="Group_1558" data-name="Group 1558" transform="translate(7.041 16.398)">
        <path id="Path_10226" data-name="Path 10226" d="M61.779,158.617v10.473a3.089,3.089,0,0,0-1.442.018c-1.319.325-2.194,1.374-1.955,2.344s1.5,1.495,2.819,1.171a2.372,2.372,0,0,0,1.992-2.019h0v-9.161l5.935-1.04v6.887a3.089,3.089,0,0,0-1.442.018c-1.319.325-2.194,1.374-1.957,2.344s1.5,1.495,2.819,1.171a2.373,2.373,0,0,0,1.993-2.02h0V157.079Z" transform="translate(-46.424 -157.079)" fill="#fff"/>
        <rect id="Rectangle_453" data-name="Rectangle 453" width="22.855" height="3.152" transform="translate(6.592 19.801)" fill="#fff"/>
        <rect id="Rectangle_454" data-name="Rectangle 454" width="14.365" height="3.152" transform="translate(10.837 25.81)" fill="#fff"/>
        <g id="Group_1557" data-name="Group 1557" transform="translate(0 32.977)">
          <rect id="Rectangle_455" data-name="Rectangle 455" width="36.039" height="1.182" rx="0.546" transform="translate(0 1.798)" fill="#5ee0f4"/>
          <path id="Path_10227" data-name="Path 10227" d="M74.137,191.942l-1.6-3.206a.608.608,0,0,1,.543-.88h3.206a.607.607,0,0,1,.543.88l-1.6,3.206A.607.607,0,0,1,74.137,191.942Z" transform="translate(-45.414 -187.856)" fill="#5ee0f4"/>
        </g>
        <rect id="Rectangle_456" data-name="Rectangle 456" width="9.145" height="5.812" rx="2.685" transform="translate(0 40.456)" fill="#5ee0f4"/>
        <path id="Path_10228" data-name="Path 10228" d="M49.019,197.784l2.044-1.69v3.38Z" transform="translate(-47.09 -154.29)" fill="#fff"/>
        <path id="Path_10229" data-name="Path 10229" d="M51.287,197.784l2.044-1.69v3.38Z" transform="translate(-46.928 -154.29)" fill="#fff"/>
        <rect id="Rectangle_457" data-name="Rectangle 457" width="9.145" height="5.812" rx="2.685" transform="translate(12.117 40.456)" fill="#5ee0f4"/>
        <path id="Path_10230" data-name="Path 10230" d="M64.173,197.539l-2.044,1.69v-3.38Z" transform="translate(-46.153 -154.308)" fill="#fff"/>
        <rect id="Rectangle_458" data-name="Rectangle 458" width="9.145" height="5.812" rx="2.685" transform="translate(24.234 40.456)" fill="#5ee0f4"/>
        <path id="Path_10231" data-name="Path 10231" d="M76.708,197.539l-2.044,1.69v-3.38Z" transform="translate(-45.257 -154.308)" fill="#fff"/>
        <path id="Path_10232" data-name="Path 10232" d="M74.44,197.539l-2.044,1.69v-3.38Z" transform="translate(-45.419 -154.308)" fill="#fff"/>
      </g>
      <rect id="Rectangle_459" data-name="Rectangle 459" width="2.107" height="1.704" rx="0.464" transform="translate(5.236 5.485)" fill="#fff"/>
      <rect id="Rectangle_460" data-name="Rectangle 460" width="2.107" height="1.704" rx="0.464" transform="translate(10.984 5.485)" fill="#fff"/>
      <rect id="Rectangle_461" data-name="Rectangle 461" width="2.107" height="1.704" rx="0.464" transform="translate(38.743 5.485)" fill="#fff"/>
      <rect id="Rectangle_462" data-name="Rectangle 462" width="2.107" height="1.704" rx="0.464" transform="translate(32.303 5.485)" fill="#fff"/>
      <rect id="Rectangle_463" data-name="Rectangle 463" width="2.107" height="1.704" rx="0.464" transform="translate(42.779 5.485)" fill="#fff"/>
    </g>
    <g id="Group_1561" data-name="Group 1561" transform="translate(91.534 156.941)">
      <path id="Path_10233" data-name="Path 10233" d="M104.384,214.455H102a13.4,13.4,0,0,0-.283,3.248c.21.595,3.192,4.277,4.732,4.277.839,0,1.875,0,2.037-.744a4.686,4.686,0,0,0-.988-2.639C106.379,217.048,104.384,214.455,104.384,214.455Z" transform="translate(-87.172 -151.746)" fill="#110239"/>
      <path id="Path_10234" data-name="Path 10234" d="M94.657,214.455H97.04a13.4,13.4,0,0,1,.282,3.248c-.21.595-3.192,4.277-4.731,4.277-.84,0-1.875,0-2.038-.744a4.688,4.688,0,0,1,.989-2.639C92.661,217.048,94.657,214.455,94.657,214.455Z" transform="translate(-87.968 -151.746)" fill="#110239"/>
      <path id="Path_10235" data-name="Path 10235" d="M93.585,183.678s5.44,1.55,8.827-.091c0,0,2.073.131,2.4,3.645.047.51,3.116,8.72,3.138,13.607.012,2.677-1.006,17.541-1.006,17.541L102,218.338s1.068-15.308.718-17.309-3.942-9.412-3.942-9.412-1.285,6.584-1.8,9.628c-.079.467.585,17.238.585,17.238l-4.921.2s-1.111-16.69-1.085-17.7C91.635,197.662,90.774,189.451,93.585,183.678Z" transform="translate(-87.9 -153.952)" fill="#9c48d1"/>
      <path id="Path_10236" data-name="Path 10236" d="M99,155.93h-.029c-5.112.018-3.847,4.711-3.847,4.711h.439c-.485-4.146,3.06-4.1,3.407-4.08H99c.347-.015,3.892-.065,3.407,4.08h.439S104.109,155.948,99,155.93Z" transform="translate(-87.65 -155.929)" fill="#110239"/>
      <path id="Path_10237" data-name="Path 10237" d="M104.6,168.779l-1.807,3.423s1.918,9.443,5.568,8.089S104.6,168.779,104.6,168.779Z" transform="translate(-87.092 -155.01)" fill="#110239"/>
      <path id="Path_10238" data-name="Path 10238" d="M100.18,163.78H97.544s.254,3.623-1.19,4.408c0,0,.2,2.56,2.508,2.56s2.508-2.56,2.508-2.56C99.926,167.4,100.18,163.78,100.18,163.78Z" transform="translate(-87.552 -155.368)" fill="#e45940"/>
      <path id="Path_10239" data-name="Path 10239" d="M102.108,158.329c-.6-.912-3.183-.393-3.183-.393s-2.584-.519-3.183.393.055,2.306,0,3.371.6,5.278,3.183,5.278,3.238-4.214,3.183-5.278S102.707,159.242,102.108,158.329Z" transform="translate(-87.614 -155.796)" fill="#f88667"/>
      <path id="Path_10240" data-name="Path 10240" d="M98.888,156.783s-.751,4.214,3.049,5.43a4.284,4.284,0,0,0-.135-4.029A2.8,2.8,0,0,0,98.888,156.783Z" transform="translate(-87.375 -155.871)" fill="#110239"/>
      <path id="Path_10241" data-name="Path 10241" d="M101.071,157.2s-.8,5.851-5.277,4.838c0,0-1.394-3.1.633-4.671S101.071,157.2,101.071,157.2Z" transform="translate(-87.626 -155.88)" fill="#110239"/>
      <path id="Path_10242" data-name="Path 10242" d="M94.738,161.092s-.865-.167-.9.509.042,1.925.5,2.084a1.271,1.271,0,0,0,.86-.018Z" transform="translate(-87.733 -155.561)" fill="#110239"/>
      <path id="Path_10243" data-name="Path 10243" d="M95.448,159.656s-.918.093-.955.77.345,3.7.8,3.862a1.839,1.839,0,0,0,1.014-.023Z" transform="translate(-87.685 -155.663)" fill="#110239"/>
      <path id="Path_10244" data-name="Path 10244" d="M102.815,161.1s.867-.158.9.52-.063,1.924-.525,2.079a1.28,1.28,0,0,1-.861-.029Z" transform="translate(-87.125 -155.561)" fill="#110239"/>
      <path id="Path_10245" data-name="Path 10245" d="M102.151,159.651s.918.1.947.781-.385,3.7-.846,3.853a1.834,1.834,0,0,1-1.014-.033Z" transform="translate(-87.203 -155.663)" fill="#110239"/>
      <path id="Path_10246" data-name="Path 10246" d="M103.462,164.319a2.709,2.709,0,0,1,.344.713,5.055,5.055,0,0,1,.166,1.092c.025.344.044,1,.1,1.638a3.337,3.337,0,0,1,1.554-.565,7.839,7.839,0,0,1-.168-1.765,6.24,6.24,0,0,0,.413-2.243,3.986,3.986,0,0,0-.587-.961c-.349-.411-.882-1.114-1.156-1.439s-.9-1.189-1.176-.895c-.228.244.236.974.8,1.635a5.739,5.739,0,0,1,.821,1.248s-.8-1.067-.909-1.242-.634-1.047-.819-.933c-.311.191-.092.659.488,1.42a12.135,12.135,0,0,1,.812,1.167s-.689-.853-.881-1.119-.351-.574-.527-.58c-.353-.011-.171.73.428,1.479.27.338.414.506.493.595a6.128,6.128,0,0,1-.655-.724c-.175-.268-.338-.546-.481-.5s-.2.375.287,1.054S103.3,164.047,103.462,164.319Z" transform="translate(-87.119 -155.65)" fill="#f88667"/>
      <g id="Group_1560" data-name="Group 1560" transform="translate(3.854 12.152)">
        <path id="Path_10247" data-name="Path 10247" d="M101.049,167.27s-.621,1.381-1.735,1.381-1.989-1.314-1.989-1.314a16.742,16.742,0,0,1-3.882.968c-.515.038-.837.152-1.112.149,0,0-.2,16.807-.6,19.628a28.223,28.223,0,0,0,6.8,1.018,18.162,18.162,0,0,0,7.026-.779,39.431,39.431,0,0,1-.642-7.79,62.548,62.548,0,0,1,1.436-11.721S101.461,167.931,101.049,167.27Z" transform="translate(-91.736 -167.27)" fill="#110239"/>
      </g>
      <path id="Path_10248" data-name="Path 10248" d="M103.267,166.01l2.613-.743s5.757,12.755,3.123,14.9-4.08-4.364-4.439-6.058S103.267,166.01,103.267,166.01Z" transform="translate(-87.058 -155.262)" fill="#110239"/>
      <path id="Path_10249" data-name="Path 10249" d="M92.39,172.3c0-.133.027-.265.036-.4a3.6,3.6,0,0,1-.724-.978c-1.948,3.078-4.758,8.274-2.219,9.216,2.074.77,3.587-1.945,4.507-4.433A4.463,4.463,0,0,1,92.39,172.3Z" transform="translate(-88.116 -154.857)" fill="#110239"/>
      <path id="Path_10250" data-name="Path 10250" d="M94.175,164.319a2.715,2.715,0,0,0-.343.713,5.033,5.033,0,0,0-.167,1.092c-.025.344-.044,1-.1,1.638a3.332,3.332,0,0,0-1.553-.565,7.839,7.839,0,0,0,.168-1.765,6.194,6.194,0,0,1-.413-2.243,3.942,3.942,0,0,1,.586-.961c.349-.411.882-1.114,1.156-1.439s.9-1.189,1.176-.895c.228.244-.236.974-.8,1.635a5.772,5.772,0,0,0-.822,1.248s.8-1.067.909-1.242.635-1.047.819-.933c.312.191.093.659-.488,1.42a11.95,11.95,0,0,0-.811,1.167s.688-.853.88-1.119.353-.574.528-.58c.351-.011.17.73-.429,1.479-.27.338-.413.506-.493.595a6.232,6.232,0,0,0,.656-.724c.175-.268.338-.546.48-.5s.2.375-.287,1.054S94.34,164.047,94.175,164.319Z" transform="translate(-87.882 -155.65)" fill="#f88667"/>
      <path id="Path_10251" data-name="Path 10251" d="M94.566,166.01l-2.612-.743s-5.758,12.755-3.124,14.9,4.081-4.364,4.44-6.058S94.566,166.01,94.566,166.01Z" transform="translate(-88.139 -155.262)" fill="#110239"/>
    </g>
  </g>
</svg>
