<svg xmlns="http://www.w3.org/2000/svg" xmlns:xlink="http://www.w3.org/1999/xlink" width="57.928" height="44.555" viewBox="0 0 57.928 44.555">
  <defs>
    <linearGradient id="linear-gradient" x1="0.5" y1="-0.366" x2="0.5" y2="1.149" gradientUnits="objectBoundingBox">
      <stop offset="0" stop-color="#2cc3ec"/>
      <stop offset="0.207" stop-color="#38c4ec"/>
      <stop offset="0.697" stop-color="#50c6ee"/>
      <stop offset="1" stop-color="#59c7ef"/>
    </linearGradient>
  </defs>
  <g id="illustration_data_hasil" transform="translate(-48.214 -27.996)">
    <g id="Group_340" data-name="Group 340" transform="translate(48.214 27.996)">
      <g id="Group_332" data-name="Group 332">
        <path id="Path_1402" data-name="Path 1402" d="M93.48,93.253H84.812L85.525,82.8h7.243Z" transform="translate(-65.483 -53.857)" fill="#272c66"/>
        <path id="Path_1403" data-name="Path 1403" d="M86.424,90.656a53.1,53.1,0,0,0,6.855-2.287L92.9,82.8H85.657l-.565,8.285C85.539,90.945,85.985,90.8,86.424,90.656Z" transform="translate(-65.615 -53.857)" fill="#060d42"/>
        <path id="Path_1404" data-name="Path 1404" d="M92.345,99.2a.568.568,0,0,0-.471-.251h-10a.567.567,0,0,0-.471.251L80.1,101.151a.567.567,0,0,0,.471.882H93.184a.567.567,0,0,0,.471-.882Z" transform="translate(-63.212 -61.474)" fill="#272c66"/>
        <rect id="Rectangle_145" data-name="Rectangle 145" width="47.326" height="31.724" rx="4.619" fill="#272c66"/>
        <rect id="Rectangle_146" data-name="Rectangle 146" width="42.968" height="27.192" transform="translate(2.179 2.102)" fill="url(#linear-gradient)"/>
      </g>
      <g id="Group_334" data-name="Group 334" transform="translate(8.634 5.31)">
        <g id="Group_333" data-name="Group 333">
          <path id="Path_1405" data-name="Path 1405" d="M96.219,57.366H64.563V38.049H96.219Zm-31.065-.591H95.628V38.639H65.153Z" transform="translate(-64.563 -38.049)" fill="#fff"/>
        </g>
        <rect id="Rectangle_147" data-name="Rectangle 147" width="2.944" height="12.6" transform="translate(24.108 4.861)" fill="#fe3da6"/>
        <rect id="Rectangle_148" data-name="Rectangle 148" width="2.944" height="5.794" transform="translate(18.653 11.668)" fill="#fff"/>
        <rect id="Rectangle_149" data-name="Rectangle 149" width="2.944" height="7.196" transform="translate(13.198 10.266)" fill="#9c48d1"/>
        <rect id="Rectangle_150" data-name="Rectangle 150" width="2.944" height="11.271" transform="translate(7.743 6.191)" fill="#fff"/>
        <rect id="Rectangle_151" data-name="Rectangle 151" width="2.944" height="8.797" transform="translate(2.288 8.665)" fill="#fff"/>
      </g>
      <g id="Group_338" data-name="Group 338" transform="translate(4.935 4.098)">
        <g id="Group_335" data-name="Group 335" transform="translate(0.573 1.251)">
          <path id="Path_1406" data-name="Path 1406" d="M94.03,59.378H58.643V38.125h.3V59.082H94.03Z" transform="translate(-58.643 -38.125)" fill="#fff"/>
        </g>
        <g id="Group_336" data-name="Group 336">
          <path id="Path_1407" data-name="Path 1407" d="M58.279,35.756l-.721,1.763.721-.418.72.418Z" transform="translate(-57.559 -35.756)" fill="#fff"/>
        </g>
        <g id="Group_337" data-name="Group 337" transform="translate(35.514 21.514)">
          <path id="Path_1408" data-name="Path 1408" d="M126.317,77.333a5.338,5.338,0,0,0-1.515.843l.305-.843-.305-.843A5.364,5.364,0,0,0,126.317,77.333Z" transform="translate(-124.802 -76.49)" fill="#fff"/>
        </g>
      </g>
      <g id="Group_339" data-name="Group 339" transform="translate(12.297 6.8)">
        <path id="Path_1409" data-name="Path 1409" d="M88.025,48.8l-5.591-1.11L77.047,42.54l-5.353,4.729-.2-.222,5.557-4.908,5.522,5.276L87.9,48.472l5.4-7.6.241.171Z" transform="translate(-71.498 -40.87)" fill="#272c66"/>
      </g>
      <path id="Path_1410" data-name="Path 1410" d="M71.754,52.183a.664.664,0,1,1-.664-.664A.664.664,0,0,1,71.754,52.183Z" transform="translate(-58.695 -39.095)" fill="#fe3da6"/>
      <path id="Path_1411" data-name="Path 1411" d="M82.012,43.059a.665.665,0,1,1-.665-.664A.665.665,0,0,1,82.012,43.059Z" transform="translate(-63.535 -34.79)" fill="#fe3da6"/>
      <path id="Path_1412" data-name="Path 1412" d="M92.411,52.917a.664.664,0,1,1-.664-.664A.665.665,0,0,1,92.411,52.917Z" transform="translate(-68.442 -39.442)" fill="#fe3da6"/>
      <path id="Path_1413" data-name="Path 1413" d="M102.739,54.7a.665.665,0,1,1-.665-.665A.665.665,0,0,1,102.739,54.7Z" transform="translate(-73.315 -40.282)" fill="#fe3da6"/>
      <path id="Path_1414" data-name="Path 1414" d="M113.067,40.682a.665.665,0,1,1-.664-.664A.665.665,0,0,1,113.067,40.682Z" transform="translate(-78.189 -33.668)" fill="#fe3da6"/>
    </g>
    <g id="Group_342" data-name="Group 342" transform="translate(87.124 31.647)">
      <path id="Path_1415" data-name="Path 1415" d="M125.252,48.236a4.575,4.575,0,0,1-.388-1c0-.225.113-.467.121-.775s.42-1.019.332-1.221-.34-.154-.582.331-.162.784-.356.647a5.348,5.348,0,0,1-.824-.987c-.154-.25-.639-.744-.768-.663s-.166.21.693,1.422c0,0-.973-1.459-1.26-1.2-.2.184.75,1.252.888,1.421,0,0-.88-1.1-1.142-.843-.246.245.964,1.164.964,1.164s-.9-.715-1.025-.5.4.675.922.966.651.368.782.562.6,1,.6,1A1.031,1.031,0,0,0,125.252,48.236Z" transform="translate(-121.888 -39.466)" fill="#f88667"/>
      <path id="Path_1416" data-name="Path 1416" d="M145.632,41.672l-1.84.28s-.105,3.436-1.56,3.711c0,0-.518,5.627,1.406,5.158s2.959-5.352,2.959-5.352S144.9,45,145.632,41.672Z" transform="translate(-131.457 -38.101)" fill="#e45940"/>
      <path id="Path_1417" data-name="Path 1417" d="M145.735,36.394s-1.985-.818-2.773-.321-.724,2.208-.841,2.992a2.932,2.932,0,0,0,.666,2.54c.321.117,2.8-.555,3.2-2.35S146.2,36.7,145.735,36.394Z" transform="translate(-131.417 -35.383)" fill="#f88667"/>
      <path id="Path_1418" data-name="Path 1418" d="M139.56,105.771a5.509,5.509,0,0,1,.107,1.919c-.21.4-4.762.668-5.013.4s.011-.765.229-.875,2.98-1.43,2.98-1.43Z" transform="translate(-127.863 -68.346)" fill="#110239"/>
      <path id="Path_1419" data-name="Path 1419" d="M151.074,105.771h-1.459a7.6,7.6,0,0,0,0,1.5c.1.275,1.476,1.977,2.187,1.977.388,0,.867,0,.942-.344a2.169,2.169,0,0,0-.457-1.22C151.769,106.969,151.074,105.771,151.074,105.771Z" transform="translate(-134.95 -68.346)" fill="#110239"/>
      <path id="Path_1420" data-name="Path 1420" d="M144.592,39.041a3.826,3.826,0,0,1-1.171.427c-.459.033-.743-.512-1.39-.372s-.73.164-.73.164-.343,2.322.533,2.256a5.662,5.662,0,0,0,2.89-1.609,1.151,1.151,0,0,0,.9-.536,4.972,4.972,0,0,0,.514-3.208,1.6,1.6,0,0,0-2.234-.931,1.892,1.892,0,0,0-1.259-.317c-.825.044-1,.482-1.346.745s-.693.262-.81.036c0,0-.248.416.2,1.131s.959.606,1.653.445a5.061,5.061,0,0,0,1.555-.847,4.713,4.713,0,0,0,.321,1.956s.131.059.182,0,.015-.8.416-.635S144.95,38.76,144.592,39.041Z" transform="translate(-130.632 -34.91)" fill="#110239"/>
      <path id="Path_1421" data-name="Path 1421" d="M143.181,44.038a2.2,2.2,0,0,0,1.094.051s-.323.425-.679.365A.465.465,0,0,1,143.181,44.038Z" transform="translate(-131.935 -39.217)" fill="#fff"/>
      <path id="Path_1422" data-name="Path 1422" d="M146.344,47.882l-1.7.921-1.324-.794a12.064,12.064,0,0,0-.48,4.32c.194,2.3.566,3.945,2.118,1.811S147.085,48.626,146.344,47.882Z" transform="translate(-131.757 -41.031)" fill="#fff"/>
      <path id="Path_1423" data-name="Path 1423" d="M146.344,47.882l-1.7.921-1.324-.794a12.064,12.064,0,0,0-.48,4.32c.194,2.3.566,3.945,2.118,1.811S147.085,48.626,146.344,47.882Z" transform="translate(-131.757 -41.031)" fill="#cfd7db"/>
      <path id="Path_1424" data-name="Path 1424" d="M144.7,49.855s-.914,4.95-.837,5.045c.05-.063.607,1.343.928,0,.25-1.045.28-4.931.321-4.978,0,0,.477-.514.756-.767.183-.166.36-.336.531-.512a2.747,2.747,0,0,0,.126-.249l-.074.177a4.112,4.112,0,0,1,.36-.577.693.693,0,0,0-.088-.111l-1.7.921-1.324-.794s-.04.119-.1.327c.139.194.265.39.373.577C144.111,49.154,144.7,49.855,144.7,49.855Z" transform="translate(-132.132 -41.031)" fill="#110239"/>
      <path id="Path_1425" data-name="Path 1425" d="M138.87,65.238l5.223-.1s.794,1.3.972,5.061c.121,2.573.227,3.286.483,6.687.174,2.309.993,10.112.993,10.112h-2.776s-1.176-9.052-1.235-9.6c-.021-.195-.709-6.4-.709-6.4s.113,5.707.113,6.27.121,9.452.121,9.452h-2.924s-.329-7.4-.356-9.335C138.73,74.248,138.462,66.249,138.87,65.238Z" transform="translate(-129.796 -49.174)" fill="#110239"/>
      <path id="Path_1426" data-name="Path 1426" d="M140.778,48.122s-1.838.356-2.55.592c0,0,.227,4.246-.485,5.313l-.324,9.249s4.026-.049,4.155-5.061.121-5.239.121-5.239Z" transform="translate(-129.217 -41.144)" fill="#9c9eb9"/>
      <g id="Group_341" data-name="Group 341" transform="translate(11.526 12.252)">
        <path id="Path_1427" data-name="Path 1427" d="M144.58,58.266a.155.155,0,1,1-.152-.157A.155.155,0,0,1,144.58,58.266Z" transform="translate(-143.975 -58.109)" fill="#110239"/>
        <path id="Path_1428" data-name="Path 1428" d="M144.393,61.141a.155.155,0,1,1-.152-.158A.155.155,0,0,1,144.393,61.141Z" transform="translate(-143.887 -59.465)" fill="#110239"/>
        <path id="Path_1429" data-name="Path 1429" d="M144.206,64.015a.155.155,0,1,1-.152-.157A.155.155,0,0,1,144.206,64.015Z" transform="translate(-143.799 -60.822)" fill="#110239"/>
        <path id="Path_1430" data-name="Path 1430" d="M144.02,66.89a.155.155,0,1,1-.152-.157A.155.155,0,0,1,144.02,66.89Z" transform="translate(-143.711 -62.178)" fill="#110239"/>
      </g>
      <path id="Path_1431" data-name="Path 1431" d="M149.734,49.056l-2.509-1.174-2.107,4.98-.448,5.817s.052,5.114,4.417,4.482l-.355-9.382S148.7,50.343,149.734,49.056Z" transform="translate(-132.638 -41.031)" fill="#9c9eb9"/>
      <path id="Path_1432" data-name="Path 1432" d="M126.723,49.7,125,50.383s2.355,8.511,3.713,7.764,3.163-3.4,3.163-3.4a6.3,6.3,0,0,0,.7-2.118,8.136,8.136,0,0,0-.206-3.389,6.874,6.874,0,0,0-2.2,2.729c-1,2-1.309,2.574-1.4,2.45S126.723,49.7,126.723,49.7Z" transform="translate(-123.357 -41.673)" fill="#9c9eb9"/>
      <path id="Path_1433" data-name="Path 1433" d="M144.972,48.3l-1.184-.9-.286.266.458,1.621,1.011-.758.911.852.879-1.829-.442-.461Z" transform="translate(-132.087 -40.656)" fill="#fff"/>
      <path id="Path_1434" data-name="Path 1434" d="M152.184,73.9c-.175.215-.759.913-.664,1.222s.581-.249.759-.439.2.451.154.794-.747.913-.675,1.15.474-.1.909-.735c0,0-.688.791-.53.9s.546-.293.854-.759c0,0-.664.747-.5.836s.622-.433.794-.7c0,0-.565.613-.409.714.125.081.534-.287.694-.773a12.13,12.13,0,0,0-.29-2.377,4.832,4.832,0,0,1,.12-.68l-.98-.221A1.859,1.859,0,0,1,152.184,73.9Z" transform="translate(-135.865 -52.803)" fill="#f88667"/>
      <path id="Path_1435" data-name="Path 1435" d="M152.192,62.655l1.352.356s1.572-5.169,1.335-6.4-.815-5.858-1.882-6.5a2.183,2.183,0,0,0-1.441,2.063,7.33,7.33,0,0,0,.34,2.146,9.806,9.806,0,0,1,.961,2.771A50.91,50.91,0,0,1,152.192,62.655Z" transform="translate(-135.885 -42.082)" fill="#9c9eb9"/>
    </g>
  </g>
</svg>
