<svg xmlns="http://www.w3.org/2000/svg" xmlns:xlink="http://www.w3.org/1999/xlink" width="263.463" height="281.595" viewBox="0 0 263.463 281.595">
  <defs>
    <linearGradient id="linear-gradient" x1="0.637" y1="0.587" x2="0.33" y2="0.309" gradientUnits="objectBoundingBox">
      <stop offset="0" stop-color="#5c511a"/>
      <stop offset="1" stop-color="#c3ba51"/>
    </linearGradient>
    <linearGradient id="linear-gradient-2" x1="-20.274" y1="-12.294" x2="-53.849" y2="-22.345" gradientUnits="objectBoundingBox">
      <stop offset="0.005" stop-color="#8f7d29"/>
      <stop offset="1" stop-color="#c3ba51"/>
    </linearGradient>
    <linearGradient id="linear-gradient-3" x1="-7.527" y1="5.616" x2="-7.024" y2="5.28" xlink:href="#linear-gradient-2"/>
    <linearGradient id="linear-gradient-4" x1="-5.519" y1="-2.241" x2="-14.564" y2="-4.289" xlink:href="#linear-gradient-2"/>
    <linearGradient id="linear-gradient-5" x1="0.821" y1="0.853" x2="0.462" y2="0.611" xlink:href="#linear-gradient-2"/>
    <linearGradient id="linear-gradient-6" x1="0.649" y1="0.764" x2="0.326" y2="0.475" gradientUnits="objectBoundingBox">
      <stop offset="0" stop-color="#c3ba51"/>
      <stop offset="0.425" stop-color="#deba8a"/>
      <stop offset="0.893" stop-color="#ffbace"/>
    </linearGradient>
    <linearGradient id="linear-gradient-7" x1="-12.362" y1="2.52" x2="-11.629" y2="2.407" xlink:href="#linear-gradient-2"/>
    <linearGradient id="linear-gradient-8" x1="-15.321" y1="2.091" x2="-14.422" y2="2.004" xlink:href="#linear-gradient-2"/>
    <linearGradient id="linear-gradient-9" x1="-12.419" y1="1.954" x2="-11.667" y2="1.871" gradientUnits="objectBoundingBox">
      <stop offset="0.005" stop-color="#8f7d29"/>
      <stop offset="0.306" stop-color="#917f2a"/>
      <stop offset="1" stop-color="#c3ba51"/>
    </linearGradient>
    <linearGradient id="linear-gradient-10" x1="0.844" y1="0.71" x2="0.125" y2="1.322" xlink:href="#linear-gradient-2"/>
    <linearGradient id="linear-gradient-11" x1="0.881" y1="0.601" x2="-0.079" y2="0.601" xlink:href="#linear-gradient-2"/>
    <linearGradient id="linear-gradient-12" x1="-275.462" y1="171.14" x2="-2134.865" y2="-374.278" xlink:href="#linear-gradient-2"/>
    <linearGradient id="linear-gradient-13" x1="0.673" y1="0.579" x2="-0.414" y2="0.579" xlink:href="#linear-gradient-2"/>
    <linearGradient id="linear-gradient-14" x1="0.549" y1="0.679" x2="-0.355" y2="0.679" xlink:href="#linear-gradient-2"/>
  </defs>
  <g id="illustration_fish" transform="translate(263.623 212.239) rotate(158)">
    <g id="Group_383" data-name="Group 383" transform="translate(0 0)">
      <path id="Path_1456" data-name="Path 1456" d="M0,39.462s53.751,4.1,64.76-35.584A23.776,23.776,0,0,1,53.127,6.892C40.206,7.205,33.638.391,29.55,0Z" transform="translate(141.282 152.192)" fill-rule="evenodd" fill="url(#linear-gradient)"/>
      <g id="Group_373" data-name="Group 373" transform="translate(145.712 156.206)" opacity="0.6" style="mix-blend-mode: multiply;isolation: isolate">
        <g id="Group_372" data-name="Group 372" transform="translate(0 0)">
          <path id="Path_1457" data-name="Path 1457" d="M.917,0C.615.317.307.619,0,.919A8.19,8.19,0,0,0,.917,0Z" transform="translate(56.57 1.508)" fill="url(#linear-gradient-2)"/>
          <path id="Path_1458" data-name="Path 1458" d="M34.832,22.669c6.045-3.755,15.137-8.058,20.7-13.727C53.9,10.219,52.049,11.33,50.84,12.21A95.629,95.629,0,0,1,29.832,23.583,82.475,82.475,0,0,1,15.413,27.62C32.278,23.546,47.926,13.913,60.257,2.087c-2.381.986-4.8,2.143-7.245,3.385A35.559,35.559,0,0,0,56.57,2.427c-5,4.316-17.286,6.06-23.1,7.18a74.709,74.709,0,0,1-14.919,1.6c2.634-.211,5.489-1.242,7.876-1.664,7.3-1.289,14.585-2.254,21.429-5.124C38.672,2.85,26.141,7.8,18.314,7.227c4.511.25,13.22-2.073,17.835-3.343C31.118.5,22.665,4.009,18.55,0L0,32.262C11.767,36.7,25.045,28.75,34.832,22.669Zm.439-8.776c1.87-.642,3.677-1.283,5.431-1.957C30.37,17.252,19.566,21.819,8.447,20.224,15.681,15.78,27.193,16.67,35.271,13.894Z" fill="url(#linear-gradient-3)" style="mix-blend-mode: multiply;isolation: isolate"/>
          <path id="Path_1459" data-name="Path 1459" d="M3.4,0A19.7,19.7,0,0,1,0,4.512C1.716,3.168,3.188,1.64,3.4,0Z" transform="translate(55.532 4.43)" fill="url(#linear-gradient-4)"/>
        </g>
      </g>
      <g id="Group_374" data-name="Group 374" transform="translate(0.173 0)">
        <path id="Path_1460" data-name="Path 1460" d="M5.3,204.864c2.112.007,18.923-1.425,21.029-1.607,6.141-.53,6.823.051,7.016,6.215.155,4.929.146,9.868.506,14.781.255,3.492,2.069,5.216,5.97,4.6,18.05-2.848,34.822-3.954,54.161-8.43,42.626-9.867,59.422-32.188,80.287-70.281,5.382-9.825,8.374-20.541,9.993-31.684,3.03-20.86-3.717-38.354-18.107-53.112-4.527-4.644-9.935-8.429-15.438-13.023-.547,3.659-3.516-16.6-14.612-27.1-.748,3.944-1.612,6.727-1.734,9.541-.193,4.43-2.246,7.1-6.369,8.4a16.594,16.594,0,0,0-2.192,1.056l1.1,2.85c-7.4-2.16-13.534-4.736-18.094-11.235-9.923-14.139-22.5-25.608-38.2-33.294C69.171,1.828,67.69,1.2,65.06,0a40.57,40.57,0,0,1,2.156,4.489c1.54,5.042,3.089,10.089,4.421,15.188.7,2.7.313,5.859,1.565,8.2A138.894,138.894,0,0,0,83.454,44.212c3.182,4.354,5.6,9.106,3.891,14.121-3.389,9.955-.35,20.181-1.523,31.014q4.759-4.141,9.521-8.28l.013-.013c0-.016,0-.031,0-.047,0,.01.01.02.015.03C99.029,77.433,103,73,106.356,69.131c2.34-2.692,2.342-2.489,6-1.692,27.664,6.027,8.23,30.479-4.728,38.02.343-.493.649-1.017,1.036-1.473,2.921-3.445,3.037-5.467-.59-8.009a38.289,38.289,0,0,1-12.7-14.939l-.016.016a9.2,9.2,0,0,1-.18,2.8c-3.992,10.392-5.3,20.974-2.674,31.932.151.63-.658,1.491-1.12,2.267l-.119-.108c.006.093.012.185.017.279l0,0,0,0,.152-.128a21.252,21.252,0,0,1-2.371,2.323c-19.638,14.12-43.554,38.606-80.91,69.417a32.529,32.529,0,0,0-6.973,8.371C-1.361,202.464.288,204.85,5.3,204.864Zm2.223-5.637c5.314-2.957,33.918-11.613,40.052-8.14,9.64,5.46-3.926,27.487-8.854,31.643a11.1,11.1,0,0,1-1.84.848c-.293-5.184-.555-10.017-.849-14.848-.078-1.261-.319-2.513-.373-3.773-.153-3.589-2.27-4.467-5.427-4.128-3.681.4-22.064,1.986-25.75,2.329q-.483-.949-.966-1.9C4.85,200.583,6.213,199.954,7.52,199.227Z" transform="translate(0 0)" fill-rule="evenodd" fill="url(#linear-gradient-5)"/>
        <path id="Path_1461" data-name="Path 1461" d="M0,0C2.436,7.547,4.352,17.055,6.739,23.929c.354,1.025,1.6,1.737,2.516,2.566C8.8,19.257,8.338,12.023,7.884,4.863,5.817,4.276,3.536,1,0,0Z" transform="translate(82.01 91.452)" fill="#59472e" fill-rule="evenodd" style="mix-blend-mode: multiply;isolation: isolate"/>
      </g>
      <g id="Group_375" data-name="Group 375" transform="translate(118.116 64.419)" opacity="0.5">
        <path id="Path_1462" data-name="Path 1462" d="M7.823,119.5c2.438,2.269,5.5,5.953,9.232,5.874,6.985-6.665-18.537-14.375-4.774-14.482,3.764-.029,9.764,1.543,12.665-1.228,3.841-3.67-1.989-7.178.658-10.98,2.779-3.993,9.966-1.412,13.05-4.515,3.977-4,1.56-9.749,1.116-14.041-.725-7,3.475-5.444,8.016-9.55a10.179,10.179,0,0,0,3.26-6.06c.736-3.955-.352-2.972-1.5-5.913-3.171-8.152,3.609-10.013,6.072-17.788,1.3-4.115.028-5.47-.991-8.924-.513-1.741-1.207-1.788-1.212-4.023,0-1.693,1.725-3.455,1.485-4.941-.525-3.248-3.568-3.795-4.76-7.205-1.207-3.451-.328-5.375-3.2-8.343a58.6,58.6,0,0,0-7.723-6.314A12.157,12.157,0,0,0,37.243,0c4.87,5.262,8.618,15.9,8.664,20.143.048,4.535-3.288,5.836-3.858,9.7-.73,4.948,5.031,7.178,2.133,12.081-.556.941-3.283,2.254-4.238,3.7-2.426,3.68-.809,3.4-.253,6.776,1.2,7.315-1.359,4.673-7.006,7.1-11.537,4.958,6.191,13.865-1.871,21.125-3.452,3.108-10.5,1.816-12.825,6.794-2.307,4.951,3.56,7.426,1.522,12.762-4.428.224,7.219-.69,2.871-1.936-4.033-1.155-9.069-3.909-11.168.992-1.335,3.116,2.977,9.931-2.972,9.9-1.607-.008-2.021-3.4-4.02-3.421-3.1-.039-2.379,3.127-4.223,2.854Z" fill="#53511e"/>
      </g>
      <path id="Path_1463" data-name="Path 1463" d="M43.528,129.1c-.623-5.119,2.389-14.606,29.338-21.052C111.389,98.837,152.99,56,149.3,29.862,144.931-1.052,117.943-.171,113.543.055c4.783.41,25.3,14.311,14.783,26.814-2.777,3.3-7.172,8.852-9.655,11.491-3.618,3.844-10.6,6.726-13.525,10.59.969-1.281-10.039,9.345-17.988,14.53C72.467,73.06,64.4,81.645,52.022,92.764c-14.371,12.909-31.893,28.663-46.8,40.961a30.162,30.162,0,0,0-5.22,5.7C8.976,134.676,33.595,130.168,43.528,129.1Z" transform="translate(3.106 56.115)" fill="url(#linear-gradient-6)"/>
      <path id="Path_1464" data-name="Path 1464" d="M7.253,28.948c5.248,4.309,23.788-3.929,28.22-8.3,4.711-4.65,6.8-4.965,15.468-9.3C44.76,11.277,32.676,5.8,27.14,3.929S18.211-1.314,11.991.538C.914,3.837,8.119,15.653,0,22.9Z" transform="translate(95.708 124.093)" fill="#7c7423"/>
      <path id="Path_1465" data-name="Path 1465" d="M4.007,8.949C9.321,5.992,37.925-2.664,44.059.809c9.64,5.46-3.926,27.487-8.854,31.643a11.107,11.107,0,0,1-1.84.847c-.293-5.184-.555-10.017-.849-14.848-.077-1.261-.319-2.513-.373-3.773-.153-3.589-2.27-4.467-5.427-4.128-3.681.4-22.064,1.985-25.75,2.329Q.483,11.929,0,10.98C1.337,10.306,2.7,9.676,4.007,8.949Z" transform="translate(3.686 190.278)" fill="#7c312c" fill-rule="evenodd"/>
      <path id="Path_1466" data-name="Path 1466" d="M14.354,0s8.1,11.3-11.205,32.442L2.3,22.344s-6.111,15.4,1.6,15.623S27.218,9.769,14.354,0Z" transform="translate(33.903 191.135)" fill="#f2e7cc" fill-rule="evenodd"/>
      <path id="Path_1467" data-name="Path 1467" d="M62.862,0S57.451,35.062,2.8,35L0,37.312C1.359,37.454,50.445,43.662,62.862,0Z" transform="translate(143.18 156.07)" fill="#2b2910" fill-rule="evenodd"/>
      <path id="Path_1468" data-name="Path 1468" d="M0,0C0,.016,0,.031,0,.047L.016.03C.011.02.006.01,0,0Z" transform="translate(95.531 81.007)" fill="none"/>
      <path id="Path_1469" data-name="Path 1469" d="M.006,0V0L0,0Z" transform="translate(131.565 81.419)" fill="#e2cfaf"/>
      <path id="Path_1470" data-name="Path 1470" d="M7.779,0A32.327,32.327,0,0,0,0,1.986Z" transform="translate(34.378 190.258)" fill="#e2cfaf"/>
      <path id="Path_1471" data-name="Path 1471" d="M0,0H0Z" transform="translate(131.571 81.419)" fill="#e2cfaf"/>
      <path id="Path_1472" data-name="Path 1472" d="M55.911,39.561C91.5,19.606,87.867,3.863,86.349,0c-.173.231-6.73,7.276-10.1,11.158C72.785,15.142,65.6,18.4,62.674,22.259c.969-1.281-10.039,9.345-17.988,14.529-14.691,9.58-18.84,14.93-31.217,26.05C6.514,69.084,6.937,79.836,0,86.1l.025.091S15.05,62.473,55.911,39.561Z" transform="translate(44.458 83.73)" fill="#ffb6c2" opacity="0.4" style="mix-blend-mode: multiply;isolation: isolate"/>
      <g id="Group_376" data-name="Group 376" transform="translate(92.849 89.757)" style="mix-blend-mode: multiply;isolation: isolate">
        <path id="Path_1473" data-name="Path 1473" d="M2.988,11.725c.332-.994.641-2.236.863-2.85A25.8,25.8,0,0,0,5.851,0C1.811-.125.985,8.535,0,14.136Q1.5,12.932,2.988,11.725Z" transform="translate(9.417 6.202)" fill="url(#linear-gradient-7)"/>
        <path id="Path_1474" data-name="Path 1474" d="M2.128,15.645C2.527,10.559,4.255,5.041,4.516,0,.7,2.284,1.439,12.33,0,17.332l.228-.175Q1.177,16.4,2.128,15.645Z" transform="translate(6.392 5.415)" fill="url(#linear-gradient-8)"/>
        <path id="Path_1475" data-name="Path 1475" d="M0,27.66l6.7-7.095c.482-5,3.176-14.9.1-17.57a8.8,8.8,0,0,0-1.9,2.98c-.056-2.147-.376-3.826-1.11-4.5a9.813,9.813,0,0,0-.5,1.372A3.937,3.937,0,0,0,1.941,0C-1.188,6.534,7.153,19.968,0,27.66Z" transform="translate(0 0)" fill="url(#linear-gradient-9)"/>
      </g>
      <path id="Path_1476" data-name="Path 1476" d="M1.207,137.288s21.955-4.5,49.24-36.439S96.663,41.665,70.733,0c0,0,29.586,48.374-26.246,93.061S1.207,137.288,1.207,137.288Z" transform="translate(100.474 76.256)" fill="#8aa1af" fill-rule="evenodd"/>
      <path id="Path_1477" data-name="Path 1477" d="M30.152,0S16.5,7.978,0,7.949Z" transform="translate(60.87 217.167)" fill="#8aa1af" fill-rule="evenodd"/>
      <path id="Path_1478" data-name="Path 1478" d="M29.708,0S114.958,57.642.785,136.868c0,0-1.993-11.535.37-20.075,4.92-17.784,28.195-24.666,38.49-53.45C52.307,27.94,29.708,0,29.708,0Z" transform="translate(123.749 58.748)" fill="#324623" opacity="0.4"/>
      <g id="Group_380" data-name="Group 380" transform="translate(0 159.481)">
        <path id="Path_1479" data-name="Path 1479" d="M31.257,52.039s48.854-6.913,31.5-38.244C52.2-5.261,21.415-1.5,0,6.772,0,6.772,44.72,24.448,31.257,52.039Z" transform="translate(58.889 4.016)" fill="#8f7d29"/>
        <g id="Group_379" data-name="Group 379" transform="translate(52.462 15.691)">
          <path id="Path_1480" data-name="Path 1480" d="M45.368,38.819S54.45-.63,12.556.008c0,0-1.363,27.686-4.051,30.662S-.09,46.509,0,50.621Z" transform="translate(0 0)" fill="url(#linear-gradient-10)"/>
          <path id="Path_1481" data-name="Path 1481" d="M33.933,0c-4.576,7.947-7.945,18.295-14.942,26.313-3.469,3.975-8,6.866-11.567,10.777C4.88,39.88,2.413,42.745,0,45.65c0,0,22.147-14.27,27.6-15.85s18.67-4.391,18.67-4.391S48.243,8.278,33.933,0Z" transform="translate(0.001 4.971)" fill="#8f7d29"/>
          <path id="Path_1482" data-name="Path 1482" d="M40.9,0s-10.812,13.439-13,16.69-5.067,4.678-7.714,6.627S0,39.977,0,39.977L45.35,10.71A27.856,27.856,0,0,0,40.9,0Z" transform="translate(0.001 10.644)" fill="#56611f"/>
          <g id="Group_378" data-name="Group 378" transform="translate(15.241 29.078)">
            <path id="Path_1483" data-name="Path 1483" d="M.005,6.53A6.8,6.8,0,1,1,6.53,13.6,6.8,6.8,0,0,1,.005,6.53Z" fill="#5a593b"/>
            <path id="Path_1484" data-name="Path 1484" d="M0,4.789C.114,2.023,2.715-.119,5.813.005s5.52,2.466,5.409,5.232-2.711,4.908-5.81,4.784S-.107,7.555,0,4.789Z" transform="translate(0.617 2.568)" fill="#dee6bf"/>
            <g id="Group_377" data-name="Group 377" transform="translate(2.376 2.38)">
              <path id="Path_1485" data-name="Path 1485" d="M0,4.245A4.481,4.481,0,0,1,4.71,0a4.48,4.48,0,0,1,4.354,4.6A4.481,4.481,0,0,1,4.357,8.849,4.48,4.48,0,0,1,0,4.245Z" fill="#e06a53"/>
              <path id="Path_1486" data-name="Path 1486" d="M0,2.632A2.718,2.718,0,0,1,2.808,0,2.719,2.719,0,0,1,5.4,2.847,2.719,2.719,0,0,1,2.588,5.478,2.718,2.718,0,0,1,0,2.632Z" transform="translate(1.719 1.893)" fill="#110420"/>
              <path id="Path_1487" data-name="Path 1487" d="M4.707,0A4.481,4.481,0,0,0,0,4.245S.6.056,5.4,1.5,8.116,6.622,8.116,6.622l.295.1a4.319,4.319,0,0,0,.65-2.114A4.48,4.48,0,0,0,4.707,0Z" transform="translate(0.004 0)" fill="#efbdb9"/>
            </g>
          </g>
        </g>
        <path id="Path_1488" data-name="Path 1488" d="M19.112.124s8.419-1.774,3.867,8.1S14.454,43.509,0,43.676Z" transform="translate(42.596 24.34)" fill="#2b2910" fill-rule="evenodd"/>
        <path id="Path_1489" data-name="Path 1489" d="M8.265,6.174S24.2-5.421,22.349,3.169s-4.6,10.389-5.578,20.609S11.17,41.409,0,43.893C0,43.893,19.6,14.362,8.265,6.174Z" transform="translate(39.992 25.481)" fill="#dbc467" fill-rule="evenodd"/>
        <path id="Path_1490" data-name="Path 1490" d="M43.865,2.667S33.157,6.8,28.119,10.961c0,0-25.559,3.454-28.119,2.381C0,13.342,5.076,9.277,35.325.3,35.325.3,40.63-1.251,43.865,2.667Z" transform="translate(4.653 30.335)" fill="#945b24" fill-rule="evenodd"/>
        <path id="Path_1491" data-name="Path 1491" d="M42.069,0S6.182,6.59,3.687,11.454s23.878.052,23.878.052S1.6,17.389,0,12.6C0,12.6,12.82,3.91,42.069,0Z" transform="translate(0 30.323)" fill="#f2e7cc" fill-rule="evenodd"/>
        <path id="Path_1492" data-name="Path 1492" d="M3.477,24.039,25.94,10.2S18.5,1.753,10.928,0L0,11.847Z" transform="translate(96.481 10.265)" fill="#56611f"/>
        <path id="Path_1493" data-name="Path 1493" d="M4.007,9.048C2.7,9.775,1.337,10.4,0,11.079q.484.949.966,1.9c3.686-.343,22.069-1.934,25.75-2.329,3.156-.339,5.274.54,5.427,4.128.054,1.261.3,2.513.373,3.773.294,4.831.556,9.664.849,14.848a11.1,11.1,0,0,0,1.84-.847C40.132,28.394,53.7,6.367,44.059.907A9.487,9.487,0,0,0,38.471.079L30.691,2.065C25.916,3.836,6.6,7.607,4.007,9.048Z" transform="translate(3.686 30.699)" fill="none"/>
        <path id="Path_1494" data-name="Path 1494" d="M0,5.036S44.9,4.682,45.18,34.1c0,0,10.228-31.509-38.512-34.1Z" transform="translate(52.926 8.792)" fill="#e2cfaf"/>
        <path id="Path_1495" data-name="Path 1495" d="M33.912,35.826S48.131,5.729,4.331,0L0,2.165S35.648,1.443,33.912,35.826Z" transform="translate(64.194 7.067)" fill="#2b2910" fill-rule="evenodd"/>
        <path id="Path_1496" data-name="Path 1496" d="M0,6.921s61.419-6,58.394,25.686c0,0,10.52-34.575-38.147-32.519Z" transform="translate(66.993)" fill="#e2cfaf"/>
      </g>
      <g id="Group_382" data-name="Group 382" transform="translate(99.288 141.744)" opacity="0.3" style="mix-blend-mode: multiply;isolation: isolate">
        <g id="Group_381" data-name="Group 381" transform="translate(0 0)">
          <path id="Path_1497" data-name="Path 1497" d="M0,.512C.087.448.174.379.261.315.189.21.117.108.049,0Z" transform="translate(0 4.542)" fill="#5f2800"/>
          <path id="Path_1498" data-name="Path 1498" d="M0,3.623C2.793,2.5,5.784,1.244,8.867,0" transform="translate(23.454)" fill="#5f2800"/>
        </g>
      </g>
      <path id="Path_1499" data-name="Path 1499" d="M43.688.145s-4.925-1.664-15.04,6.3C16.381,16.1,9.173,20.387,0,17.742c0,0,6.909,7.141,21.876-3.806C21.876,13.936,30.91,9.753,43.688.145Z" transform="translate(102.962 135.3)" fill="#dbc467" fill-rule="evenodd"/>
      <path id="Path_1500" data-name="Path 1500" d="M8.254,25.323l1.63-.876c5.4,1.043,23.23-10.9,25.078-15.573-2.414-1-9.287,3.3-15.662,7.781A34.971,34.971,0,0,0,26.91,3.989C18.528,8.455,13.847,19.152,6.739,25.167c5.152-5.373,13.38-15.862,14.2-23.5C14.292,1.78,9.145,18.506,5.8,23.443,8.166,16.12,13.4,8.569,16.714,1.506,9.852,2.909,8.173,13.954,4.8,18.9,6.647,12.522,10.709,6.6,12.216,0A7.137,7.137,0,0,0,8.125,4.277a7.737,7.737,0,0,0,.164-1.628C4.008,3.613,1.611,17.512,0,21.982,2.588,23.438,5.009,25.339,8.254,25.323Z" transform="translate(99.799 125.516)" fill="url(#linear-gradient-11)" style="mix-blend-mode: multiply;isolation: isolate"/>
      <path id="Path_1501" data-name="Path 1501" d="M0,11.506S19.883,3.092,28.471,4.943L14.506,0Z" transform="translate(11.27 175.468)" fill="#e2cfaf"/>
      <path id="Path_1502" data-name="Path 1502" d="M26.716,10.55c3.156-.339,5.274.54,5.427,4.128.054,1.261.3,2.513.373,3.773.294,4.831.556,9.664.849,14.848a11.1,11.1,0,0,0,1.84-.847C40.132,28.3,53.7,6.268,44.059.809,37.925-2.664,9.321,5.992,4.007,8.949,2.7,9.676,1.337,10.306,0,10.98q.484.949.966,1.9C4.652,12.535,23.035,10.945,26.716,10.55Z" transform="translate(3.686 190.278)" fill="none"/>
      <path id="Path_1503" data-name="Path 1503" d="M0,0C2.436,7.547,4.352,17.055,6.739,23.929c.354,1.025,1.6,1.737,2.516,2.566C8.8,19.257,8.338,12.023,7.884,4.863,5.817,4.276,3.536,1,0,0Z" transform="translate(82.183 91.452)" fill="#56611f"/>
      <path id="Path_1504" data-name="Path 1504" d="M0,.047.016.03C.011.02.006.01,0,0,0,.016,0,.031,0,.047Z" transform="translate(95.531 81.007)" fill="#53511e"/>
      <path id="Path_1505" data-name="Path 1505" d="M27.947,30.009s-.259-17.568-26.125-22.1L0,0S38.556,9.376,27.947,30.009Z" transform="translate(104.646 51.509)" fill="#8aa1af" fill-rule="evenodd"/>
      <path id="Path_1506" data-name="Path 1506" d="M10.567,40.541s17.88-10.841,16.672-18S23.48,4.3,0,0L3.274,8.906S20.241,12.425,20.41,22.059C20.57,31.184,10.567,40.541,10.567,40.541Z" transform="translate(105.901 58.16)" fill="#56611f"/>
      <path id="Path_1507" data-name="Path 1507" d="M8.894,31.407C6.313,20.634,7.539,10.225,11.375,0L0,10.15l6.285,1.785c.454,7.16.913,14.394,1.371,21.632l.119.108C8.237,32.9,9.046,32.037,8.894,31.407Z" transform="translate(83.783 84.38)" fill="none"/>
      <path id="Path_1508" data-name="Path 1508" d="M26.716,10.55c3.156-.339,5.274.54,5.427,4.128.054,1.261.3,2.513.373,3.773.294,4.831.556,9.664.849,14.848a11.1,11.1,0,0,0,1.84-.847C40.132,28.3,53.7,6.268,44.059.809,37.925-2.664,9.321,5.992,4.007,8.949,2.7,9.676,1.337,10.306,0,10.98q.484.949.966,1.9C4.652,12.535,23.035,10.945,26.716,10.55Z" transform="translate(3.686 190.278)" fill="none"/>
      <path id="Path_1509" data-name="Path 1509" d="M11.685,5.736,0,16.163A38.071,38.071,0,0,0,11.631,29.058c3.626,2.542,3.511,4.564.59,8.009-.387.456-.693.98-1.036,1.473C24.143,31,43.577,6.548,15.913.521a10.341,10.341,0,0,0-3.35-.487c0,.069,0,.115,0,.115Z" transform="translate(96.614 66.918)" fill="none"/>
      <path id="Path_1510" data-name="Path 1510" d="M0,0C2.217,6.9,3.99,15.886,6.2,22.243c.354,1.025,1.6,1.737,2.516,2.566C8.256,17.572,7.8,10.337,7.343,3.177,5.655,2.7,0,0,0,0Z" transform="translate(82.725 93.137)" fill="none"/>
      <path id="Path_1511" data-name="Path 1511" d="M0,0C0,.016,0,.031,0,.047L.016.03C.011.02.006.01,0,0Z" transform="translate(95.531 81.007)" fill="url(#linear-gradient-12)"/>
      <path id="Path_1512" data-name="Path 1512" d="M43.753,35.828c-9.923-14.139-22.5-25.608-38.2-33.294C4.111,1.828,2.63,1.2,0,0A40.568,40.568,0,0,1,2.156,4.489C3.7,9.532,5.245,14.578,6.577,19.678c.7,2.7.313,5.859,1.565,8.2A138.914,138.914,0,0,0,18.394,44.212c3.182,4.354,5.6,9.106,3.891,14.121-3.389,9.955-.349,20.182-1.522,31.014q4.759-4.141,9.521-8.28l.013-.013c0-.016,0-.031,0-.047,0,.01.01.02.015.03C33.968,77.433,37.939,73,41.3,69.131c1.241-1.428,1.827-2.037,2.647-2.179.012-1.526.227-19.685,3.4-26.545l-.617-1.078A24.5,24.5,0,0,1,43.753,35.828Z" transform="translate(65.234 0)" fill="#7c7423" fill-rule="evenodd"/>
      <path id="Path_1513" data-name="Path 1513" d="M25.536,26.981c-2.01-1.355-19.4-17.739-20.611-16.113C3.6,12.437,22.368,27.407,23.314,28.435c-.7-.383-1.392-.765-2.049-1.154-2.614-1.547-11.439-8.154-14.508-8.59.116.9,6.138,5.657,6.757,6.3A193.516,193.516,0,0,0,28.21,37.88c-4.372-1.821-15.322-9.793-19.639-9.389-.109,1.866,19.1,14.525,22.874,14.9-1.893-.232-11.464.151-11.82,2.493,4.155,2.337,8.129,1.754,12.638,2.237-1.976.97-3.792,2.235-5.773,3.2-1.31.637-8.481,5.036-8.712,6.757,1.45.974,9.929-4.243,11.463-4.784,1.445-.509,2.962-1.822,4.438-1.974a48.643,48.643,0,0,1-5.309,4.371c-1.7,1.262-8.968,6.093-9.766,8.138,2.451.276,10.355-4.414,13.093-6.109-1.3,1.316-7.4,7.141-9.243,8.66-1.049.864-7.389,6.114-7.227,7.612,3.671-.977,21.349-14.809,21.531-16.68,0,0,1.709-20.558,1.9-20.651C24.635,15.071,1.193-1.348.025.087-.924,1.328,25.922,27.242,25.536,26.981Z" transform="translate(72.013 6.799)" fill="url(#linear-gradient-13)"/>
      <path id="Path_1514" data-name="Path 1514" d="M23.181.05S22.3-.527,20.534,2.23,6.144,19.335,0,22.445C0,22.445,15.146,3.981,23.181.05Z" transform="translate(85.996 66.901)" fill="url(#linear-gradient-14)"/>
      <path id="Path_1515" data-name="Path 1515" d="M33.363,2.569A40.18,40.18,0,0,0,0,11.759S7.426-6.611,33.363,2.569Z" transform="translate(61.743 154.252)" fill="#e2cfaf"/>
      <line id="Line_1" data-name="Line 1" x1="32.464" y2="15.979" transform="translate(55.1 149.398)" fill="#e2cfaf"/>
      <path id="Path_1516" data-name="Path 1516" d="M1.177,16.909S1.326,4.547,13.1,0C13.1,0-4.66,2.429,1.177,16.909Z" transform="translate(58.619 147.886)" fill="#e2cfaf"/>
      <path id="Path_1517" data-name="Path 1517" d="M69.381,0S53.071,30.413,0,29.987C0,29.987,32.68,27.95,69.381,0Z" transform="translate(73.798 193.382)" fill="#8aa1af" fill-rule="evenodd"/>
    </g>
  </g>
</svg>
