<svg xmlns="http://www.w3.org/2000/svg" width="195.647" height="95.548" viewBox="0 0 195.647 95.548">
  <g id="Pict" transform="translate(0.003 -0.005)">
    <path id="Path_503" data-name="Path 503" d="M9.7,95.047S-6.7,74.725,3.141,55.385s28.518-14.75,54.735-34.413C89.707-2.9,112.064-4.22,140.484,6.221c16.056,5.895,18.68,30.161,44.251,45.234,23.045,13.6,4.267,36.715-7.873,40.322s-20.322,3.607-20.322,3.607Z" transform="translate(0 0)" fill="#e7f3fe"/>
    <path id="Path_504" data-name="Path 504" d="M627.424,365.9c-4.084,8.309-9.221,30.989-10.624,32.238s-9.473,6.063-10.877,8.393-.772,1.558-.154,1.712,35.746.309,35.746.309-4.028-24.083-4.505-24.252S627.424,365.9,627.424,365.9Z" transform="translate(-520.16 -314.543)" fill="#a2dff2"/>
    <path id="Path_505" data-name="Path 505" d="M722.9,408.439c6.456.042,13.263.084,17.01.1l-5.137-30.68c-2.737-5.305-6.063-11.958-6.063-11.958a39.568,39.568,0,0,0-1.586,3.761c-.533,23.045,2.793,29.5.295,33.613A16.056,16.056,0,0,1,722.9,408.439Z" transform="translate(-621.446 -314.543)" fill="#96cfe0"/>
    <path id="Path_506" data-name="Path 506" d="M201.46,664.81H32.805a1.305,1.305,0,0,1,0-2.61H201.46a1.305,1.305,0,1,1,0,2.61Z" transform="translate(-27.082 -569.258)" fill="#2e5b9a"/>
    <path id="Path_507" data-name="Path 507" d="M785.53,294.5c5.838,5.389,18.82,10.5,18.82,10.5s1.979,18.231.632,28.547-.6,12.421-.6,12.421H777.6s-3.593-4.982-10.175-20.491c-4.182-9.866-3.439-20.94-3.439-20.94l16.308-7.326Z" transform="translate(-656.722 -253.164)" fill="#a2dff2"/>
    <path id="Path_508" data-name="Path 508" d="M841.442,413.348H868.22s-.744-2.091.6-12.421c1.109-8.505-.028-22.357-.477-26.989L865.9,372.9c-6.119,1.768-9.642,10.877-10.666,19.789-.688,5.965-10.568,11.831-17.038,15.059A53.945,53.945,0,0,0,841.442,413.348Z" transform="translate(-720.564 -320.56)" fill="#96cfe0"/>
    <path id="Path_509" data-name="Path 509" d="M806.715,161.2a15.964,15.964,0,0,0,.533,13.572c-.112-.281,4.884-12.14,4.884-12.14Z" transform="translate(-692.391 -138.572)" fill="#2e5b9a"/>
    <path id="Path_510" data-name="Path 510" d="M859.749,199l4.1,14.961a1.379,1.379,0,0,1-.253,1.207c-.954,1.179-2.33,3.621-5.081,4.393a6.589,6.589,0,0,1-1.726.2,1.161,1.161,0,0,1-1.151-.94L852.9,204.628Z" transform="translate(-733.201 -171.067)" fill="#f09959"/>
    <path id="Path_511" data-name="Path 511" d="M858.705,208l-1.5.617-4.6,3.761,2.47,12.575C859.266,222.343,859.884,220.575,858.705,208Z" transform="translate(-732.943 -178.804)" fill="#e38540"/>
    <path id="Path_512" data-name="Path 512" d="M819.563,168.591c-.912,4.926-4.589,8.252-8.224,7.438s-5.375-4-4.94-10.386c.337-5.01,2.807-10.456,6.442-9.642S820.475,163.665,819.563,168.591Z" transform="translate(-693.169 -134.033)" fill="#f09959"/>
    <path id="Path_513" data-name="Path 513" d="M881.408,368.465c5.417,1.221,6.428,12.224,8.182,23.831.2,1.333,1.249,12.645,1.249,12.645a3.457,3.457,0,0,1-1.965,3.1c-1.768.884-2.484,1.558-12.744,1.656-9.852.1-22.554-.309-22.554-.309s-.112-3.663.9-5.46c1.516-2.695,17.094-6.568,18.554-6.765.211-2.905-1.431-13.4.828-20.519,1.558-4.9,3.228-7.466,5.319-8.126A4.267,4.267,0,0,1,881.408,368.465Z" transform="translate(-733.78 -316.644)" fill="#a2dff2"/>
    <path id="Path_514" data-name="Path 514" d="M893.3,425.58c4.856.07,11.523.14,16.982.084,10.259-.1,10.975-.772,12.743-1.656a3.626,3.626,0,0,0,2.175-2.793s-1.053-12.028-1.249-13.361c-1.137-7.775-2.372-16.659-5.235-20.954a58.323,58.323,0,0,1,3.172,17.4,17.266,17.266,0,0,1-.533,4.8,2.654,2.654,0,0,1-3.523,1.965c-3.733-1.039-8.393,1.137-8.393,1.137a11.59,11.59,0,0,1,6.835-.1c3.312,1.137,10.161,8.7,2.695,11.494C916.7,424.443,903.026,425.145,893.3,425.58Z" transform="translate(-767.931 -332.596)" fill="#96cfe0"/>
    <path id="Path_515" data-name="Path 515" d="M855.326,610.044a5.122,5.122,0,0,1,4.21-2.344c2.835,0,2.625,4.631,2.218,6.147a2.314,2.314,0,0,1-2.077,1.586l-6.077-.281Z" transform="translate(-733.803 -522.407)" fill="#96cfe0"/>
    <path id="Path_516" data-name="Path 516" d="M580.867,655.514H542.553a1.06,1.06,0,0,1-1.053-1.053v-.309a1.06,1.06,0,0,1,1.053-1.053h38.315a1.06,1.06,0,0,1,1.053,1.053v.309A1.06,1.06,0,0,1,580.867,655.514Z" transform="translate(-465.505 -561.435)" fill="#75a1de"/>
    <path id="Path_517" data-name="Path 517" d="M767.219,613.721c-5.937-2.147-7.495-1.333-8.842-1.726-3.312-.968-4.14-.14-6.288,5.74-.421,1.165.828,1.249,2.077,1.249s2.765-2.414,3.242-2.695a6.614,6.614,0,0,1,1.8-.421s-.421,0-1.039,1.249-1.375,1.726-.421,1.726,1.109-1.586,2.905-1.249,1.109,1.249,5.6,1.179,7.874,0,7.8-2.695c-.07-2.554.211-3.832-2.217-4.281C769.984,611.447,767.219,613.721,767.219,613.721Z" transform="translate(-646.467 -525.803)" fill="#f09959"/>
    <path id="Path_518" data-name="Path 518" d="M860.57,616.6c3.972-.449,2.807,4.505,2.386,4.912s2.218.14,2.218.14a4.788,4.788,0,0,0,.2-4.266,3.856,3.856,0,0,0-3.1-2.386l-1.768.969Z" transform="translate(-739.734 -528.682)" fill="#a86b48"/>
    <path id="Path_519" data-name="Path 519" d="M863.169,615.3c-.056.617-1.095,1.024-2.33.926s-2.189-.688-2.147-1.291,1.095-1.024,2.33-.926S863.211,614.7,863.169,615.3Z" transform="translate(-738.179 -527.819)" fill="#2e5b9a"/>
    <path id="Path_520" data-name="Path 520" d="M863.87,613.991c-.042.547-.982.912-2.077.828s-1.965-.618-1.909-1.165.982-.912,2.077-.828S863.912,613.444,863.87,613.991Z" transform="translate(-739.203 -526.803)" fill="#3e6bab"/>
    <path id="Path_521" data-name="Path 521" d="M865.771,614.259c-.028.393-.7.66-1.5.589s-1.4-.435-1.375-.828.7-.66,1.5-.59S865.8,613.866,865.771,614.259Z" transform="translate(-741.792 -527.324)" fill="#f0ceb4"/>
    <g id="Group_217" data-name="Group 217" transform="translate(27.782 50.178)">
      <path id="Path_522" data-name="Path 522" d="M245.84,393.822h-38.6a4.224,4.224,0,0,1-4.14-3.495l-5.038-27.789a4.251,4.251,0,0,1,4.14-5.038h38.609a4.224,4.224,0,0,1,4.14,3.495l5.038,27.789A4.26,4.26,0,0,1,245.84,393.822Z" transform="translate(-197.991 -357.5)" fill="#75a1de"/>
      <path id="Path_523" data-name="Path 523" d="M247.629,393.438l-5.137-27.213a4.27,4.27,0,0,0-4.224-3.424H199.027a4.313,4.313,0,0,0-.982,3.635l5.207,28.378a4.35,4.35,0,0,0,4.281,3.565h35.859A4.226,4.226,0,0,0,247.629,393.438Z" transform="translate(-197.97 -362.056)" fill="#a8ceff"/>
      <path id="Path_524" data-name="Path 524" d="M356.552,519.44h-7.326a2.5,2.5,0,0,1-2.372-2.6v-13.4a3.964,3.964,0,0,0-3.761-4.14h-3.831a3.964,3.964,0,0,0-3.761,4.14v15a4.431,4.431,0,0,0,4.239,4.631l20-.14A3.36,3.36,0,0,0,356.552,519.44Z" transform="translate(-316.198 -479.399)" fill="#75a1de"/>
      <path id="Path_525" data-name="Path 525" d="M337.5,505.97v14.779a4.574,4.574,0,0,0,4.224,4.547l19.522-.126c0-.323-1.544-.9-3.438-.9h-7.93a2.555,2.555,0,0,1-2.554-2.554V505.97a4.073,4.073,0,0,0-4.07-4.07h-1.67A4.076,4.076,0,0,0,337.5,505.97Z" transform="translate(-317.917 -481.634)" fill="#a8ceff"/>
    </g>
    <path id="Path_526" data-name="Path 526" d="M606.938,624.527c2.947-1.642,6.554-1.095,7.859.547s1.53,2.737-1.418,2.737-8.856.225-9.838.112S606.938,624.527,606.938,624.527Z" transform="translate(-518.718 -536.02)" fill="#f09959"/>
    <path id="Path_527" data-name="Path 527" d="M659.7,622.526c3.172-.758,5.333,1.081,7.972,2.835,2.288,1.53,2.751,3.018.225,1.754A19.391,19.391,0,0,0,662,625.038Z" transform="translate(-567.116 -535.001)" fill="#f09959"/>
    <path id="Path_528" data-name="Path 528" d="M588.2,627.963c-1.6,0-3-.505-4.126-.421s-4.7,3.761-4.14,4.042c.042.014.084.042.126.056a1.924,1.924,0,0,0,2.288-.8c.505-.814,1.333-1.754,2.288-1.418a10.215,10.215,0,0,0,3.284.505Z" transform="translate(-498.496 -539.456)" fill="#f09959"/>
    <path id="Path_529" data-name="Path 529" d="M629.259,621.219c-1.642-.66.982-6.119,1.853-6.119s4.154,2.624,4.154,2.624-.772.435-3.382-.435c-.66-.224-1.207,3.495-1.965,3.93S629.259,621.219,629.259,621.219Z" transform="translate(-540.492 -528.769)" fill="#f7a96f"/>
    <path id="Path_530" data-name="Path 530" d="M795.528,146.056c-.154,6.021,1.895,7.031,3.326,7.845s7.607-.533,8.519-2.021c2.316-3.8.365-7.354.884-7.3s1,1.53,2.344,3.453c.126.182,1.01,1.361,1.053.968.632-5.389,3.438-7.059,2.765-12.5-.491-4.014-3.046-3.691-3.046-3.691s-1.642-3.368-6.765-2.989c-3.424.253-6.484,1.586-10.021,2.5s4.182,8.926,8.772,5.993,2.316,3.523,3.046,4.028.351.07.674,3.368-3.859,5.46-5.067,5.74c-3.846.9-4.477.267-5.319-1.179A16.268,16.268,0,0,1,795.528,146.056Z" transform="translate(-682.299 -111.569)" fill="#2e5b9a"/>
    <path id="Path_531" data-name="Path 531" d="M900.176,211.832c-.435,1.516-1.516,2.5-2.4,2.189s-.912-1.544-.814-3.3c.1-1.586,1.516-2.5,2.4-2.189S900.611,210.317,900.176,211.832Z" transform="translate(-771.045 -179.212)" fill="#f09959"/>
    <g id="Group_222" data-name="Group 222" transform="translate(11.758 13.141)">
      <g id="Group_219" data-name="Group 219">
        <path id="Path_532" data-name="Path 532" d="M117.231,109.01H84.446a.653.653,0,0,1-.646-.646V94.246a.653.653,0,0,1,.646-.646h32.785a.653.653,0,0,1,.646.646v14.1A.656.656,0,0,1,117.231,109.01Z" transform="translate(-83.8 -93.6)" fill="#b7e1ff"/>
        <path id="Path_533" data-name="Path 533" d="M122.09,133.124H90.919a.518.518,0,0,1-.519-.519v-9.586a.518.518,0,0,1,.519-.519H122.09a.518.518,0,0,1,.519.519V132.6A.5.5,0,0,1,122.09,133.124Z" transform="translate(-89.474 -118.444)" fill="#fff"/>
        <g id="Group_218" data-name="Group 218" transform="translate(1.389 1.137)">
          <path id="Path_534" data-name="Path 534" d="M94.753,102.907h-.758a.3.3,0,0,1-.295-.295v-.618a.3.3,0,0,1,.295-.295h.758a.3.3,0,0,1,.295.295v.618A.3.3,0,0,1,94.753,102.907Z" transform="translate(-93.7 -101.7)" fill="#fff"/>
          <path id="Path_535" data-name="Path 535" d="M112.053,102.907h-.758a.3.3,0,0,1-.295-.295v-.618a.3.3,0,0,1,.295-.295h.758a.3.3,0,0,1,.295.295v.618A.3.3,0,0,1,112.053,102.907Z" transform="translate(-108.572 -101.7)" fill="#fff"/>
          <path id="Path_536" data-name="Path 536" d="M129.353,102.907h-.758a.3.3,0,0,1-.295-.295v-.618a.3.3,0,0,1,.295-.295h.758a.3.3,0,0,1,.295.295v.618A.3.3,0,0,1,129.353,102.907Z" transform="translate(-123.444 -101.7)" fill="#fff"/>
        </g>
        <path id="Path_537" data-name="Path 537" d="M203.143,132.91H186.105a.505.505,0,1,1,0-1.01h17.038a.505.505,0,1,1,0,1.01Z" transform="translate(-171.313 -126.525)" fill="#b7e1ff"/>
        <path id="Path_538" data-name="Path 538" d="M111.843,188.91H94.805a.505.505,0,1,1,0-1.01h17.038a.505.505,0,0,1,0,1.01Z" transform="translate(-92.826 -174.665)" fill="#b7e1ff"/>
        <path id="Path_539" data-name="Path 539" d="M229.837,188.91h-1.768a.171.171,0,0,1-.168-.168v-.674a.171.171,0,0,1,.168-.168h1.768a.171.171,0,0,1,.168.168v.674A.171.171,0,0,1,229.837,188.91Z" transform="translate(-207.676 -174.665)" fill="#b7e1ff"/>
        <path id="Path_540" data-name="Path 540" d="M248.737,188.91h-1.768a.171.171,0,0,1-.168-.168v-.674a.171.171,0,0,1,.168-.168h1.768a.171.171,0,0,1,.168.168v.674A.162.162,0,0,1,248.737,188.91Z" transform="translate(-223.923 -174.665)" fill="#b7e1ff"/>
        <path id="Path_541" data-name="Path 541" d="M136.775,150.6H108.551a.351.351,0,0,1,0-.7h28.224a.347.347,0,0,1,.351.351A.356.356,0,0,1,136.775,150.6Z" transform="translate(-104.776 -141.998)" fill="#b7e1ff"/>
        <path id="Path_542" data-name="Path 542" d="M136.775,161.2H108.551a.351.351,0,0,1,0-.7h28.224a.347.347,0,0,1,.351.351A.356.356,0,0,1,136.775,161.2Z" transform="translate(-104.776 -151.111)" fill="#b7e1ff"/>
      </g>
      <g id="Group_221" data-name="Group 221" transform="translate(7.691 10.821)">
        <path id="Path_543" data-name="Path 543" d="M172.045,186.1h-32.8a.653.653,0,0,1-.646-.646v-14.1a.653.653,0,0,1,.646-.646h32.785a.653.653,0,0,1,.646.646v14.1A.624.624,0,0,1,172.045,186.1Z" transform="translate(-138.6 -170.7)" fill="#9ec8ff"/>
        <path id="Path_544" data-name="Path 544" d="M176.99,210.224H145.819a.518.518,0,0,1-.519-.519v-9.586a.518.518,0,0,1,.519-.519H176.99a.518.518,0,0,1,.519.519V209.7A.518.518,0,0,1,176.99,210.224Z" transform="translate(-144.36 -195.544)" fill="#fff"/>
        <g id="Group_220" data-name="Group 220" transform="translate(1.403 1.123)">
          <path id="Path_545" data-name="Path 545" d="M149.653,179.907h-.758a.3.3,0,0,1-.295-.295v-.618a.3.3,0,0,1,.295-.295h.758a.3.3,0,0,1,.295.295v.618A.306.306,0,0,1,149.653,179.907Z" transform="translate(-148.6 -178.7)" fill="#fff"/>
          <path id="Path_546" data-name="Path 546" d="M166.953,179.907h-.758a.3.3,0,0,1-.295-.295v-.618a.3.3,0,0,1,.295-.295h.758a.3.3,0,0,1,.295.295v.618A.306.306,0,0,1,166.953,179.907Z" transform="translate(-163.472 -178.7)" fill="#fff"/>
          <path id="Path_547" data-name="Path 547" d="M184.253,179.907h-.758a.3.3,0,0,1-.295-.295v-.618a.3.3,0,0,1,.295-.295h.758a.3.3,0,0,1,.295.295v.618A.306.306,0,0,1,184.253,179.907Z" transform="translate(-178.344 -178.7)" fill="#fff"/>
        </g>
        <path id="Path_548" data-name="Path 548" d="M258.043,209.91H241.005a.505.505,0,1,1,0-1.01h17.038a.505.505,0,0,1,0,1.01Z" transform="translate(-226.199 -203.539)" fill="#9ec8ff"/>
        <path id="Path_549" data-name="Path 549" d="M166.657,266.01H149.605a.505.505,0,1,1,0-1.01h17.038a.5.5,0,0,1,.505.505A.491.491,0,0,1,166.657,266.01Z" transform="translate(-147.626 -251.765)" fill="#9ec8ff"/>
        <path id="Path_550" data-name="Path 550" d="M284.723,266.01h-1.754a.171.171,0,0,1-.168-.168v-.674a.171.171,0,0,1,.168-.168h1.768a.171.171,0,0,1,.168.168v.674A.184.184,0,0,1,284.723,266.01Z" transform="translate(-262.562 -251.765)" fill="#9ec8ff"/>
        <path id="Path_551" data-name="Path 551" d="M303.637,266.01h-1.768a.171.171,0,0,1-.168-.168v-.674a.171.171,0,0,1,.168-.168h1.768a.171.171,0,0,1,.168.168v.674A.171.171,0,0,1,303.637,266.01Z" transform="translate(-278.809 -251.765)" fill="#9ec8ff"/>
        <path id="Path_552" data-name="Path 552" d="M191.675,227.7H163.451a.351.351,0,1,1,0-.7h28.224a.347.347,0,0,1,.351.351A.366.366,0,0,1,191.675,227.7Z" transform="translate(-159.662 -219.098)" fill="#9ec8ff"/>
        <path id="Path_553" data-name="Path 553" d="M191.675,238.3H163.451a.351.351,0,1,1,0-.7h28.224a.347.347,0,0,1,.351.351A.366.366,0,0,1,191.675,238.3Z" transform="translate(-159.662 -228.211)" fill="#9ec8ff"/>
      </g>
    </g>
    <g id="Group_224" data-name="Group 224" transform="translate(56.824 31.175)">
      <path id="Path_554" data-name="Path 554" d="M413.742,226.521a4.421,4.421,0,1,1-4.421-4.421A4.42,4.42,0,0,1,413.742,226.521Z" transform="translate(-404.9 -222.1)" fill="#9cd499"/>
      <g id="Group_223" data-name="Group 223" transform="translate(2.426 2.867)">
        <path id="Path_555" data-name="Path 555" d="M423.729,245.707h0a.329.329,0,0,1-.253-.112l-1.207-1.361a.338.338,0,1,1,.505-.449l.968,1.095,2.316-2.26a.337.337,0,0,1,.477.477l-2.568,2.512A.289.289,0,0,1,423.729,245.707Z" transform="translate(-422.183 -242.525)" fill="#fff"/>
      </g>
    </g>
    <g id="Group_226" data-name="Group 226" transform="translate(64.571 2.376)">
      <path id="Path_556" data-name="Path 556" d="M489.545,29.573h-28.14a1.312,1.312,0,0,1-1.305-1.305V18.205a1.312,1.312,0,0,1,1.305-1.305h28.125a1.312,1.312,0,0,1,1.305,1.305V28.254A1.294,1.294,0,0,1,489.545,29.573Z" transform="translate(-460.1 -16.9)" fill="#9ec8ff"/>
      <path id="Path_557" data-name="Path 557" d="M486.5,86.967v6.989l8.07-8.056S486.668,86.967,486.5,86.967Z" transform="translate(-482.795 -76.216)" fill="#9ec8ff"/>
      <path id="Path_558" data-name="Path 558" d="M497.869,35.961H472.509a1.111,1.111,0,0,1-1.109-1.109V26.909a1.111,1.111,0,0,1,1.109-1.109h25.361a1.111,1.111,0,0,1,1.109,1.109v7.944A1.12,1.12,0,0,1,497.869,35.961Z" transform="translate(-469.814 -24.551)" fill="#fff"/>
      <path id="Path_559" data-name="Path 559" d="M498.8,36.995H486.347a.547.547,0,1,1,0-1.095H498.8a.557.557,0,0,1,.547.547A.548.548,0,0,1,498.8,36.995Z" transform="translate(-482.193 -33.233)" fill="#9ec8ff"/>
      <path id="Path_560" data-name="Path 560" d="M509.11,54.818h-23.1a.312.312,0,0,1-.309-.309h0a.312.312,0,0,1,.309-.309h23.1a.312.312,0,0,1,.309.309h0A.312.312,0,0,1,509.11,54.818Z" transform="translate(-482.107 -48.965)" fill="#9ec8ff"/>
      <path id="Path_561" data-name="Path 561" d="M509.11,63.318h-23.1a.312.312,0,0,1-.309-.309h0a.312.312,0,0,1,.309-.309h23.1a.312.312,0,0,1,.309.309h0A.312.312,0,0,1,509.11,63.318Z" transform="translate(-482.107 -56.272)" fill="#9ec8ff"/>
      <g id="Group_225" data-name="Group 225" transform="translate(21.178 9.768)">
        <path id="Path_562" data-name="Path 562" d="M612.053,87.707h-.758a.3.3,0,0,1-.295-.295v-.618a.3.3,0,0,1,.295-.295h.758a.3.3,0,0,1,.295.295v.618A.3.3,0,0,1,612.053,87.707Z" transform="translate(-611 -86.5)" fill="#9ec8ff"/>
        <path id="Path_563" data-name="Path 563" d="M629.353,87.707h-.758a.3.3,0,0,1-.295-.295v-.618a.3.3,0,0,1,.295-.295h.758a.3.3,0,0,1,.295.295v.618A.3.3,0,0,1,629.353,87.707Z" transform="translate(-625.872 -86.5)" fill="#9ec8ff"/>
        <path id="Path_564" data-name="Path 564" d="M646.653,87.707h-.758a.3.3,0,0,1-.295-.295v-.618a.3.3,0,0,1,.295-.295h.758a.3.3,0,0,1,.295.295v.618A.3.3,0,0,1,646.653,87.707Z" transform="translate(-640.744 -86.5)" fill="#9ec8ff"/>
      </g>
    </g>
  </g>
</svg>
