<svg xmlns="http://www.w3.org/2000/svg" xmlns:xlink="http://www.w3.org/1999/xlink" width="316.28" height="298.577" viewBox="0 0 316.28 298.577">
  <defs>
    <linearGradient id="linear-gradient" x1="0.5" x2="0.5" y2="1" gradientUnits="objectBoundingBox">
      <stop offset="0" stop-color="#1fb8f7"/>
      <stop offset="1" stop-color="#086bff"/>
    </linearGradient>
    <linearGradient id="linear-gradient-2" x1="0.5" x2="0.5" y2="0.988" gradientUnits="objectBoundingBox">
      <stop offset="0" stop-color="#36c"/>
      <stop offset="0.059" stop-color="#3868cd"/>
      <stop offset="0.436" stop-color="#5577d8"/>
      <stop offset="0.762" stop-color="#6680df"/>
      <stop offset="1" stop-color="#6d84e2"/>
    </linearGradient>
  </defs>
  <g id="Pict_3" data-name="Pict 3" transform="translate(-21.688 -38.151)">
    <path id="Path_738" data-name="Path 738" d="M2323.329,115.122c21.3,33.73,22.191,20.416,66.573,0s83.438,12.427,71.011,58.584-8.876,113.618-80.776,94.978-99.416,91.427-154.45-45.27S2302.026,81.391,2323.329,115.122Z" transform="matrix(0.848, 0.53, -0.53, 0.848, -1699.185, -1217.106)" fill="url(#linear-gradient)"/>
    <g id="Group_275" data-name="Group 275" transform="translate(-359.696 48.582)">
      <g id="Group_271" data-name="Group 271" transform="translate(451.696 32.87)">
        <g id="Group_250" data-name="Group 250">
          <rect id="Rectangle_20" data-name="Rectangle 20" width="108.351" height="179.916" rx="1.941" fill="#272c66"/>
          <rect id="Rectangle_21" data-name="Rectangle 21" width="92.872" height="157.631" transform="translate(8.3 7.442)" fill="url(#linear-gradient-2)"/>
          <path id="Path_693" data-name="Path 693" d="M476.744,111.694a2.921,2.921,0,1,1,2.923-2.921A2.921,2.921,0,0,1,476.744,111.694Z" transform="translate(-422.57 63.195)" fill="#fff"/>
        </g>
        <g id="Group_269" data-name="Group 269" transform="translate(18.719 41.573)">
          <g id="Group_265" data-name="Group 265" transform="translate(11.39)">
            <g id="Group_251" data-name="Group 251" transform="translate(43.085 27.149)">
              <path id="Path_694" data-name="Path 694" d="M485.516,68.751a3.51,3.51,0,0,1-1.786-1.607,2.8,2.8,0,0,1-.34-2.161,2.753,2.753,0,0,1,1.269-1.784,3.488,3.488,0,0,1,2.309-.649,2.939,2.939,0,0,1,2.163,1.221,3.592,3.592,0,0,1,.463,2.666,3.54,3.54,0,0,1-1.605,2.18A2.912,2.912,0,0,1,485.516,68.751Z" transform="translate(-483.295 -62.539)" fill="#77e5f6"/>
            </g>
            <g id="Group_252" data-name="Group 252" transform="translate(38.823 36.035)">
              <path id="Path_695" data-name="Path 695" d="M482.4,71.817a3.694,3.694,0,0,1-.931-2.24,3.1,3.1,0,0,1,.625-2.1,2.46,2.46,0,0,1,.864-.693,3.4,3.4,0,0,1,1.056-.364,3.637,3.637,0,0,1,2.393.44,2.835,2.835,0,0,1,1.383,2.022,3.1,3.1,0,0,1-.065,1.332,3.928,3.928,0,0,1-.672,1.267,3.272,3.272,0,0,1-2.383,1.269A2.792,2.792,0,0,1,482.4,71.817Z" transform="translate(-481.455 -66.376)" fill="#5ee0f4"/>
            </g>
            <g id="Group_253" data-name="Group 253" transform="translate(31.098 42.075)">
              <path id="Path_696" data-name="Path 696" d="M478.268,73.289a3.62,3.62,0,0,1,.137-2.423,3.135,3.135,0,0,1,1.475-1.614,2.3,2.3,0,0,1,.533-.167,2.618,2.618,0,0,1,.535-.095,3.083,3.083,0,0,1,1.119.144,3.713,3.713,0,0,1,1.962,1.429,2.8,2.8,0,0,1,.378,2.425,3.406,3.406,0,0,1-.644,1.158,3.59,3.59,0,0,1-.51.5,4.01,4.01,0,0,1-.642.364,3.233,3.233,0,0,1-2.7.1A2.843,2.843,0,0,1,478.268,73.289Z" transform="translate(-478.12 -68.983)" fill="#5ee0f4"/>
            </g>
            <g id="Group_254" data-name="Group 254" transform="translate(21.408 44.159)">
              <path id="Path_697" data-name="Path 697" d="M473.972,72.827a3.69,3.69,0,0,1,1.17-2.122,3.017,3.017,0,0,1,2.031-.82,3.052,3.052,0,0,1,2.024.841,3.545,3.545,0,0,1,1.147,2.129,2.888,2.888,0,0,1-.714,2.358,3.307,3.307,0,0,1-2.49,1.047,3.348,3.348,0,0,1-2.481-1.072A2.818,2.818,0,0,1,473.972,72.827Z" transform="translate(-473.937 -69.883)" fill="#5ee0f4"/>
            </g>
            <g id="Group_255" data-name="Group 255" transform="translate(11.785 41.973)">
              <path id="Path_698" data-name="Path 698" d="M470.3,70.465a3.634,3.634,0,0,1,1.983-1.406,3.509,3.509,0,0,1,1.112-.118,2.439,2.439,0,0,1,1.072.266,3.086,3.086,0,0,1,1.452,1.638,3.7,3.7,0,0,1,.1,2.425,2.792,2.792,0,0,1-1.663,1.8,3.277,3.277,0,0,1-2.7-.144,3.964,3.964,0,0,1-1.144-.869,3.061,3.061,0,0,1-.621-1.181A2.843,2.843,0,0,1,470.3,70.465Z" transform="translate(-469.782 -68.939)" fill="#68dbf6"/>
            </g>
            <g id="Group_256" data-name="Group 256" transform="translate(4.156 35.827)">
              <path id="Path_699" data-name="Path 699" d="M467.963,66.741a3.506,3.506,0,0,1,2.37-.4,2.907,2.907,0,0,1,2.513,3.185,3.515,3.515,0,0,1-.938,2.214,2.925,2.925,0,0,1-2.3.922,3.432,3.432,0,0,1-3.083-3.905A2.927,2.927,0,0,1,467.963,66.741Z" transform="translate(-466.489 -66.286)" fill="#4ad4f4"/>
            </g>
            <g id="Group_257" data-name="Group 257" transform="translate(0 26.883)">
              <path id="Path_700" data-name="Path 700" d="M467.419,62.433a3.7,3.7,0,0,1,2.356.669,3.206,3.206,0,0,1,1.246,1.8,2.48,2.48,0,0,1-.007,1.107,3.046,3.046,0,0,1-.368,1.049,3.658,3.658,0,0,1-1.839,1.6,2.826,2.826,0,0,1-2.439-.181,3.352,3.352,0,0,1-1.01-.878,3.976,3.976,0,0,1-.563-1.323,3.221,3.221,0,0,1,.5-2.654A2.785,2.785,0,0,1,467.419,62.433Z" transform="translate(-464.695 -62.424)" fill="#38cff3"/>
            </g>
            <g id="Group_258" data-name="Group 258" transform="translate(0.067 16.963)">
              <path id="Path_701" data-name="Path 701" d="M468.88,58.355a3.51,3.51,0,0,1,1.786,1.608,2.8,2.8,0,0,1,.34,2.161,2.754,2.754,0,0,1-1.272,1.784,3.478,3.478,0,0,1-2.307.649,2.942,2.942,0,0,1-2.163-1.221,3.607,3.607,0,0,1-.466-2.666,3.554,3.554,0,0,1,1.608-2.182A2.92,2.92,0,0,1,468.88,58.355Z" transform="translate(-464.724 -58.142)" fill="#00c2f0"/>
            </g>
            <g id="Group_259" data-name="Group 259" transform="translate(4.331 8.118)">
              <path id="Path_702" data-name="Path 702" d="M472,55.263a3.706,3.706,0,0,1,.931,2.242,3.105,3.105,0,0,1-.628,2.1,2.432,2.432,0,0,1-.862.693,3.4,3.4,0,0,1-1.056.364,3.638,3.638,0,0,1-2.393-.442,2.831,2.831,0,0,1-1.383-2.02,3.135,3.135,0,0,1,.062-1.332,3.967,3.967,0,0,1,.674-1.269,3.268,3.268,0,0,1,2.383-1.267A2.8,2.8,0,0,1,472,55.263Z" transform="translate(-466.565 -54.323)" fill="#00c2f0"/>
            </g>
            <g id="Group_260" data-name="Group 260" transform="translate(12.017 2.082)">
              <path id="Path_703" data-name="Path 703" d="M476.149,53.792a3.62,3.62,0,0,1-.137,2.423,3.153,3.153,0,0,1-1.475,1.614A2.292,2.292,0,0,1,474,58a2.616,2.616,0,0,1-.535.095,3.086,3.086,0,0,1-1.119-.146,3.709,3.709,0,0,1-1.962-1.427,2.8,2.8,0,0,1-.378-2.425,3.406,3.406,0,0,1,.644-1.158,3.472,3.472,0,0,1,.51-.5,3.907,3.907,0,0,1,.642-.364,3.233,3.233,0,0,1,2.7-.107A2.852,2.852,0,0,1,476.149,53.792Z" transform="translate(-469.883 -51.717)" fill="#00c2f0"/>
            </g>
            <g id="Group_261" data-name="Group 261" transform="translate(21.684)">
              <path id="Path_704" data-name="Path 704" d="M480.456,54.253a3.682,3.682,0,0,1-1.167,2.122,3.017,3.017,0,0,1-2.031.82,3.062,3.062,0,0,1-2.027-.841,3.561,3.561,0,0,1-1.144-2.129,2.889,2.889,0,0,1,.714-2.358,3.3,3.3,0,0,1,2.49-1.047,3.348,3.348,0,0,1,2.481,1.072A2.806,2.806,0,0,1,480.456,54.253Z" transform="translate(-474.056 -50.818)" fill="#00c2f0"/>
            </g>
            <g id="Group_262" data-name="Group 262" transform="translate(31.349 2.206)">
              <path id="Path_705" data-name="Path 705" d="M484.11,56.6a3.635,3.635,0,0,1-1.985,1.408,3.492,3.492,0,0,1-1.109.116,2.4,2.4,0,0,1-1.073-.264,3.1,3.1,0,0,1-1.452-1.638,3.7,3.7,0,0,1-.1-2.425,2.793,2.793,0,0,1,1.663-1.8,3.277,3.277,0,0,1,2.7.144,3.923,3.923,0,0,1,1.144.869,3.068,3.068,0,0,1,.621,1.179A2.84,2.84,0,0,1,484.11,56.6Z" transform="translate(-478.229 -51.771)" fill="#aceff9"/>
            </g>
            <g id="Group_263" data-name="Group 263" transform="translate(39.007 8.325)">
              <path id="Path_706" data-name="Path 706" d="M486.427,60.343a3.52,3.52,0,0,1-2.37.4,2.907,2.907,0,0,1-2.513-3.185,3.515,3.515,0,0,1,.938-2.214,2.932,2.932,0,0,1,2.3-.924,3.436,3.436,0,0,1,3.083,3.908A2.932,2.932,0,0,1,486.427,60.343Z" transform="translate(-481.535 -54.413)" fill="#aceff9"/>
            </g>
            <g id="Group_264" data-name="Group 264" transform="translate(43.143 17.226)">
              <path id="Path_707" data-name="Path 707" d="M486.981,64.675a3.7,3.7,0,0,1-2.356-.669,3.211,3.211,0,0,1-1.246-1.8,2.48,2.48,0,0,1,.007-1.107,3.058,3.058,0,0,1,.368-1.049,3.665,3.665,0,0,1,1.839-1.6,2.818,2.818,0,0,1,2.439.178,3.391,3.391,0,0,1,1.01.88,3.964,3.964,0,0,1,.563,1.32,3.217,3.217,0,0,1-.5,2.657A2.79,2.79,0,0,1,486.981,64.675Z" transform="translate(-483.32 -58.255)" fill="#88e8f7"/>
            </g>
          </g>
          <g id="Group_266" data-name="Group 266" transform="translate(11.104 58.861)">
            <path id="Path_708" data-name="Path 708" d="M464.571,83.3V76.282h2.254V81.5h3.6V83.3Z" transform="translate(-464.571 -76.162)" fill="#fff"/>
            <path id="Path_709" data-name="Path 709" d="M474.879,79.857c0,2.4-1.4,3.63-3.792,3.63s-3.782-1.232-3.782-3.63,1.387-3.627,3.782-3.627S474.879,77.462,474.879,79.857Zm-5.27-.324v.651a1.489,1.489,0,1,0,2.967,0v-.651a1.489,1.489,0,1,0-2.967,0Z" transform="translate(-460.972 -76.23)" fill="#fff"/>
            <path id="Path_710" data-name="Path 710" d="M478.406,83.3h-2.386l-.294-.987h-2.458l-.3.987h-2.3l2.557-7.014h2.62Zm-3.924-5.056-.746,2.5h1.52l-.734-2.5Z" transform="translate(-456.543 -76.162)" fill="#fff"/>
            <path id="Path_711" data-name="Path 711" d="M477.416,76.282c2.4,0,3.681,1.112,3.681,3.507s-1.286,3.507-3.681,3.507h-3.039V76.282Zm-.785,1.684v3.648h.743c.989,0,1.418-.561,1.418-1.517v-.614c0-.957-.428-1.517-1.418-1.517Z" transform="translate(-451.664 -76.162)" fill="#fff"/>
            <path id="Path_712" data-name="Path 712" d="M480.1,83.3h-2.254V76.282H480.1Z" transform="translate(-447.096 -76.162)" fill="#fff"/>
            <path id="Path_713" data-name="Path 713" d="M486.5,83.3h-1.969l-2.944-3.4v3.4h-2.071V76.282h1.967l2.946,3.458V76.282H486.5Z" transform="translate(-444.899 -76.162)" fill="#fff"/>
            <path id="Path_714" data-name="Path 714" d="M490.447,78.891H488.3c0-.6-.611-.98-1.325-.98a1.455,1.455,0,0,0-1.61,1.621v.651a1.455,1.455,0,0,0,1.61,1.621c.713,0,1.325-.366,1.325-.929h-1.589V79.452h3.741v3.912h-1.163l-.222-.693a3.68,3.68,0,0,1-2.509.815c-2.335,0-3.5-1.232-3.5-3.63s1.4-3.627,3.824-3.627C488.847,76.23,490.447,77.126,490.447,78.891Z" transform="translate(-440.239 -76.23)" fill="#fff"/>
          </g>
          <g id="Group_268" data-name="Group 268" transform="translate(0 76.041)">
            <g id="Group_267" data-name="Group 267">
              <path id="Path_715" data-name="Path 715" d="M524.35,99.256H467.513a7.746,7.746,0,0,1-7.736-7.736v-.137a7.744,7.744,0,0,1,7.736-7.736H524.35a7.744,7.744,0,0,1,7.736,7.736v.137A7.746,7.746,0,0,1,524.35,99.256ZM467.513,85.521a5.868,5.868,0,0,0-5.863,5.863v.137a5.87,5.87,0,0,0,5.863,5.863H524.35a5.87,5.87,0,0,0,5.863-5.863v-.137a5.868,5.868,0,0,0-5.863-5.863Z" transform="translate(-459.777 -83.647)" fill="#5ee0f4"/>
            </g>
            <path id="Path_716" data-name="Path 716" d="M465.943,93.869h-.433a4.326,4.326,0,0,1-4.327-4.327v-.088a4.325,4.325,0,0,1,4.327-4.325h.433Z" transform="translate(-457.926 -81.695)" fill="#5ee0f4"/>
            <rect id="Rectangle_22" data-name="Rectangle 22" width="4.76" height="8.74" transform="translate(10.176 3.434)" fill="#5ee0f4"/>
            <rect id="Rectangle_23" data-name="Rectangle 23" width="4.76" height="8.74" transform="translate(17.095 3.434)" fill="#5ee0f4"/>
            <rect id="Rectangle_24" data-name="Rectangle 24" width="4.76" height="8.74" transform="translate(24.015 3.434)" fill="#5ee0f4"/>
            <rect id="Rectangle_25" data-name="Rectangle 25" width="4.76" height="8.74" transform="translate(30.934 3.434)" fill="#5ee0f4"/>
            <rect id="Rectangle_26" data-name="Rectangle 26" width="4.76" height="8.74" transform="translate(37.853 3.434)" fill="#5ee0f4"/>
          </g>
        </g>
        <g id="Group_270" data-name="Group 270" transform="translate(11.88 12.247)">
          <rect id="Rectangle_27" data-name="Rectangle 27" width="4.555" height="3.683" rx="0.464" fill="#fff"/>
          <rect id="Rectangle_28" data-name="Rectangle 28" width="4.555" height="3.683" rx="0.464" transform="translate(12.425)" fill="#fff"/>
          <rect id="Rectangle_29" data-name="Rectangle 29" width="4.555" height="3.683" rx="0.464" transform="translate(72.435)" fill="#fff"/>
          <rect id="Rectangle_30" data-name="Rectangle 30" width="4.555" height="3.683" rx="0.464" transform="translate(58.512)" fill="#fff"/>
          <rect id="Rectangle_31" data-name="Rectangle 31" width="4.555" height="3.683" rx="0.464" transform="translate(81.159)" fill="#fff"/>
        </g>
      </g>
      <g id="Group_274" data-name="Group 274" transform="translate(539.614 118.602)">
        <path id="Path_717" data-name="Path 717" d="M526.628,137.8s-20.242-.114-27.349-4.853-8.35-23.577,1.974-31.277,12.464-10.069,12.916-15.146.345-16.6,13.715-16.645c13.112-.051,11.982,10.69,12.981,17.527.692,4.76,7.241,11.785,12.973,16.168C561.2,109.2,569.433,142.54,526.628,137.8Z" transform="translate(-484.29 -69.883)" fill="#141c1e"/>
        <path id="Path_718" data-name="Path 718" d="M517.408,79.2a11.55,11.55,0,0,1-3.569.547,10.789,10.789,0,0,1-6-1.691c-.556,3.8,1.177,8.267-2.555,9.307,0,0,.225,16.358,6.81,16.358s7.456-16.464,7.456-16.464S516.537,86.664,517.408,79.2Z" transform="translate(-469.073 -59.127)" fill="#e45940"/>
        <path id="Path_719" data-name="Path 719" d="M522.659,83.435c-.679-1.466-2.4-.748-2.4-.748.338-3.977.324-10.224.324-10.224L513.7,71.74l-6.877.723s-.016,6.247.324,10.224c0,0-1.721-.718-2.4.748-1.144,2.483,1.638,4.118,1.638,4.118-.109-.051,1.913,8.387,7.315,8.869,5.4-.482,7.426-8.92,7.317-8.869C521.021,87.553,523.8,85.918,522.659,83.435Z" transform="translate(-470.141 -67.438)" fill="#f88667"/>
        <g id="Group_272" data-name="Group 272" transform="translate(32.45 1.788)">
          <path id="Path_720" data-name="Path 720" d="M522.621,73.784s-3.611,9.307-13.539,8.63a6.143,6.143,0,0,1-.269,3.1s-1.369-3.9-2.9-3.03a5.255,5.255,0,0,0-2.129,2.353s-1.438-11.042,5.712-13.5S522.621,73.784,522.621,73.784Z" transform="translate(-503.662 -70.655)" fill="#141c1e"/>
          <path id="Path_721" data-name="Path 721" d="M510.565,71.644a8.772,8.772,0,0,0-.148,1.543c.014,1.1.07,2.2.028,3.289a8.044,8.044,0,0,1,1.788,5.052,5.942,5.942,0,0,0,.322,2.692s1.369-3.9,2.9-3.03a5.239,5.239,0,0,1,2.129,2.353S517.085,71.421,510.565,71.644Z" transform="translate(-494.772 -69.357)" fill="#141c1e"/>
        </g>
        <path id="Path_722" data-name="Path 722" d="M538.644,108.415c-1.992-5.779-.961-21.3-.961-21.3-2.453-.767-12.066-5.272-12.066-5.272L519.389,96.9,512.82,81.95s-7.753,3.725-10.206,4.491c0,0-.489,16.2-2.478,21.975,0,0,6.083,9.935,0,32.2h38.508C532.559,118.35,538.644,108.415,538.644,108.415Z" transform="translate(-475.853 -54.14)" fill="#fe3da6"/>
        <path id="Path_723" data-name="Path 723" d="M538.644,98.4c-.491-1.425-.653-6.509-.836-8.955-.917,2.453-1.994,7.82-2.93,10.245-3.164,8.2-6.576,11.591-15.758,11.741-7.331.12-14.192-11.748-14.963-13.932-.894-2.534-1.987-4.955-2.909-7.419a33.821,33.821,0,0,1-1.112,8.32s6.083,9.935,0,32.2h38.508C532.559,108.338,538.644,98.4,538.644,98.4Z" transform="translate(-475.853 -44.128)" fill="#ca0045" opacity="0.32" style="mix-blend-mode: multiply;isolation: isolate"/>
        <g id="Group_273" data-name="Group 273" transform="translate(0 73.251)">
          <path id="Path_724" data-name="Path 724" d="M542.992,106.626c-24.573-3.59-52.816-7.8-52.58,1.663.225,8.966,11.109,15.547,20.518,19.693,4.962-2.136,10.641-2.708,16.01-3.75,9.525-1.848,19.038-.628,28.724-.994a38.714,38.714,0,0,0,15.019-12.13S562.152,109.424,542.992,106.626Z" transform="translate(-488.655 -100.178)" fill="#616161"/>
          <path id="Path_725" data-name="Path 725" d="M515.085,123.146c12.584-1.084,25.192-.558,38.063-1.005-1.89-1.55-2.9-2.879-.619-3.447,10.071-7.78,17.358-14.326,11.663-15.3-6.4-1.1-17.97-.688-24.3.241-4.811.706-7.59,1.149-12.223-.276l-15.364-1.082c-15.454,3.787-18.452,9.608-18.616,9.538C493.765,114.027,504.823,118.141,515.085,123.146Z" transform="translate(-484.339 -100.498)" fill="#ffd451"/>
          <path id="Path_726" data-name="Path 726" d="M515.085,123.146c12.584-1.084,25.192-.558,38.063-1.005-1.89-1.55-2.9-2.879-.619-3.447,10.071-7.78,17.358-14.326,11.663-15.3-6.4-1.1-17.97-.688-24.3.241-4.811.706-7.59,1.149-12.223-.276l-15.364-1.082c-15.454,3.787-18.452,9.608-18.616,9.538C493.765,114.027,504.823,118.141,515.085,123.146Z" transform="translate(-484.339 -100.498)" fill="#ffb900"/>
          <path id="Path_727" data-name="Path 727" d="M513.811,109.424l5,6.845s-5.39,3.85-6.9,4.531-13.65,1.186-16.821-1.3c-2.84-2.226-3.815-5.144-2.365-6.523,1.848-1.758,6.326-2.328,8.561-2.636C506.218,109.658,513.811,109.424,513.811,109.424Z" transform="translate(-486.477 -91.087)"/>
          <path id="Path_728" data-name="Path 728" d="M500.591,120.144l3.238,10.222s47.922-3,52.746-10.8c4.85-7.843,4.408-22.38-13.251-16.52C525.392,109,500.591,120.144,500.591,120.144Z" transform="translate(-475.254 -101.269)" fill="#ffd451"/>
          <path id="Path_729" data-name="Path 729" d="M554.331,112.886c-3.074.114-5.7-1.332-8.285-2.768a34.511,34.511,0,0,0-10.305-3.618c-3.111-.6-5.881-.6-8.38-1.353-13.9,5.172-26.769,10.444-26.769,10.444l2.539,8.01q1.859.386,3.727.836a25.428,25.428,0,0,1,4.408.547c.308.072.616.123.927.164,13.912-1.258,40.841-4.406,44.385-10.136a18.15,18.15,0,0,0,1.45-2.939A10.57,10.57,0,0,1,554.331,112.886Z" transform="translate(-475.254 -96.716)" fill="#ffb900"/>
          <path id="Path_730" data-name="Path 730" d="M520.588,109.765l-4.2,5.441s6.977,4.257,8.434,4.964,11.556,1.179,14.743-1.14c2.861-2.08,3.889-4.892,2.474-6.277-1.8-1.76-6.224-2.434-8.424-2.791C528.781,109.177,520.588,109.765,520.588,109.765Z" transform="translate(-454.466 -90.916)"/>
          <path id="Path_731" data-name="Path 731" d="M561.653,117.681,557.8,130.027s-61.546-3.931-66.57-12.1c-5-8.13,1.9-20.752,20.974-14.942C531.488,108.859,561.653,117.681,561.653,117.681Z" transform="translate(-489.652 -101.507)" fill="#ffd451"/>
        </g>
        <rect id="Rectangle_32" data-name="Rectangle 32" width="10.341" height="17.171" rx="0.185" transform="translate(38.449 60.803)" fill="#272c66"/>
        <path id="Path_732" data-name="Path 732" d="M520.619,99.776l-7.827,1.2-.76,4.711s9.585-.433,10.282,0S521.216,100.063,520.619,99.776Z" transform="translate(-460.194 -30.535)" fill="#f88667"/>
        <path id="Path_733" data-name="Path 733" d="M516.082,107.566c1.978-1.026,2.4-3.861,1.976-5.73-.34-1.51-1.853-1.867-4.049-2.467-1.487-.405-2.9-.723-3.428-.408-1.642,1.561,3.391,2.515,4.612,3.041,0,0-5.2-1.647-5.825-.79-1.119,1.612,3.815,2.43,5.005,2.849a8.312,8.312,0,0,0-3.623-.781c-.954-.16-.9.6-.822.794.382.994,4.41,1.712,4.41,1.712-.714-.127-3.247-1.151-2.919.1.213.815,1.348,1.061,1.929,1.316A3.993,3.993,0,0,0,516.082,107.566Z" transform="translate(-463.918 -31.777)" fill="#f88667"/>
        <path id="Path_734" data-name="Path 734" d="M502.716,99.776l7.824,1.2.762,4.711s-9.585-.433-10.282,0S502.119,100.063,502.716,99.776Z" transform="translate(-474.896 -30.535)" fill="#f88667"/>
        <path id="Path_735" data-name="Path 735" d="M506.438,107.566c-1.978-1.026-2.4-3.861-1.978-5.73.343-1.51,1.855-1.867,4.051-2.467,1.485-.405,2.9-.723,3.428-.408,1.642,1.561-3.391,2.515-4.612,3.041,0,0,5.2-1.647,5.825-.79,1.119,1.612-3.815,2.43-5.008,2.849a8.327,8.327,0,0,1,3.625-.781c.954-.16.9.6.822.794-.382.994-4.41,1.712-4.41,1.712.714-.127,3.247-1.151,2.919.1-.215.815-1.348,1.061-1.932,1.316A3.987,3.987,0,0,1,506.438,107.566Z" transform="translate(-470.358 -31.777)" fill="#f88667"/>
        <path id="Path_736" data-name="Path 736" d="M511.553,83.6c-2.036.57-7.023,2.474-11.669,15.318-4.209,11.635-5.93,21.12-5.527,24.126.653,4.873,21.358,4.7,21.358,4.7l1.242-7.507s-10.5-2.756-10.307-3.794c.264-1.4,2.606-6.576,3.579-9.728C510.4,106.157,512.99,83.2,511.553,83.6Z" transform="translate(-483.534 -51.836)" fill="#fe3da6"/>
        <path id="Path_737" data-name="Path 737" d="M518.677,83.843c1.469.243,6.875,2.77,11.667,14.748,4.6,11.482,5.932,21.12,5.527,24.126-.653,4.873-21.359,4.7-21.359,4.7l-1.242-7.507s10.5-2.756,10.307-3.794c-.264-1.4-2.606-6.576-3.579-9.728C519.828,105.832,517.211,83.6,518.677,83.843Z" transform="translate(-458.564 -51.51)" fill="#fe3da6"/>
      </g>
    </g>
  </g>
</svg>
