<svg id="Pict_1" data-name="Pict 1" xmlns="http://www.w3.org/2000/svg" xmlns:xlink="http://www.w3.org/1999/xlink" width="177.438" height="158.237" viewBox="0 0 177.438 158.237">
  <defs>
    <linearGradient id="linear-gradient" x1="0.5" y1="-0.07" x2="0.5" y2="1" gradientUnits="objectBoundingBox">
      <stop offset="0" stop-color="#4533cc"/>
      <stop offset="0.134" stop-color="#523fd0"/>
      <stop offset="0.481" stop-color="#6f58da"/>
      <stop offset="0.781" stop-color="#8167e0"/>
      <stop offset="1" stop-color="#876de2"/>
    </linearGradient>
  </defs>
  <g id="Group_228" data-name="Group 228">
    <path id="Path_566" data-name="Path 566" d="M70.591,96.071H38L40.668,57H67.922Z" transform="translate(34.424 51.635)" fill="#3c2766"/>
    <path id="Path_567" data-name="Path 567" d="M43.255,86.441c8.2-2.668,17.725-4.574,25.729-8.576L67.651,56.9H40.4L38.3,87.966A37.647,37.647,0,0,0,43.255,86.441Z" transform="translate(34.695 51.545)" fill="#180642"/>
    <path id="Path_568" data-name="Path 568" d="M79.221,74.653a2.274,2.274,0,0,0-1.715-.953H40.15a2,2,0,0,0-1.715.953L33.479,81.9a2.061,2.061,0,0,0,1.715,3.24H82.461a2.061,2.061,0,0,0,1.715-3.24Z" transform="translate(29.986 66.763)" fill="#3c2766"/>
    <path id="Path_569" data-name="Path 569" d="M168.289,118.927H9.148A9.031,9.031,0,0,1,0,109.779V9.148A9.031,9.031,0,0,1,9.148,0H168.289a9.031,9.031,0,0,1,9.148,9.148V109.779A9.031,9.031,0,0,1,168.289,118.927Z" fill="#3c2766"/>
    <rect id="Rectangle_7" data-name="Rectangle 7" width="161.047" height="101.965" transform="translate(8.195 7.814)" fill="url(#linear-gradient)"/>
    <rect id="Rectangle_8" data-name="Rectangle 8" width="123.311" height="90.911" transform="translate(27.064 18.868)" fill="#fff"/>
    <rect id="Rectangle_9" data-name="Rectangle 9" width="123.311" height="10.673" transform="translate(27.064 18.868)" fill="#fe4a3d"/>
    <g id="Group_227" data-name="Group 227" transform="translate(37.736 35.64)">
      <rect id="Rectangle_10" data-name="Rectangle 10" width="63.466" height="6.48" transform="translate(0 3.621)" fill="#d4d3ff"/>
      <rect id="Rectangle_11" data-name="Rectangle 11" width="63.466" height="6.48" transform="translate(0 16.009)" fill="#d4d3ff"/>
      <rect id="Rectangle_12" data-name="Rectangle 12" width="63.466" height="6.48" transform="translate(0 43.073)" fill="#d4d3ff"/>
      <rect id="Rectangle_13" data-name="Rectangle 13" width="63.466" height="6.48" transform="translate(0 55.461)" fill="#d4d3ff"/>
      <rect id="Rectangle_14" data-name="Rectangle 14" width="26.873" height="26.873" transform="translate(74.52)" fill="#d4d3ff"/>
      <path id="Path_570" data-name="Path 570" d="M69.5,31.363c-.381,0-4.193-9.148-5.146-8.958-1.334.381-3.049.953-3.049,2.287s6.861,13.532,8,13.532c2.478,0,12.579-13.532,11.816-15.056s-3.431-2.668-4-2.1S69.876,31.363,69.5,31.363Z" transform="translate(17.794 -16.688)" fill="#0135e0"/>
      <rect id="Rectangle_15" data-name="Rectangle 15" width="26.873" height="26.873" transform="translate(74.52 38.689)" fill="#d4d3ff"/>
      <path id="Path_571" data-name="Path 571" d="M69.5,51.663c-.381,0-4.193-9.148-5.146-8.958-1.334.381-3.049.953-3.049,2.287s6.861,13.532,8,13.532c2.478,0,12.579-13.532,11.816-15.056s-3.431-2.668-4-2.1C76.547,42.134,69.876,51.663,69.5,51.663Z" transform="translate(17.794 1.702)" fill="#0135e0"/>
    </g>
  </g>
  <g id="Group_230" data-name="Group 230" transform="translate(6.492 39.261)">
    <path id="Path_572" data-name="Path 572" d="M8.935,77s-2.668,5.146-2.1,6.289,11.816,5.718,13.151,5.146,1.334-2.668-.762-4.193c-2.287-1.715-3.812-1.334-5.146-2.668s0-3.621,0-3.621Z" transform="translate(-0.37 30.492)" fill="#2c0239"/>
    <path id="Path_573" data-name="Path 573" d="M27.607,78.906s-.191,5.718.762,6.48,13.151.762,14.1-.381.381-2.668-2.1-3.24c-2.287-.381-3.812,0-5.527-.762-1.525-.572-2.287-4-2.287-4Z" transform="translate(18.503 30.492)" fill="#2c0239"/>
    <path id="Path_574" data-name="Path 574" d="M30.019,45.9,14.2,46.853S27.351,76.585,29.066,80.015s9.911,28.016,9.911,28.016l6.48-2.287s-7.242-25.539-8.2-27.826C36.308,75.441,30.019,45.9,30.019,45.9Z" transform="translate(6.371 2.319)" fill="#fe4a3d"/>
    <path id="Path_575" data-name="Path 575" d="M24.592,57.435c.572-2.668.953-6.1,1.525-8.767.191-.953,1.715-1.144,1.715-2.1L27.26,46l-12.96.762S27.451,76.494,29.166,79.925a13.13,13.13,0,0,1,.572,1.525V79.734C29.166,75.16,24.02,60.294,24.592,57.435Z" transform="translate(6.462 2.409)" fill="#ca1e00" opacity="0.32"/>
    <path id="Path_576" data-name="Path 576" d="M31.514,46.6H17.982a21.481,21.481,0,0,0-1.525,10.673c.762,5.718.953,18.868.953,20.393S8.453,99.393,7.5,104.92l6.289,2.287s12.2-24.967,12.579-25.539C26.559,80.906,31.514,46.6,31.514,46.6Z" transform="translate(0.302 2.953)" fill="#fe4a3d"/>
    <path id="Path_577" data-name="Path 577" d="M22.1,46.661s2.668,3.812,4.574,3.621c1.906-.381,13.151-8,13.151-8L38.872,39.8S28.58,46.852,27.627,46.471s-2.287-3.049-2.287-3.049Z" transform="translate(13.528 -3.207)" fill="#f8b067"/>
    <path id="Path_578" data-name="Path 578" d="M22.1,46.661s2.668,3.812,4.574,3.621c1.906-.381,13.151-8,13.151-8L38.872,39.8S28.58,46.852,27.627,46.471s-2.287-3.049-2.287-3.049Z" transform="translate(13.528 -3.207)" fill="#e48940"/>
    <path id="Path_579" data-name="Path 579" d="M14.6,65.025s13.532,3.049,23.824-.762c0,0-2.287-9.529-3.049-14.866s-1.906-13.722-4.955-15.819A14.948,14.948,0,0,0,25.273,31.1,3.96,3.96,0,0,1,22.8,33.578c-1.906.381-5.527-2.478-5.527-2.478s-8.576,4-9.529,5.527c-1.906,3.24,6.1,12.388,7.242,17.153C16.125,58.926,14.6,65.025,14.6,65.025Z" transform="translate(0.254 -11.088)" fill="#6c79fe"/>
    <path id="Path_580" data-name="Path 580" d="M21.5,49.113c-.572-2.287-.572-7.052-3.24-9.529-1.525-1.525-3.431-3.621-5.527-4-2.668-.381-2.859,0-5.336-.381.572,4,6.48,11.245,7.433,15.438,1.144,4.765-.191,11.054-.191,11.054a62.932,62.932,0,0,0,11.816,1.144C24.172,58.452,22.838,53.5,21.5,49.113Z" transform="translate(0.211 -7.374)" fill="#2526fe"/>
    <path id="Path_581" data-name="Path 581" d="M11.7,28.77s3.049,5.336,1.525,7.052c0,0,4,3.621,7.242,2.1S21.8,35.06,21.8,35.06s-2.287-.953-3.24-5.718C17.418,24.768,11.7,28.77,11.7,28.77Z" transform="translate(4.107 -14.667)" fill="#f8b067"/>
    <path id="Path_582" data-name="Path 582" d="M14.94,37.056a11.428,11.428,0,0,1,2.1-2.287,7.345,7.345,0,0,1,3.431-1.144,13.9,13.9,0,0,1-1.906-4.384c-1.144-4.574-6.861-.572-6.861-.572s3.049,5.336,1.525,7.052C13.225,35.913,13.987,36.484,14.94,37.056Z" transform="translate(4.107 -14.757)" fill="#e48940"/>
    <circle id="Ellipse_4" data-name="Ellipse 4" cx="3.431" cy="3.431" r="3.431" transform="translate(7.23)" fill="#2c0239"/>
    <path id="Path_583" data-name="Path 583" d="M16.863,22.428A4.173,4.173,0,0,1,19.722,25.1c.572,1.906.191,1.144.762,1.334.381.191,2.859,1.906,2.668,2.287a5.408,5.408,0,0,1-1.715,1.144s.572.953,1.144,2.1-3.621,2.668-5.146,2.1S12.1,31,11.908,27.383C11.717,23.952,13.242,21.284,16.863,22.428Z" transform="translate(4.28 -19.188)" fill="#f8b067"/>
    <path id="Path_584" data-name="Path 584" d="M9.956,23.743s2.859-1.334,4.193-1.906,2.859-1.525,4.765-.953a3.542,3.542,0,0,1,2.668,4.765s-1.334-1.906-2.668-1.525S17.961,26.6,17.2,27.554s.762,4.765,1.525,5.527c0,0,5.146.381,5.718-.381a19.8,19.8,0,0,0,1.144,1.906c.572,1.334,1.715,3.049.191,4-1.525.762-6.48,0-6.861-.381s-1.715-3.812-3.24-3.24-1.144,1.334-1.144,1.334-.953.572-3.049-1.144A5.747,5.747,0,0,1,9.575,29.27,38.322,38.322,0,0,0,9.956,23.743Z" transform="translate(2.039 -20.503)" fill="#2c0239"/>
    <path id="Path_585" data-name="Path 585" d="M14.862,28.215a8.145,8.145,0,0,0-1.715-2.287c-.762-.762-2.1.191-1.715,1.715C11.813,29.358,15.434,28.977,14.862,28.215Z" transform="translate(3.803 -16.017)" fill="#f8b067"/>
    <g id="Group_229" data-name="Group 229" transform="translate(0 16.962)">
      <rect id="Rectangle_16" data-name="Rectangle 16" width="89.576" height="12.769" transform="translate(0 22.415) rotate(-14.448)" fill="#fff738"/>
      <rect id="Rectangle_17" data-name="Rectangle 17" width="89.576" height="1.525" transform="translate(1.427 27.952) rotate(-14.448)" fill="#3b2666"/>
      <rect id="Rectangle_18" data-name="Rectangle 18" width="89.576" height="1.525" transform="translate(0.474 24.336) rotate(-14.448)" fill="#3b2666"/>
      <rect id="Rectangle_19" data-name="Rectangle 19" width="89.576" height="1.525" transform="translate(2.374 31.774) rotate(-14.448)" fill="#3b2666"/>
      <path id="Path_586" data-name="Path 586" d="M52.14,41.888,48.9,29.5l14.485,2.668Z" transform="translate(37.806 -29.5)" fill="#f9feed"/>
      <path id="Path_587" data-name="Path 587" d="M52.4,30.2l1.715,6.671,6.1-5.336Z" transform="translate(40.976 -28.866)" fill="#0135e0"/>
    </g>
    <path id="Path_588" data-name="Path 588" d="M14.723,39.427s3.812,8,4.574,8,14.866-.953,15.819-1.715c.572-.381.953-.953,1.525-1.334a2.631,2.631,0,0,1,.762-.572,2.539,2.539,0,0,0,.953-.572c.191-.191.953-1.334,1.334-1.144.381,0,.381.381.191.572,0,.381-.572.762-.762.953s-.572.572-.381.762c.191.381.762-.191.953-.381l.572-.572c.191-.191.381-.572.572-.762s.191-.381.381-.572.381-.572.572-.762.381-.381.572-.381c.381.191,0,.762-.191.953s-.191.381-.381.762c0,.191-.381.381-.191.572a1.9,1.9,0,0,0,.762-.953c.191-.191.953-1.334,1.144-1.144.572.381-.191,1.144-.381,1.525l-.572.572-.381.572c.572,0,.762-.762,1.144-1.144.191-.191.762-.762.953-.191,0,.191-.191.381-.191.762-.191.381-.572.572-.762.762l-.572.572c.381,0,1.144-.953,1.525-.762.191.191,0,.572-.191.762a9.513,9.513,0,0,1-3.24,2.1c-1.144.572-2.478,1.144-3.812,1.715-1.906.762-17.153,5.527-19.059,5.336S11.293,44,9.768,41.333C8.624,38.855,14.723,39.427,14.723,39.427Z" transform="translate(2.227 -3.597)" fill="#f8b067"/>
    <path id="Path_589" data-name="Path 589" d="M11.607,49.012s4.955-1.715,7.624-4.384c0,0-6.289-14.1-10.673-10.673C4.174,37.767,11.607,49.012,11.607,49.012Z" transform="translate(0.007 -8.989)" fill="#6c79fe"/>
    <path id="Path_590" data-name="Path 590" d="M11.9,26.11a1.258,1.258,0,0,1,1.334.572c.572.762.191,1.715-.381,1.334s-.191-.762-.381-1.144A.851.851,0,0,0,11.9,26.11Z" transform="translate(4.288 -15.628)" fill="#e48940"/>
    <path id="Path_591" data-name="Path 591" d="M31.125,41.9c.191-.191.572,0,.953.381-.572-.762-1.144-1.334-.572-1.525.572,0,1.144.953,1.525,1.144-.191-.381-1.715-1.334-1.144-2.1.381-.381,1.906,1.334,2.1,1.715-.381-.191-1.525-1.715-.953-1.906s1.525.953,1.906,1.334a1.266,1.266,0,0,1,.762.953c.191.953-1.144,1.525-1.715,1.715a4.192,4.192,0,0,1-2.668-.381C31.316,42.85,30.935,42.088,31.125,41.9Z" transform="translate(21.655 -3.398)" fill="#f8b067"/>
  </g>
</svg>
