<svg xmlns="http://www.w3.org/2000/svg" width="44" height="32" viewBox="0 0 44 32">
  <g id="_62_icon" data-name="62_icon" transform="translate(-210 -129)">
    <path id="icons8_62_2" d="M10,9a7,7,0,0,0-7,7V34a7,7,0,0,0,7,7H40a7,7,0,0,0,7-7V16a7,7,0,0,0-7-7Zm15.527,7.5a4.311,4.311,0,0,1,4.688,4.219l.031.281H27.87l-.031-.219a2.245,2.245,0,0,0-2.406-2.25c-2.945,0-3.473,3.426-3.562,5.156a4.615,4.615,0,0,1,3.75-1.625c4.9,0,5.031,4.824,5.031,5.375A5.306,5.306,0,0,1,25.089,33c-3.742,0-5.625-2.621-5.625-7.781a13.711,13.711,0,0,1,.75-4.812A5.4,5.4,0,0,1,25.527,16.5Zm13.063,0c5.066,0,5.219,4.348,5.219,4.844,0,3.207-2.555,4.824-4.812,6.25-1.547.976-3.016,1.906-3.344,3.188h8.063V33H32.964v-.25c0-3.785,2.59-5.473,4.875-6.969,1.93-1.266,3.594-2.352,3.594-4.437a2.706,2.706,0,0,0-2.844-2.625c-2.8,0-2.812,3.6-2.812,3.75v.25H33.4l-.031-.25a6.3,6.3,0,0,1,1.406-4.562A5.036,5.036,0,0,1,38.589,16.5ZM25.277,24.094c-2.965.086-3,3.211-3,3.344a2.963,2.963,0,0,0,3,3.25c2.832,0,2.906-2.918,2.906-3.25S28.112,24.094,25.277,24.094Z" transform="translate(207 120)" fill="#0d93fc"/>
    <path id="Path_11930" data-name="Path 11930" d="M11.445-5.176H7.5V-1.24H6.2V-5.176H2.266V-6.484H6.2V-10.42H7.5v3.936h3.945Z" transform="translate(212 151)" fill="#fff"/>
  </g>
</svg>
