<svg id="back_icon" xmlns="http://www.w3.org/2000/svg" width="9.483" height="8.52" viewBox="0 0 9.483 8.52">
  <g id="Group_1649" data-name="Group 1649" transform="translate(0 0)">
    <path id="Path_10490" data-name="Path 10490" d="M9.325,9.972A4.192,4.192,0,0,0,5.261,7.4V5.635A.164.164,0,0,0,5.1,5.482a.189.189,0,0,0-.1.031L.068,8.8a.142.142,0,0,0-.033.214l.033.031L5,12.308a.182.182,0,0,0,.233-.031.156.156,0,0,0,.033-.092V10.431a2.72,2.72,0,0,1,2.558,1.306,1.68,1.68,0,0,1-.653,2,.14.14,0,0,0-.011.214A.185.185,0,0,0,7.276,14h.133a.132.132,0,0,0,.089-.031C9.126,12.982,9.823,11.441,9.325,9.972Z" transform="translate(0 -5.482)" fill="#fff"/>
  </g>
</svg>
