<svg xmlns="http://www.w3.org/2000/svg" width="43.16" height="16.067" viewBox="0 0 43.16 16.067">
  <g id="bni_icon" transform="translate(-126 -1163.6)">
    <path id="Path_10426" data-name="Path 10426" d="M997.66,0c.5.345,1.015.867,1.015,1.372v8.9a2.185,2.185,0,0,1-.9,1.484h4.529c2.931-.121,4.708-1.179,4.921-3.4.149-1.556-.673-2.766-2.693-3.448a2.454,2.454,0,0,0,1.6-2.37c.085-1.981-2.22-2.538-3.671-2.538h-4.8Zm2.811,4.764V1.054h1.39c1.577,0,2.32.774,2.32,1.94s-1.066,1.77-2.4,1.77h-1.312Zm1.482,5.857h-1.482v-4.8h1.679c2.5,0,3.258,1.5,3.124,2.733S1004.084,10.621,1001.953,10.621ZM1011.216,0h-2.461a2.285,2.285,0,0,1,.786,1.873V9.981a2.156,2.156,0,0,1-1.008,1.913h3.275a2.135,2.135,0,0,1-1.01-1.934V2.8l4.964,6.63a12.977,12.977,0,0,0,3.294,3.082V1.83A1.847,1.847,0,0,1,1020.063,0h-3.193a1.983,1.983,0,0,1,.886,1.788V8.939L1011.216,0Zm10.66,11.894a1.894,1.894,0,0,0,1-1.625V1.776A1.95,1.95,0,0,0,1022.017,0h3.78a2.2,2.2,0,0,0-1.11,1.776v8.47a2.155,2.155,0,0,0,.906,1.648Z" transform="translate(-856.817 1163.6)" fill="#007697" fill-rule="evenodd"/>
    <path id="Path_10427" data-name="Path 10427" d="M0,0H3.649c-.191.327-.335,1.062.034,2.714a10.944,10.944,0,0,0,2.266,4.21L4.705,7.944,0,2.032V0ZM5.329,0h6.424V1.557a3.006,3.006,0,0,0-2.733-.039A4.143,4.143,0,0,0,6.688,4.891C5.5,3.457,4.72,1.1,5.329,0Zm6.424,3.621V8.254c-1.46.554-3.507-.887-4.021-2.6C6.985,3.179,8.743,2.284,10,2.53A2.877,2.877,0,0,1,11.752,3.621Zm0,5.394v2.738H7.815L8.6,11.1a2.554,2.554,0,0,1-2.019-.8L5.2,8.565l1.267-1.04a7.534,7.534,0,0,0,1.939,1.66,3.489,3.489,0,0,0,3.347-.169ZM5.617,11.753h-4.3L4,9.553l.632.795A15.394,15.394,0,0,1,5.617,11.753Zm-5.551,0H0V4.532l3.5,4.4L.066,11.753Z" transform="translate(126 1163.6)" fill="#ec6722" fill-rule="evenodd"/>
    <path id="Path_10428" data-name="Path 10428" d="M45.364,923.683h0l.221-.033a.319.319,0,0,0,.1.2.435.435,0,0,0,.468.007.194.194,0,0,0,.072-.149.138.138,0,0,0-.065-.117.923.923,0,0,0-.227-.071,2.04,2.04,0,0,1-.338-.11.356.356,0,0,1-.149-.124.322.322,0,0,1-.045-.175.34.34,0,0,1,.149-.286.363.363,0,0,1,.143-.065.6.6,0,0,1,.188-.032.855.855,0,0,1,.273.045.406.406,0,0,1,.176.124.653.653,0,0,1,.078.2l-.221.032a.262.262,0,0,0-.085-.162.353.353,0,0,0-.2-.052.386.386,0,0,0-.221.046.157.157,0,0,0-.065.123.182.182,0,0,0,.026.078.308.308,0,0,0,.084.059c.026.007.091.026.2.058a1.58,1.58,0,0,1,.325.1.3.3,0,0,1,.149.117.323.323,0,0,1,.052.188.356.356,0,0,1-.065.208.414.414,0,0,1-.188.156.7.7,0,0,1-.273.052.594.594,0,0,1-.39-.11.5.5,0,0,1-.175-.312Zm1.858-.37a1.85,1.85,0,0,0,.338-.071v-.058a.243.243,0,0,0-.065-.195.38.38,0,0,0-.253-.072h-.019a.361.361,0,0,0-.208.052.318.318,0,0,0-.111.195l-.221-.026a.525.525,0,0,1,.1-.227.377.377,0,0,1,.2-.13.689.689,0,0,1,.241-.046.163.163,0,0,1,.052-.006.741.741,0,0,1,.273.045.313.313,0,0,1,.227.247,1.356,1.356,0,0,1,.013.208v.292a2.663,2.663,0,0,0,.013.4.352.352,0,0,0,.058.156h-.234a.4.4,0,0,1-.046-.162.762.762,0,0,1-.24.15.779.779,0,0,1-.117.032.812.812,0,0,1-.13.013.5.5,0,0,1-.331-.1.354.354,0,0,1-.117-.273.391.391,0,0,1,.045-.175.378.378,0,0,1,.117-.13.428.428,0,0,1,.156-.071.98.98,0,0,1,.2-.032.178.178,0,0,1,.059-.007Zm0,.611a.4.4,0,0,0,.156-.052.333.333,0,0,0,.15-.15.675.675,0,0,0,.032-.227v-.078a1.373,1.373,0,0,1-.338.078c-.007,0-.02.006-.026.006a.716.716,0,0,0-.195.045.155.155,0,0,0-.084.072.152.152,0,0,0-.033.1.188.188,0,0,0,.065.15.3.3,0,0,0,.2.058A.266.266,0,0,0,47.222,923.923Zm-42.452.149h0V922.26h.364l.429,1.286c.039.117.072.208.085.266q.039-.1.1-.292l.435-1.261H6.5v1.813H6.271v-1.514l-.526,1.514H5.53L5,922.533v1.54Zm3.5,0h0V922.26h.227v1.813Zm-.87-.78h.37a.507.507,0,0,0-.085-.253.339.339,0,0,0-.273-.123H7.395a.337.337,0,0,0-.247.1.408.408,0,0,0-.117.279Zm0,.63h.019a.359.359,0,0,0,.208-.065.47.47,0,0,0,.143-.208l.227.026a.6.6,0,0,1-.2.318.631.631,0,0,1-.377.11H7.395a.587.587,0,0,1-.435-.182.662.662,0,0,1-.169-.494.7.7,0,0,1,.169-.513.588.588,0,0,1,.435-.188H7.4a.568.568,0,0,1,.429.182.683.683,0,0,1,.169.507v.058H7.018a.511.511,0,0,0,.123.331A.384.384,0,0,0,7.395,923.923Zm2.839.656h0l-.026-.208a.525.525,0,0,0,.13.02.222.222,0,0,0,.117-.026.153.153,0,0,0,.072-.071.571.571,0,0,0,.071-.162.1.1,0,0,1,.019-.052l-.5-1.319h.24l.273.76a2.418,2.418,0,0,1,.1.305,2.255,2.255,0,0,1,.091-.3l.279-.767h.221l-.5,1.338a2.324,2.324,0,0,1-.123.3.406.406,0,0,1-.136.156.286.286,0,0,1-.182.052.4.4,0,0,1-.143-.026Zm-.9-1.267a1.852,1.852,0,0,0,.338-.071v-.058a.244.244,0,0,0-.065-.195.406.406,0,0,0-.253-.072H9.337a.385.385,0,0,0-.214.052.394.394,0,0,0-.11.195l-.214-.026a.523.523,0,0,1,.1-.227.383.383,0,0,1,.195-.13.727.727,0,0,1,.247-.046.128.128,0,0,1,.052-.006.8.8,0,0,1,.273.045.313.313,0,0,1,.227.247,1.684,1.684,0,0,1,.006.208v.292a2.331,2.331,0,0,0,.02.4.446.446,0,0,0,.052.156H9.734a.543.543,0,0,1-.039-.162.761.761,0,0,1-.24.15.774.774,0,0,1-.117.032.892.892,0,0,1-.13.013.505.505,0,0,1-.331-.1.354.354,0,0,1-.117-.273.321.321,0,0,1,.046-.175.359.359,0,0,1,.111-.13.518.518,0,0,1,.162-.071.982.982,0,0,1,.2-.032.177.177,0,0,1,.058-.007Zm0,.611a.486.486,0,0,0,.156-.052.319.319,0,0,0,.143-.15.529.529,0,0,0,.039-.227v-.078a1.374,1.374,0,0,1-.338.078c-.013,0-.019.006-.026.006a.712.712,0,0,0-.195.045.169.169,0,0,0-.091.072.21.21,0,0,0,.039.253.291.291,0,0,0,.195.058A.314.314,0,0,0,9.337,923.923Zm6.283.149h0V922.26h.247l.955,1.423V922.26h.227v1.813H16.8l-.949-1.423v1.423Zm-1.293,0h0V922.76h.227v1.313Zm0-1.553h0v-.26h.227v.26Zm-1.41,1.553h0V922.76h.2v.188a.488.488,0,0,1,.422-.221.574.574,0,0,1,.214.045.334.334,0,0,1,.149.111.44.44,0,0,1,.072.169,1.4,1.4,0,0,1,.013.214v.806h-.227v-.8a.539.539,0,0,0-.026-.2.189.189,0,0,0-.091-.11.292.292,0,0,0-.156-.039.356.356,0,0,0-.24.091.436.436,0,0,0-.1.344v.715h-.227Zm-.9-.76a1.85,1.85,0,0,0,.338-.071v-.058a.244.244,0,0,0-.065-.195.4.4,0,0,0-.253-.072h-.019a.37.37,0,0,0-.215.052.4.4,0,0,0-.11.195l-.214-.026a.523.523,0,0,1,.1-.227.384.384,0,0,1,.195-.13.726.726,0,0,1,.247-.046.128.128,0,0,1,.052-.006.8.8,0,0,1,.273.045.36.36,0,0,1,.156.1.455.455,0,0,1,.071.15,1.645,1.645,0,0,1,.007.208v.292c0,.208.007.344.013.4a.641.641,0,0,0,.059.156h-.234a.532.532,0,0,1-.045-.162.677.677,0,0,1-.234.15.779.779,0,0,1-.117.032.894.894,0,0,1-.13.013.5.5,0,0,1-.331-.1.354.354,0,0,1-.117-.273.322.322,0,0,1,.045-.175.359.359,0,0,1,.111-.13.515.515,0,0,1,.162-.071.985.985,0,0,1,.195-.032.24.24,0,0,1,.065-.007Zm0,.611a.407.407,0,0,0,.149-.052.3.3,0,0,0,.149-.15.529.529,0,0,0,.039-.227v-.078a1.452,1.452,0,0,1-.338.078c-.013,0-.02.006-.026.006a.716.716,0,0,0-.2.045.17.17,0,0,0-.091.072.2.2,0,0,0-.032.1.194.194,0,0,0,.071.15.292.292,0,0,0,.2.058A.315.315,0,0,0,12.014,923.923Zm5.945-.63h.37a.505.505,0,0,0-.085-.253.343.343,0,0,0-.279-.123h-.007a.338.338,0,0,0-.247.1.408.408,0,0,0-.117.279h.364Zm0,.63h.019a.359.359,0,0,0,.208-.065.417.417,0,0,0,.136-.208l.234.026a.6.6,0,0,1-.2.318.632.632,0,0,1-.377.11h-.019a.612.612,0,0,1-.442-.182.689.689,0,0,1-.169-.494.7.7,0,0,1,.175-.513.587.587,0,0,1,.435-.188h.007a.568.568,0,0,1,.429.182.711.711,0,0,1,.169.507v.058h-.981a.478.478,0,0,0,.123.331A.37.37,0,0,0,17.959,923.923Zm1.377-.032a.337.337,0,0,0,.26-.117.535.535,0,0,0,.1-.37.529.529,0,0,0-.111-.364.3.3,0,0,0-.253-.123.323.323,0,0,0-.253.117.541.541,0,0,0-.1.364.567.567,0,0,0,.1.377A.314.314,0,0,0,19.337,923.891Zm0,.533a.4.4,0,0,0,.214-.065.32.32,0,0,0,.117-.169,2.367,2.367,0,0,0,.013-.286.454.454,0,0,1-.344.169h-.019a.507.507,0,0,1-.422-.195.756.756,0,0,1-.143-.468.857.857,0,0,1,.065-.344.536.536,0,0,1,.2-.247.545.545,0,0,1,.305-.091h.019a.481.481,0,0,1,.364.188v-.156h.208V923.9a1.014,1.014,0,0,1-.065.435.447.447,0,0,1-.195.2.647.647,0,0,1-.312.072h-.026a.616.616,0,0,1-.377-.1.365.365,0,0,1-.143-.318l.221.032a.19.19,0,0,0,.071.143.362.362,0,0,0,.227.065Zm5.152-.351h0V922.26h.24v.9l.9-.9h.325l-.76.734.793,1.078h-.312l-.65-.916-.292.292v.624Zm-1.371,0h0v-.253h.253v.253a.4.4,0,0,1-.052.227.283.283,0,0,1-.156.13l-.058-.091a.237.237,0,0,0,.1-.091.4.4,0,0,0,.032-.175Zm-.617,0h0V922.76h.221v1.313Zm0-1.553h0v-.26h.221v.26Zm-.851,1.553h0V922.76h.2v.2a.537.537,0,0,1,.143-.189.266.266,0,0,1,.143-.045.464.464,0,0,1,.227.071l-.078.208a.308.308,0,0,0-.162-.046.2.2,0,0,0-.13.046.227.227,0,0,0-.085.117.866.866,0,0,0-.039.26v.689Zm-.871-.78h.364a.45.45,0,0,0-.078-.253.352.352,0,0,0-.279-.123h-.007a.363.363,0,0,0-.253.1.435.435,0,0,0-.111.279Zm0,.63H20.8a.376.376,0,0,0,.208-.065.417.417,0,0,0,.136-.208l.227.026a.533.533,0,0,1-.2.318.612.612,0,0,1-.37.11h-.019a.613.613,0,0,1-.442-.182.689.689,0,0,1-.169-.494.7.7,0,0,1,.175-.513.577.577,0,0,1,.435-.188h.007a.568.568,0,0,1,.429.182.712.712,0,0,1,.169.507.222.222,0,0,1-.007.058H20.4a.479.479,0,0,0,.123.331.358.358,0,0,0,.253.117Zm5.906-.63h.37a.505.505,0,0,0-.085-.253.343.343,0,0,0-.279-.123h-.007a.337.337,0,0,0-.247.1.408.408,0,0,0-.117.279Zm0,.63h.02a.375.375,0,0,0,.208-.065.416.416,0,0,0,.136-.208l.234.026a.6.6,0,0,1-.2.318.645.645,0,0,1-.377.11h-.02a.586.586,0,0,1-.435-.182.689.689,0,0,1-.169-.494.7.7,0,0,1,.175-.513.563.563,0,0,1,.429-.188h.007a.568.568,0,0,1,.429.182.711.711,0,0,1,.169.507v.058h-.974a.447.447,0,0,0,.117.331.357.357,0,0,0,.253.117Zm1.429-1.189a.05.05,0,0,1,.026-.006.582.582,0,0,1,.234.052.46.46,0,0,1,.175.136.664.664,0,0,1,.11.214.911.911,0,0,1,.039.266.735.735,0,0,1-.169.52.528.528,0,0,1-.4.188h-.013a.445.445,0,0,1-.351-.195v.162h-.2V922.26h.221v.65a.416.416,0,0,1,.331-.176Zm0,1.189a.324.324,0,0,0,.247-.13.567.567,0,0,0,.11-.377.555.555,0,0,0-.1-.377.3.3,0,0,0-.247-.123h-.007a.316.316,0,0,0-.247.123.559.559,0,0,0-.1.37.645.645,0,0,0,.065.338.319.319,0,0,0,.286.175Zm2.267.149h0V922.76h.195v.188a.488.488,0,0,1,.422-.221.574.574,0,0,1,.214.045.3.3,0,0,1,.15.111.442.442,0,0,1,.071.169,1.4,1.4,0,0,1,.013.214v.806h-.221v-.8a.716.716,0,0,0-.026-.2.227.227,0,0,0-.1-.11.276.276,0,0,0-.156-.039.356.356,0,0,0-.241.091.437.437,0,0,0-.1.344v.715Zm-.91-.76a1.849,1.849,0,0,0,.338-.071v-.058a.244.244,0,0,0-.065-.195.406.406,0,0,0-.254-.072h-.019a.385.385,0,0,0-.214.052.394.394,0,0,0-.11.195l-.214-.026a.523.523,0,0,1,.1-.227.383.383,0,0,1,.195-.13.726.726,0,0,1,.247-.046.129.129,0,0,1,.052-.006.8.8,0,0,1,.273.045.313.313,0,0,1,.227.247,1.684,1.684,0,0,1,.006.208v.292a2.337,2.337,0,0,0,.019.4.446.446,0,0,0,.052.156h-.234a.543.543,0,0,1-.039-.162.759.759,0,0,1-.24.15.777.777,0,0,1-.117.032.9.9,0,0,1-.13.013.5.5,0,0,1-.331-.1.354.354,0,0,1-.117-.273.321.321,0,0,1,.046-.175.357.357,0,0,1,.11-.13.518.518,0,0,1,.162-.071.984.984,0,0,1,.2-.032A.177.177,0,0,1,29.472,923.313Zm0,.611a.408.408,0,0,0,.15-.052.3.3,0,0,0,.149-.15.529.529,0,0,0,.039-.227v-.078a1.452,1.452,0,0,1-.338.078c-.013,0-.019.006-.026.006a.712.712,0,0,0-.195.045.169.169,0,0,0-.091.072.19.19,0,0,0-.026.1.188.188,0,0,0,.065.15.291.291,0,0,0,.195.058.314.314,0,0,0,.078-.007Zm2.82-.032a.314.314,0,0,0,.253-.117.535.535,0,0,0,.1-.37.529.529,0,0,0-.1-.364.319.319,0,0,0-.253-.123h-.006a.334.334,0,0,0-.254.117.579.579,0,0,0-.1.364.606.606,0,0,0,.1.377A.337.337,0,0,0,32.292,923.891Zm0,.533a.4.4,0,0,0,.214-.065.309.309,0,0,0,.111-.169,1.315,1.315,0,0,0,.019-.286.465.465,0,0,1-.344.169h-.019a.5.5,0,0,1-.422-.195.76.76,0,0,1-.15-.468.858.858,0,0,1,.072-.344.524.524,0,0,1,.5-.338h.019a.492.492,0,0,1,.364.188v-.156h.208V923.9a1.128,1.128,0,0,1-.065.435.5.5,0,0,1-.2.2.621.621,0,0,1-.305.072h-.026a.6.6,0,0,1-.377-.1.365.365,0,0,1-.143-.318l.214.032a.219.219,0,0,0,.078.143.351.351,0,0,0,.227.065Zm1.41-.533a.315.315,0,0,0,.253-.117.536.536,0,0,0,.1-.37.53.53,0,0,0-.1-.364.319.319,0,0,0-.253-.123H33.7a.333.333,0,0,0-.253.117.578.578,0,0,0-.1.364.6.6,0,0,0,.1.377A.336.336,0,0,0,33.7,923.891Zm0,.533a.4.4,0,0,0,.214-.065.309.309,0,0,0,.11-.169,1.3,1.3,0,0,0,.02-.286.465.465,0,0,1-.344.169h-.019a.5.5,0,0,1-.422-.195.759.759,0,0,1-.15-.468.86.86,0,0,1,.071-.344.537.537,0,0,1,.195-.247.53.53,0,0,1,.305-.091H33.7a.492.492,0,0,1,.364.188v-.156h.2V923.9a1.155,1.155,0,0,1-.058.435.5.5,0,0,1-.2.2.639.639,0,0,1-.305.072h-.026a.6.6,0,0,1-.377-.1.35.35,0,0,1-.143-.318l.214.032a.218.218,0,0,0,.078.143.339.339,0,0,0,.227.065Zm1.4-1.111a1.735,1.735,0,0,0,.338-.071v-.058a.269.269,0,0,0-.058-.195.407.407,0,0,0-.254-.072h-.026a.362.362,0,0,0-.208.052.352.352,0,0,0-.11.195l-.221-.026a.747.747,0,0,1,.1-.227.4.4,0,0,1,.2-.13.688.688,0,0,1,.24-.046.181.181,0,0,1,.058-.006.8.8,0,0,1,.273.045.4.4,0,0,1,.156.1.353.353,0,0,1,.065.15,1.382,1.382,0,0,1,.013.208v.292c0,.208.007.344.013.4a.455.455,0,0,0,.058.156h-.234a.4.4,0,0,1-.045-.162.76.76,0,0,1-.24.15.614.614,0,0,1-.117.032.815.815,0,0,1-.123.013.511.511,0,0,1-.338-.1.372.372,0,0,1-.11-.273.386.386,0,0,1,.039-.175.453.453,0,0,1,.117-.13.459.459,0,0,1,.162-.071.9.9,0,0,1,.195-.032.177.177,0,0,1,.058-.007Zm0,.611a.4.4,0,0,0,.156-.052.333.333,0,0,0,.149-.15.674.674,0,0,0,.033-.227v-.078a1.374,1.374,0,0,1-.338.078c-.007,0-.013.006-.026.006a.715.715,0,0,0-.195.045.181.181,0,0,0-.085.072.188.188,0,0,0,.039.253.28.28,0,0,0,.195.058A.243.243,0,0,0,35.105,923.923Zm2.319.149h0V922.76h.2v.188a.477.477,0,0,1,.416-.221.609.609,0,0,1,.221.045.335.335,0,0,1,.149.111.439.439,0,0,1,.065.169.871.871,0,0,1,.013.214v.806h-.221v-.8a.535.535,0,0,0-.026-.2.215.215,0,0,0-.091-.11.308.308,0,0,0-.156-.039.373.373,0,0,0-.247.091.436.436,0,0,0-.1.344v.715Zm-.91-.76a1.73,1.73,0,0,0,.338-.071v-.058a.269.269,0,0,0-.058-.195.406.406,0,0,0-.253-.072h-.026a.361.361,0,0,0-.208.052.352.352,0,0,0-.111.195l-.221-.026a.523.523,0,0,1,.1-.227.4.4,0,0,1,.2-.13.687.687,0,0,1,.24-.046.182.182,0,0,1,.058-.006.8.8,0,0,1,.273.045.376.376,0,0,1,.15.1.294.294,0,0,1,.071.15,1.357,1.357,0,0,1,.013.208v.292c0,.208.006.344.013.4a.354.354,0,0,0,.058.156h-.234a.4.4,0,0,1-.046-.162.758.758,0,0,1-.24.15.781.781,0,0,1-.117.032.813.813,0,0,1-.123.013.511.511,0,0,1-.338-.1.354.354,0,0,1-.117-.273.391.391,0,0,1,.046-.175.455.455,0,0,1,.117-.13.413.413,0,0,1,.162-.071.835.835,0,0,1,.2-.032A.177.177,0,0,1,36.515,923.313Zm0,.611a.4.4,0,0,0,.156-.052.333.333,0,0,0,.15-.15.675.675,0,0,0,.032-.227v-.078a1.373,1.373,0,0,1-.338.078c-.006,0-.013.006-.026.006a.712.712,0,0,0-.195.045.154.154,0,0,0-.085.072.2.2,0,0,0-.033.1.212.212,0,0,0,.065.15.3.3,0,0,0,.2.058.264.264,0,0,0,.071-.007ZM40.2,922.26h.039a.793.793,0,0,1,.331.059.38.38,0,0,1,.2.169.4.4,0,0,1,.071.24.427.427,0,0,1-.058.214.5.5,0,0,1-.195.169.466.466,0,0,1,.253.162.444.444,0,0,1,.091.273.589.589,0,0,1-.052.24.516.516,0,0,1-.136.169.678.678,0,0,1-.195.091,1.347,1.347,0,0,1-.3.026h-.689V922.26H40.2Zm0,.76a.9.9,0,0,0,.221-.02.255.255,0,0,0,.136-.091.235.235,0,0,0,.046-.156.278.278,0,0,0-.046-.162.222.222,0,0,0-.123-.091.888.888,0,0,0-.234-.026h-.4v.546h.4Zm0,.838h.045a1.1,1.1,0,0,0,.169-.007.426.426,0,0,0,.136-.052.221.221,0,0,0,.091-.1.31.31,0,0,0,.039-.156.327.327,0,0,0-.052-.175.275.275,0,0,0-.15-.1.877.877,0,0,0-.26-.032H39.8v.624h.4Zm2.436.214h0V922.76h.2v.188a.477.477,0,0,1,.416-.221.58.58,0,0,1,.221.045.335.335,0,0,1,.15.111.445.445,0,0,1,.072.169,1.42,1.42,0,0,1,.013.214v.806H43.48v-.8a.538.538,0,0,0-.026-.2.188.188,0,0,0-.091-.11.308.308,0,0,0-.156-.039.386.386,0,0,0-.247.091.462.462,0,0,0-.1.344v.715Zm-.91-.76a1.733,1.733,0,0,0,.338-.071.29.29,0,0,0,.006-.058.269.269,0,0,0-.065-.195.406.406,0,0,0-.253-.072h-.026a.361.361,0,0,0-.208.052.352.352,0,0,0-.111.195l-.214-.026a.523.523,0,0,1,.1-.227.384.384,0,0,1,.195-.13.688.688,0,0,1,.24-.046.182.182,0,0,1,.058-.006.8.8,0,0,1,.273.045.361.361,0,0,1,.156.1.351.351,0,0,1,.065.15,1.358,1.358,0,0,1,.013.208v.292c0,.208.006.344.013.4a.64.64,0,0,0,.058.156h-.234a.536.536,0,0,1-.046-.162.738.738,0,0,1-.234.15.682.682,0,0,1-.123.032.815.815,0,0,1-.123.013.5.5,0,0,1-.331-.1.354.354,0,0,1-.117-.273.386.386,0,0,1,.039-.175.455.455,0,0,1,.117-.13.46.46,0,0,1,.162-.071.9.9,0,0,1,.195-.032A.177.177,0,0,1,41.726,923.313Zm0,.611a.4.4,0,0,0,.156-.052.333.333,0,0,0,.15-.15.544.544,0,0,0,.032-.227v-.078a1.3,1.3,0,0,1-.338.078c-.006,0-.013.006-.026.006a.6.6,0,0,0-.188.045.169.169,0,0,0-.091.072.188.188,0,0,0,.039.253.28.28,0,0,0,.2.058A.242.242,0,0,0,41.726,923.923Zm2.826-.032a.323.323,0,0,0,.253-.117.536.536,0,0,0,.1-.37.53.53,0,0,0-.1-.364.319.319,0,0,0-.253-.123h-.007a.333.333,0,0,0-.253.117.541.541,0,0,0-.1.364.567.567,0,0,0,.1.377A.336.336,0,0,0,44.552,923.891Zm0,.533a.375.375,0,0,0,.208-.065.288.288,0,0,0,.117-.169,1.46,1.46,0,0,0,.013-.286.441.441,0,0,1-.338.169h-.026a.486.486,0,0,1-.416-.195.76.76,0,0,1-.149-.468.855.855,0,0,1,.065-.344.548.548,0,0,1,.2-.247.53.53,0,0,1,.305-.091h.019a.493.493,0,0,1,.364.188v-.156h.2V923.9a1.155,1.155,0,0,1-.058.435.5.5,0,0,1-.2.2.639.639,0,0,1-.305.072h-.026a.636.636,0,0,1-.383-.1.346.346,0,0,1-.136-.318l.214.032a.2.2,0,0,0,.078.143.339.339,0,0,0,.227.065Z" transform="translate(121.301 255.061)" fill="#007697" fill-rule="evenodd"/>
  </g>
</svg>
