<svg xmlns="http://www.w3.org/2000/svg" width="20.5" height="18.222" viewBox="0 0 20.5 18.222">
  <path id="car_icon" d="M21.131,6.15A1.7,1.7,0,0,0,19.514,5H6.986A1.713,1.713,0,0,0,5.369,6.15L3,12.972v9.111a1.142,1.142,0,0,0,1.139,1.139H5.278a1.142,1.142,0,0,0,1.139-1.139V20.944H20.083v1.139a1.142,1.142,0,0,0,1.139,1.139h1.139A1.142,1.142,0,0,0,23.5,22.083V12.972ZM6.986,17.528a1.708,1.708,0,1,1,1.708-1.708A1.706,1.706,0,0,1,6.986,17.528Zm12.528,0a1.708,1.708,0,1,1,1.708-1.708A1.706,1.706,0,0,1,19.514,17.528ZM5.278,11.833,6.986,6.708H19.514l1.708,5.125Z" transform="translate(-3 -5)" fill="#0d93fc"/>
</svg>
