<svg xmlns="http://www.w3.org/2000/svg" width="14.353" height="10.167" viewBox="0 0 14.353 10.167">
  <g id="delivery_icon" transform="translate(0 -6)">
    <g id="Group_357" data-name="Group 357" transform="translate(9.868 13.176)">
      <g id="Group_356" data-name="Group 356">
        <g id="Group_355" data-name="Group 355">
          <path id="Path_1446" data-name="Path 1446" d="M18,20.99a1.5,1.5,0,1,1,1.5-1.5A1.5,1.5,0,0,1,18,20.99Z" transform="translate(-16.5 -18)" fill="#0d93fc"/>
        </g>
      </g>
    </g>
    <g id="Group_360" data-name="Group 360" transform="translate(1.196 13.176)">
      <g id="Group_359" data-name="Group 359">
        <g id="Group_358" data-name="Group 358">
          <path id="Path_1447" data-name="Path 1447" d="M3.5,20.99a1.5,1.5,0,1,1,1.5-1.5A1.5,1.5,0,0,1,3.5,20.99Z" transform="translate(-2 -18)" fill="#0d93fc"/>
        </g>
      </g>
    </g>
    <g id="Group_363" data-name="Group 363" transform="translate(8.373 7.196)">
      <g id="Group_362" data-name="Group 362">
        <g id="Group_361" data-name="Group 361">
          <path id="Path_1448" data-name="Path 1448" d="M14.449,10.392h3.439a1.025,1.025,0,0,1,.369.077l-.306-1.223A1.641,1.641,0,0,0,16.355,8H14.449A.449.449,0,0,0,14,8.449V10.5a1.029,1.029,0,0,1,.449-.105Z" transform="translate(-14 -8)" fill="#0d93fc"/>
        </g>
      </g>
    </g>
    <g id="Group_366" data-name="Group 366" transform="translate(8.373 10.186)">
      <g id="Group_365" data-name="Group 365">
        <g id="Group_364" data-name="Group 364">
          <path id="Path_1449" data-name="Path 1449" d="M19.772,14.117,18.128,13.07a.449.449,0,0,0-.24-.07H14.449a.449.449,0,0,0-.449.449v3.887a.449.449,0,0,0,.449.449h.479a2.059,2.059,0,0,1-.031-.3,2.093,2.093,0,0,1,4.186,0,2.059,2.059,0,0,1-.031.3h.479a.449.449,0,0,0,.449-.449V14.5A.449.449,0,0,0,19.772,14.117Z" transform="translate(-14 -13)" fill="#0d93fc"/>
        </g>
      </g>
    </g>
    <g id="Group_369" data-name="Group 369" transform="translate(0 6)">
      <g id="Group_368" data-name="Group 368">
        <g id="Group_367" data-name="Group 367">
          <path id="Path_1450" data-name="Path 1450" d="M7.326,6H.449A.449.449,0,0,0,0,6.449v8.074a.449.449,0,0,0,.449.449h.18a2.059,2.059,0,0,1-.03-.3,2.093,2.093,0,1,1,4.186,0,2.059,2.059,0,0,1-.031.3H7.326a.449.449,0,0,0,.449-.449V6.449A.449.449,0,0,0,7.326,6Z" transform="translate(0 -6)" fill="#0d93fc"/>
        </g>
      </g>
    </g>
  </g>
</svg>
