<svg xmlns="http://www.w3.org/2000/svg" width="14.067" height="14.067" viewBox="0 0 14.067 14.067">
  <path id="face_icon" d="M6.923,8.857a.879.879,0,1,0,.879.879A.879.879,0,0,0,6.923,8.857Zm4.22,0a.879.879,0,1,0,.879.879A.879.879,0,0,0,11.143,8.857ZM9.033,2a7.033,7.033,0,1,0,7.033,7.033A7.036,7.036,0,0,0,9.033,2Zm0,12.66A5.634,5.634,0,0,1,3.407,9.033a5.7,5.7,0,0,1,.035-.6A7.077,7.077,0,0,0,7.106,4.652a7.015,7.015,0,0,0,5.739,2.975,6.865,6.865,0,0,0,1.582-.183A5.618,5.618,0,0,1,9.033,14.66Z" transform="translate(-2 -2)" fill="#707070"/>
</svg>
