<svg xmlns="http://www.w3.org/2000/svg" width="17.321" height="17.389" viewBox="0 0 17.321 17.389">
  <g id="fishing" transform="translate(-1 0)">
    <g id="Group_231" data-name="Group 231" transform="translate(7.793 12.294)">
      <path id="Path_594" data-name="Path 594" d="M423.276,391.291a.509.509,0,0,0,0-.609,7.137,7.137,0,0,0-1.34-1.313,1.866,1.866,0,0,0,0,3.235A7.139,7.139,0,0,0,423.276,391.291Z" transform="translate(-413.528 -388.439)" fill="#0d93fc"/>
      <path id="Path_595" data-name="Path 595" d="M207.453,364.547a2.88,2.88,0,0,1,1.008-2.189,3.6,3.6,0,0,0-1.518-.358,5.036,5.036,0,0,0-3.384,1.753,3.669,3.669,0,0,0-1.756-1.016l-.171-.043a.509.509,0,0,0-.633.494v2.717a.509.509,0,0,0,.633.494l.171-.043a3.669,3.669,0,0,0,1.756-1.016,5.036,5.036,0,0,0,3.384,1.753,3.6,3.6,0,0,0,1.518-.358A2.88,2.88,0,0,1,207.453,364.547Z" transform="translate(-201 -362)" fill="#0d93fc"/>
    </g>
    <g id="Group_233" data-name="Group 233" transform="translate(1 -0.001)">
      <path id="Path_596" data-name="Path 596" d="M4.589,331.9,1.3,335.191a1.019,1.019,0,0,0,1.441,1.441l3.291-3.291A2.731,2.731,0,0,1,4.589,331.9Z" transform="translate(-1 -320.628)" fill="#0d93fc"/>
      <g id="Group_232" data-name="Group 232" transform="translate(1.739)">
        <path id="Path_597" data-name="Path 597" d="M234.656,9.37A3.089,3.089,0,0,1,234,7.364V.509h0a.509.509,0,0,0-.87-.36l-7.814,7.814a2.714,2.714,0,0,1,.72.721l1.774-1.774a1.527,1.527,0,0,1-1.548,2.176,2.723,2.723,0,0,1,.241,1.026,2.543,2.543,0,0,0,2.449-2.906,2.546,2.546,0,0,0,2.487-3.925l1.544-1.544V7.364a4.1,4.1,0,0,0,.9,2.665.509.509,0,1,1-.9.329.509.509,0,1,0-1.019,0,1.528,1.528,0,0,0,1.53,1.528,1.564,1.564,0,0,0,.271-.024,1.528,1.528,0,0,0,.893-2.493Zm-4.263-3.6a1.531,1.531,0,0,1-1.739.3l2.037-2.037A1.531,1.531,0,0,1,230.392,5.768Z" transform="translate(-219.436 0.001)" fill="#0d93fc"/>
        <path id="Path_598" data-name="Path 598" d="M131.265,250.844l1.146,1.146a.509.509,0,1,1-.72.72l-1.146-1.146a1.7,1.7,0,1,0,.72-.72Z" transform="translate(-127.698 -242.139)" fill="#0d93fc"/>
        <path id="Path_599" data-name="Path 599" d="M55.78,216.344l-1.256-1.256a.509.509,0,0,0-.72,0l-1.441,1.441a.509.509,0,0,0,.72.72l1.081-1.081.9.9a1.706,1.706,0,0,1,.72-.72Z" transform="translate(-52.214 -207.64)" fill="#0d93fc"/>
      </g>
    </g>
  </g>
</svg>
