<svg xmlns="http://www.w3.org/2000/svg" xmlns:xlink="http://www.w3.org/1999/xlink" viewBox="0 0 30 30" fill="#5B5B5B">
  <path d="M14 2C12.895 2 12 2.895 12 4L12 6L18 6L18 4C18 2.895 17.105 2 16 2L14 2 z M 18 6L18 7C18 8.105 17.105 9 16 9L14 9C12.895 9 12 8.105 12 7L12 6L4 6C2.895 6 2 6.895 2 8L2 24C2 25.105 2.895 26 4 26L26 26C27.105 26 28 25.105 28 24L28 8C28 6.895 27.105 6 26 6L18 6 z M 10 11C10.954 11 11.25 11.677734 11.25 11.677734C12.103 11.677734 12.5 12.611031 12.5 13.707031C12.5 14.254031 12.279297 14.707031 12.279297 14.707031C12.367297 14.762031 12.514516 14.937047 12.478516 15.248047C12.410516 15.827047 12.17825 15.974328 12.03125 15.986328C11.97525 16.526328 11.439953 17.218359 11.251953 17.318359L11.251953 18.222656C11.625953 19.439656 13.451953 18.843 14.001953 21L6 21C6.55 18.843 8.376 19.439656 8.75 18.222656L8.75 17.318359C8.562 17.218359 8.0267031 16.526328 7.9707031 15.986328C7.8237031 15.974328 7.5914375 15.827047 7.5234375 15.248047C7.4864375 14.937047 7.6317031 14.762031 7.7207031 14.707031C7.7207031 14.707031 7.5019531 14.206031 7.5019531 13.707031C7.5009531 12.227031 8.233 11 10 11 z M 17 15L23 15C23.552 15 24 15.448 24 16C24 16.552 23.552 17 23 17L17 17C16.448 17 16 16.552 16 16C16 15.448 16.448 15 17 15 z M 17 19L23 19C23.552 19 24 19.448 24 20C24 20.552 23.552 21 23 21L17 21C16.448 21 16 20.552 16 20C16 19.448 16.448 19 17 19 z" fill="#5B5B5B" />
</svg>