<svg id="info" xmlns="http://www.w3.org/2000/svg" width="23.251" height="23.251" viewBox="0 0 23.251 23.251">
  <g id="Group_309" data-name="Group 309">
    <path id="Path_1346" data-name="Path 1346" d="M11.626,0A11.626,11.626,0,1,0,23.251,11.626,11.639,11.639,0,0,0,11.626,0Zm1.938,18.892a.484.484,0,0,1-.484.484H10.172a.484.484,0,0,1-.484-.484V11.626H9.2a.484.484,0,0,1-.484-.484V9.2A.484.484,0,0,1,9.2,8.719h3.875a.484.484,0,0,1,.484.484ZM11.626,7.75a1.938,1.938,0,1,1,1.938-1.938A1.94,1.94,0,0,1,11.626,7.75Z" fill="#0d93fc"/>
  </g>
</svg>
