<svg id="jnt_icon" xmlns="http://www.w3.org/2000/svg" width="39.796" height="8.667" viewBox="0 0 39.796 8.667">
  <g id="_170937610688">
    <path id="Path_1451" data-name="Path 1451" d="M5393,2.289h3.406L5394.73,8.3h2.357l1.676-6.006h2.75l.633-.715h-2.227l.294-.333h2.232l.316-.356h-2.286l.294-.472h2.411l.367-.413h-9.5Z" transform="translate(-5377.758)" fill="#ed3237" fill-rule="evenodd"/>
    <path id="Path_1452" data-name="Path 1452" d="M6.447,30.315H0l.989-1.6,3.708.023L6.384,22H8.535L6.814,28.738Z" transform="translate(0 -21.938)" fill="#ed3237" fill-rule="evenodd"/>
    <path id="Path_1453" data-name="Path 1453" d="M2983.929,25.244h-2.092l-.359-.4a5.156,5.156,0,0,1-3.377.724,2.373,2.373,0,0,1-2.216-2.626,5.073,5.073,0,0,1,1.294-2.558,3.363,3.363,0,0,1,.006-3.386h5.056l-.845,1.927a1.4,1.4,0,0,0-2.648.78l2.476,2.739a5.589,5.589,0,0,0,.639-1.526l1.555.774a9.533,9.533,0,0,1-.871,2.015l.006.006Zm-3.685-1.775-1.917-1.993C2976.338,22.918,2978.355,25.27,2980.244,23.469Z" transform="translate(-2967.463 -16.952)" fill="#ed3237" fill-rule="evenodd"/>
    <path id="Path_1454" data-name="Path 1454" d="M7858.927,1771.147a.429.429,0,0,1,0,.054c0,.023-.006.051-.012.082s-.011.059-.02.093a.47.47,0,0,1-.031.09.3.3,0,0,1-.042.068.082.082,0,0,1-.057.025h-1.128l-.155.772h.958a.052.052,0,0,1,.048.023.117.117,0,0,1,.017.068c0,.014,0,.031,0,.054s-.008.051-.014.082a.539.539,0,0,1-.017.09.585.585,0,0,1-.031.085.286.286,0,0,1-.043.065.08.08,0,0,1-.053.023h-.958l-.179.89h1.142a.047.047,0,0,1,.046.028.162.162,0,0,1,.014.073.429.429,0,0,1,0,.054.509.509,0,0,1-.011.082c-.006.031-.012.062-.021.093a.444.444,0,0,1-.03.088.236.236,0,0,1-.043.065.083.083,0,0,1-.054.023h-1.591a.2.2,0,0,1-.071-.011.087.087,0,0,1-.051-.037.119.119,0,0,1-.028-.062.3.3,0,0,1,0-.093l.552-2.756a.237.237,0,0,1,.09-.155.25.25,0,0,1,.147-.048h1.571C7858.906,1771.054,7858.927,1771.085,7858.927,1771.147Zm1.806,1.439.486,1.382a.811.811,0,0,1,.031.141.089.089,0,0,1-.031.079.206.206,0,0,1-.11.037c-.054.006-.125.006-.218.006-.067,0-.118,0-.158,0a.324.324,0,0,1-.091-.017.081.081,0,0,1-.045-.031.151.151,0,0,1-.025-.048l-.385-1.15-.811,1.15a.186.186,0,0,1-.046.048.148.148,0,0,1-.064.031.534.534,0,0,1-.113.017c-.048,0-.107,0-.181,0a1.931,1.931,0,0,1-.2-.006.154.154,0,0,1-.1-.034.07.07,0,0,1,0-.079.653.653,0,0,1,.085-.136l1.04-1.393-.441-1.286a.742.742,0,0,1-.031-.139.083.083,0,0,1,.031-.076.169.169,0,0,1,.11-.034,2.1,2.1,0,0,1,.215-.009c.067,0,.124,0,.164.006a.356.356,0,0,1,.094.017.093.093,0,0,1,.048.034.162.162,0,0,1,.025.057l.336,1.031.74-1.046a.223.223,0,0,1,.043-.048.186.186,0,0,1,.059-.031.793.793,0,0,1,.105-.014c.042,0,.1-.006.169-.006a2.036,2.036,0,0,1,.212.009.139.139,0,0,1,.1.034.074.074,0,0,1,0,.076.782.782,0,0,1-.082.139Zm3.553-.755a1.488,1.488,0,0,1-.031.285,1.266,1.266,0,0,1-.1.291,1.213,1.213,0,0,1-.179.271,1.238,1.238,0,0,1-.266.229,1.35,1.35,0,0,1-.367.155,1.784,1.784,0,0,1-.486.057h-.33l-.2,1.012a.094.094,0,0,1-.022.045.166.166,0,0,1-.062.031.454.454,0,0,1-.1.017,1.253,1.253,0,0,1-.155.006,1.188,1.188,0,0,1-.152-.006.341.341,0,0,1-.094-.017.1.1,0,0,1-.045-.031.048.048,0,0,1-.006-.045l.571-2.846a.264.264,0,0,1,.1-.172.271.271,0,0,1,.179-.059h.692c.084,0,.161,0,.226.009s.133.017.2.028a1.075,1.075,0,0,1,.269.09.784.784,0,0,1,.2.153.6.6,0,0,1,.128.218A.879.879,0,0,1,7864.285,1771.831Zm-.676.071a.376.376,0,0,0-.057-.2.3.3,0,0,0-.172-.119.509.509,0,0,0-.116-.023,1.122,1.122,0,0,0-.142-.006h-.282l-.215,1.074h.294a.731.731,0,0,0,.237-.034.649.649,0,0,0,.176-.085.568.568,0,0,0,.127-.127.858.858,0,0,0,.088-.156.87.87,0,0,0,.045-.164A.814.814,0,0,0,7863.609,1771.9Zm3.377-.158a1.144,1.144,0,0,1-.042.311.937.937,0,0,1-.136.291,1.047,1.047,0,0,1-.24.249,1.172,1.172,0,0,1-.361.175.408.408,0,0,1,.2.184,1.277,1.277,0,0,1,.133.379l.122.642c.008.037.014.068.02.1a.378.378,0,0,1,.009.073.055.055,0,0,1-.018.04.12.12,0,0,1-.059.028.5.5,0,0,1-.113.017c-.048,0-.11,0-.184,0a1.307,1.307,0,0,1-.164-.006.276.276,0,0,1-.1-.02.067.067,0,0,1-.042-.034.132.132,0,0,1-.017-.051l-.122-.7a1.011,1.011,0,0,0-.054-.215.488.488,0,0,0-.084-.155.313.313,0,0,0-.125-.093.493.493,0,0,0-.181-.031h-.2l-.241,1.207a.061.061,0,0,1-.022.045.179.179,0,0,1-.059.031.473.473,0,0,1-.105.017,1.279,1.279,0,0,1-.158.006,1.125,1.125,0,0,1-.149-.006.336.336,0,0,1-.1-.017.1.1,0,0,1-.046-.031.054.054,0,0,1-.006-.045l.577-2.874a.241.241,0,0,1,.085-.155.274.274,0,0,1,.158-.048h.848a1.785,1.785,0,0,1,.4.042.954.954,0,0,1,.306.127.576.576,0,0,1,.2.215A.66.66,0,0,1,7866.986,1771.743Zm-.689.121a.309.309,0,0,0-.025-.127.255.255,0,0,0-.073-.1.392.392,0,0,0-.133-.065.7.7,0,0,0-.2-.023h-.364l-.181.9h.308a.844.844,0,0,0,.312-.051.612.612,0,0,0,.206-.139.511.511,0,0,0,.113-.184A.578.578,0,0,0,7866.3,1771.865Zm3.307-.718c0,.011,0,.028,0,.054s-.009.051-.012.082-.012.059-.02.093a.818.818,0,0,1-.031.09.306.306,0,0,1-.045.068.076.076,0,0,1-.055.025h-1.127l-.155.772h.958a.053.053,0,0,1,.048.023.126.126,0,0,1,.014.068.386.386,0,0,1,0,.054.821.821,0,0,1-.011.082.687.687,0,0,1-.02.09.42.42,0,0,1-.031.085.214.214,0,0,1-.043.065.081.081,0,0,1-.054.023h-.958l-.178.89h1.145a.043.043,0,0,1,.043.028.127.127,0,0,1,.017.073c0,.011,0,.028,0,.054s-.006.054-.012.082a.794.794,0,0,1-.02.093.778.778,0,0,1-.031.088.214.214,0,0,1-.042.065.086.086,0,0,1-.057.023h-1.589a.187.187,0,0,1-.07-.011.1.1,0,0,1-.054-.037.147.147,0,0,1-.028-.062.255.255,0,0,1,0-.093l.551-2.756a.239.239,0,0,1,.088-.155.263.263,0,0,1,.15-.048h1.568C7869.581,1771.054,7869.6,1771.085,7869.6,1771.147Zm2.162.15c0,.014,0,.034,0,.059s-.006.051-.012.079-.012.059-.017.09-.018.057-.028.082a.254.254,0,0,1-.037.062.057.057,0,0,1-.042.026.186.186,0,0,1-.085-.031c-.034-.02-.076-.042-.127-.068a1.452,1.452,0,0,0-.176-.065.691.691,0,0,0-.227-.031.588.588,0,0,0-.223.037.419.419,0,0,0-.149.1.336.336,0,0,0-.085.136.379.379,0,0,0-.028.15.291.291,0,0,0,.042.155.55.55,0,0,0,.119.124,1.652,1.652,0,0,0,.167.11c.062.037.127.073.191.113s.128.082.189.127a1.009,1.009,0,0,1,.17.161.734.734,0,0,1,.115.209.817.817,0,0,1,.046.274.987.987,0,0,1-.094.427,1.044,1.044,0,0,1-.263.342,1.252,1.252,0,0,1-.412.226,1.611,1.611,0,0,1-.534.085,1.362,1.362,0,0,1-.294-.028,1.24,1.24,0,0,1-.237-.062.813.813,0,0,1-.173-.076.563.563,0,0,1-.107-.076.161.161,0,0,1-.034-.11c0-.014,0-.034.006-.059a.85.85,0,0,1,.015-.085.8.8,0,0,1,.02-.093.625.625,0,0,1,.028-.088.278.278,0,0,1,.039-.065.064.064,0,0,1,.043-.023.179.179,0,0,1,.1.037c.039.025.088.054.144.085a1.463,1.463,0,0,0,.2.085.888.888,0,0,0,.28.04.86.86,0,0,0,.254-.037.53.53,0,0,0,.181-.1.405.405,0,0,0,.113-.147.424.424,0,0,0,.037-.181.281.281,0,0,0-.043-.158.528.528,0,0,0-.116-.127,1.143,1.143,0,0,0-.163-.11c-.062-.034-.125-.068-.187-.107a2.185,2.185,0,0,1-.187-.127.809.809,0,0,1-.163-.161.736.736,0,0,1-.116-.212.757.757,0,0,1-.045-.277.928.928,0,0,1,.088-.407.968.968,0,0,1,.243-.317,1.142,1.142,0,0,1,.372-.209,1.519,1.519,0,0,1,.479-.073,1.576,1.576,0,0,1,.234.017,1.631,1.631,0,0,1,.2.048.793.793,0,0,1,.155.062.5.5,0,0,1,.088.057.274.274,0,0,1,.037.048A.216.216,0,0,1,7871.766,1771.3Zm2.326,0a.488.488,0,0,1,0,.059.68.68,0,0,1-.011.079c-.006.028-.012.059-.021.09a.538.538,0,0,1-.025.082.4.4,0,0,1-.036.062.059.059,0,0,1-.043.026.208.208,0,0,1-.088-.031c-.033-.02-.075-.042-.124-.068a1.375,1.375,0,0,0-.175-.065.707.707,0,0,0-.227-.031.574.574,0,0,0-.223.037.4.4,0,0,0-.238.232.462.462,0,0,0-.027.15.293.293,0,0,0,.045.155.487.487,0,0,0,.118.124,1.907,1.907,0,0,0,.167.11c.063.037.127.073.189.113a2.053,2.053,0,0,1,.192.127.892.892,0,0,1,.167.161.7.7,0,0,1,.118.209.818.818,0,0,1,.045.274.986.986,0,0,1-.093.427,1.057,1.057,0,0,1-.263.342,1.267,1.267,0,0,1-.413.226,1.61,1.61,0,0,1-.536.085,1.347,1.347,0,0,1-.291-.028,1.213,1.213,0,0,1-.238-.062.935.935,0,0,1-.175-.076.632.632,0,0,1-.1-.076.161.161,0,0,1-.034-.11c0-.014,0-.034.006-.059s.009-.057.014-.085.012-.062.02-.093a.786.786,0,0,1,.028-.088.55.55,0,0,1,.037-.065.065.065,0,0,1,.046-.023.189.189,0,0,1,.1.037c.04.025.085.054.144.085a1.463,1.463,0,0,0,.2.085.886.886,0,0,0,.279.04.862.862,0,0,0,.255-.037.559.559,0,0,0,.181-.1.368.368,0,0,0,.11-.147.385.385,0,0,0,.039-.181.26.26,0,0,0-.045-.158.431.431,0,0,0-.116-.127,1.012,1.012,0,0,0-.16-.11c-.062-.034-.125-.068-.189-.107s-.125-.082-.187-.127a.8.8,0,0,1-.16-.161.672.672,0,0,1-.116-.212.757.757,0,0,1-.045-.277.928.928,0,0,1,.087-.407.955.955,0,0,1,.243-.317,1.147,1.147,0,0,1,.373-.209,1.517,1.517,0,0,1,.478-.073,1.556,1.556,0,0,1,.234.017,1.741,1.741,0,0,1,.2.048.793.793,0,0,1,.155.062.586.586,0,0,1,.088.057.274.274,0,0,1,.037.048A.259.259,0,0,1,7874.092,1771.3Z" transform="translate(-7834.295 -1765.995)" fill="#ed3237" fill-rule="evenodd"/>
  </g>
</svg>
