<svg xmlns="http://www.w3.org/2000/svg" width="23.25" height="23.25" viewBox="0 0 23.25 23.25">
  <g id="logout" transform="translate(0 -0.004)">
    <path id="Path_11928" data-name="Path 11928" d="M14.734,12.6a.975.975,0,0,0-.982.969v3.875a.977.977,0,0,1-.982.969H9.823V3.879A1.955,1.955,0,0,0,8.485,2.037l-.291-.1H12.77a.977.977,0,0,1,.982.969V5.816a.982.982,0,0,0,1.964,0V2.91A2.93,2.93,0,0,0,12.77,0H2.21a.781.781,0,0,0-.105.021C2.058.021,2.013,0,1.965,0A1.953,1.953,0,0,0,0,1.941V19.379A1.955,1.955,0,0,0,1.338,21.22l5.912,1.943a2.06,2.06,0,0,0,.609.09,1.953,1.953,0,0,0,1.964-1.938v-.969H12.77a2.93,2.93,0,0,0,2.947-2.906V13.566a.975.975,0,0,0-.982-.969Zm0,0" transform="translate(0 0)" fill="#0d93fc"/>
    <path id="Path_11929" data-name="Path 11929" d="M287.85,110.883l-3.929-3.929a.982.982,0,0,0-1.677.694v2.947h-3.929a.982.982,0,1,0,0,1.964h3.929v2.947a.982.982,0,0,0,1.677.695l3.929-3.929A.981.981,0,0,0,287.85,110.883Zm0,0" transform="translate(-264.888 -101.867)" fill="#0d93fc"/>
  </g>
</svg>
