<svg id="person_pin-24px" xmlns="http://www.w3.org/2000/svg" width="19.566" height="19.566" viewBox="0 0 19.566 19.566">
  <path id="Path_739" data-name="Path 739" d="M0,0H19.566V19.566H0Z" fill="none"/>
  <path id="Path_740" data-name="Path 740" d="M16.044,2H4.631A1.63,1.63,0,0,0,3,3.631V15.044a1.635,1.635,0,0,0,1.631,1.631H7.892l1.867,1.867a.812.812,0,0,0,1.15,0l1.875-1.867h3.261a1.635,1.635,0,0,0,1.631-1.631V3.631A1.635,1.635,0,0,0,16.044,2ZM10.337,4.69a2.2,2.2,0,1,1-2.2,2.2A2.2,2.2,0,0,1,10.337,4.69Zm4.892,8.723H5.446V12.68c0-1.631,3.261-2.527,4.892-2.527s4.892.9,4.892,2.527Z" transform="translate(-0.554 -0.369)" fill="#0d93fc"/>
</svg>
