<svg xmlns="http://www.w3.org/2000/svg" width="14" height="10.5" viewBox="0 0 14 10.5">
  <path id="phone_icon" d="M12.833,3H1.167A1.17,1.17,0,0,0,0,4.167v8.167A1.17,1.17,0,0,0,1.167,13.5H12.833a1.165,1.165,0,0,0,1.161-1.167L14,4.167A1.17,1.17,0,0,0,12.833,3ZM4.667,4.75A1.75,1.75,0,1,1,2.917,6.5,1.748,1.748,0,0,1,4.667,4.75Zm3.5,7h-7v-.583c0-1.167,2.333-1.808,3.5-1.808s3.5.642,3.5,1.808Zm2.246-2.333h.957l.881,1.167-1.161,1.161A4.382,4.382,0,0,1,9.5,9.417a4.248,4.248,0,0,1,0-2.333,4.36,4.36,0,0,1,1.592-2.327L12.25,5.917l-.881,1.167h-.957a3.435,3.435,0,0,0,0,2.333Z" transform="translate(0 -3)" fill="#707070"/>
</svg>
